<svg width="32" height="32" viewBox="0 0 32 32" fill="none" xmlns="http://www.w3.org/2000/svg">
<rect width="32" height="32" fill="white"/>
<path d="M31.7818 21.3087C30.2546 19.7814 27.9272 19.4905 26.1091 20.5087L23.0545 21.9633C22.2545 22.3269 21.3091 22.5451 20.3636 22.6178C20.7999 22.036 21.0908 21.236 21.0908 20.436C21.0908 19.636 20.4362 18.9814 19.6362 18.9814H12.0728C10.1818 18.9814 8.36369 19.7814 7.12731 21.236L4.58187 24.1451C4.21825 23.5633 3.56369 23.2723 2.90913 23.2723H0.72725C0.290937 23.2724 0 23.5633 0 23.9996C0 24.436 0.290937 24.7269 0.72725 24.7269H2.90906C3.34544 24.7269 3.63631 25.0178 3.63631 25.4541V29.8178C3.63631 30.2541 3.34537 30.545 2.90906 30.545H0.72725C0.290937 30.5451 0 30.836 0 31.2724C0 31.7088 0.290937 31.9996 0.72725 31.9996H2.90906C3.8545 31.9996 4.6545 31.4178 4.94544 30.5451H8.94544C9.30906 30.5451 9.67269 30.5451 9.96362 30.4723L20.2182 29.3087C21.8909 29.0905 23.4909 28.5087 24.8727 27.4905L31.7091 22.3996C31.8545 22.2542 32 22.1087 32 21.8906C32 21.6724 31.9272 21.4542 31.7818 21.3087ZM24 26.3269C22.8364 27.1996 21.5273 27.7087 20.0728 27.8541L9.81819 29.0178C9.52725 29.0178 9.23637 29.0905 8.94544 29.0905H5.09094V25.7451L8.29094 22.1087C9.23637 21.0178 10.6182 20.3633 12.1455 20.3633H19.6364C19.6364 21.5996 18.691 22.5451 17.4546 22.5451H16.7274H13.091C12.6546 22.5451 12.3638 22.836 12.3638 23.2723C12.3638 23.7087 12.6547 23.9996 13.091 23.9996H16.7274H17.4546H20.1456C21.3819 23.9996 22.5456 23.7086 23.6365 23.1996L26.7638 21.745C27.7819 21.1632 29.091 21.1632 30.1092 21.8178L24 26.3269Z" fill="#0E1E2B"/>
<path d="M15.2699 8.72681C12.8699 8.72681 10.9062 10.6904 10.9062 13.0904C10.9062 15.4904 12.8699 17.4541 15.2699 17.4541C17.6699 17.4541 19.6335 15.4904 19.6335 13.0904C19.6335 10.6905 17.6699 8.72681 15.2699 8.72681ZM15.2699 15.9996C13.6699 15.9996 12.3608 14.6905 12.3608 13.0905C12.3608 11.4905 13.6699 10.1814 15.2699 10.1814C16.8699 10.1814 18.1789 11.4905 18.1789 13.0905C18.1789 14.6905 16.8699 15.9996 15.2699 15.9996Z" fill="#0E1E2B"/>
<path d="M24.7301 5.81836C22.6937 5.81836 21.0938 7.41836 21.0938 9.45474C21.0938 11.4911 22.6937 13.0911 24.7301 13.0911C26.7665 13.0911 28.3665 11.4911 28.3665 9.45474C28.3665 7.41836 26.7665 5.81836 24.7301 5.81836ZM24.7301 11.6365C23.4937 11.6365 22.5483 10.6911 22.5483 9.45474C22.5483 8.21836 23.4937 7.27292 24.7301 7.27292C25.9665 7.27292 26.9119 8.21836 26.9119 9.45474C26.9119 10.6911 25.9665 11.6365 24.7301 11.6365Z" fill="#0E1E2B"/>
<path d="M17.4481 0C15.8481 0 14.5391 1.30906 14.5391 2.90906C14.5391 4.50906 15.8481 5.81813 17.4481 5.81813C19.0481 5.81813 20.3572 4.50906 20.3572 2.90906C20.3572 1.30906 19.0481 0 17.4481 0ZM17.4481 4.36363C16.6481 4.36363 15.9936 3.70906 15.9936 2.90906C15.9936 2.10906 16.6481 1.4545 17.4481 1.4545C18.2481 1.4545 18.9027 2.10906 18.9027 2.90906C18.9027 3.70906 18.2481 4.36363 17.4481 4.36363Z" fill="white"/>
</svg>
