<svg width="23" height="28" viewBox="0 0 23 28" fill="none" xmlns="http://www.w3.org/2000/svg">
<path d="M19.572 25.1134H6.85721C4.75585 25.1134 3.04765 23.5494 3.04765 21.6255C3.04765 19.7015 4.75585 18.1375 6.85721 18.1375H17.524C20.465 18.1375 22.8574 15.947 22.8574 13.2543C22.8574 10.5616 20.465 8.37114 17.524 8.37114H10.1167C9.55704 9.37552 8.86404 10.3127 8.05341 11.1615H17.524C18.7842 11.1615 19.8097 12.1005 19.8097 13.2543C19.8097 14.4081 18.7842 15.3471 17.524 15.3471H6.85721C3.0766 15.3471 0 18.164 0 21.6255C0 25.0869 3.0766 27.9038 6.85721 27.9038H21.4752C20.7275 27.0426 20.089 26.1065 19.572 25.1134ZM4.57147 0C2.05107 0 0 1.87793 0 4.18557C0 8.63344 4.57147 11.1615 4.57147 11.1615C4.57147 11.1615 9.14294 8.63204 9.14294 4.18557C9.14294 1.87793 7.09188 0 4.57147 0ZM4.57147 6.27836C4.2712 6.27827 3.9739 6.22403 3.69652 6.11873C3.41915 6.01344 3.16715 5.85916 2.9549 5.6647C2.74265 5.47023 2.57431 5.2394 2.45949 4.98537C2.34468 4.73134 2.28564 4.4591 2.28574 4.18418C2.28584 3.90926 2.34508 3.63705 2.46008 3.38309C2.57508 3.12913 2.74358 2.8984 2.95597 2.70406C3.16837 2.50973 3.42048 2.3556 3.69793 2.25048C3.97538 2.14536 4.27273 2.0913 4.57299 2.09139C5.17941 2.09158 5.76091 2.31232 6.18957 2.70505C6.61823 3.09779 6.85893 3.63035 6.85873 4.18557C6.85853 4.7408 6.61744 5.27321 6.18849 5.66568C5.75955 6.05816 5.17789 6.27854 4.57147 6.27836Z" fill="#465C8D"/>
</svg>
