<svg width="20" height="16" viewBox="0 0 20 16" fill="none" xmlns="http://www.w3.org/2000/svg">
<path d="M17.3042 0H2.41028C1.08075 0 0 1.1528 0 2.57096V13.429C0 14.8472 1.08075 16 2.41028 16H17.3002C18.6297 16 19.7104 14.8472 19.7104 13.429V2.57531C19.7145 1.15715 18.6338 0 17.3042 0ZM18.6134 13.429C18.6134 14.199 18.0261 14.8254 17.3042 14.8254H2.41028C1.68842 14.8254 1.10114 14.199 1.10114 13.429V2.57531C1.10114 1.80533 1.68842 1.1789 2.41028 1.1789H17.3002C18.022 1.1789 18.6093 1.80533 18.6093 2.57531V13.429H18.6134Z" fill="black"/>
<path d="M12.4304 7.86453L17.2509 3.25333C17.4752 3.03582 17.4956 2.66605 17.2917 2.42244C17.0878 2.18318 16.7411 2.16143 16.5127 2.37894L9.8651 8.74327L8.5682 7.50781C8.56412 7.50346 8.56004 7.49911 8.56004 7.49476C8.5315 7.46431 8.50295 7.43821 8.47032 7.41211L3.193 2.37459C2.96461 2.15708 2.61796 2.17883 2.41404 2.42244C2.21013 2.66605 2.23052 3.03582 2.4589 3.25333L7.33655 7.90368L2.47929 12.7541C2.25907 12.976 2.24683 13.3458 2.45482 13.585C2.56494 13.7068 2.71176 13.7721 2.85858 13.7721C2.99316 13.7721 3.12775 13.7199 3.23378 13.6155L8.16445 8.69541L9.50213 9.97002C9.60817 10.0701 9.73867 10.1179 9.86918 10.1179C9.99969 10.1179 10.1343 10.0657 10.2362 9.96567L11.6106 8.65191L16.5127 13.6198C16.6188 13.7286 16.7574 13.7808 16.892 13.7808C17.0388 13.7808 17.1816 13.7199 17.2917 13.5981C17.4997 13.3632 17.4915 12.9891 17.2713 12.7672L12.4304 7.86453Z" fill="black"/>
</svg>
