<svg width="19" height="19" viewBox="0 0 19 19" fill="none" xmlns="http://www.w3.org/2000/svg">
<path d="M9.51487 19C4.79466 19 0 17.9705 0 16.0024C0 14.2462 3.69278 13.5195 5.27115 13.2924H5.33071C5.55407 13.2924 5.74764 13.459 5.77742 13.6861C5.79231 13.8072 5.76253 13.9283 5.68808 14.0191C5.61363 14.11 5.50939 14.1857 5.39027 14.2008C2.09953 14.6853 0.878525 15.5633 0.878525 16.0175C0.878525 16.8653 4.24372 18.1068 9.49998 18.1068C14.7562 18.1068 18.1214 16.8653 18.1214 16.0175C18.1214 15.5633 16.8855 14.6853 13.565 14.2008C13.4459 14.1857 13.3417 14.1251 13.2672 14.0191C13.1928 13.9283 13.163 13.8072 13.1779 13.6861C13.2077 13.459 13.4012 13.2924 13.6246 13.2924H13.6841C15.2774 13.5195 19 14.2462 19 16.0024C19.0149 17.9554 14.2351 19 9.51487 19ZM9.20218 15.7904C8.97882 15.5785 3.8268 10.6279 3.8268 5.76813C3.8268 2.58885 6.37303 0 9.49998 0C12.6269 0 15.1732 2.58885 15.1732 5.76813C15.1732 10.4916 10.0211 15.5633 9.79779 15.7753L9.49998 16.0781L9.20218 15.7904ZM9.51487 0.908367C6.8793 0.908367 4.7351 3.08845 4.7351 5.76813C4.7351 9.56813 8.38321 13.6406 9.51487 14.8064C10.6614 13.6104 14.3095 9.46215 14.3095 5.76813C14.2946 3.10359 12.1504 0.908367 9.51487 0.908367ZM9.51487 8.34183C8.02585 8.34183 6.81974 7.11554 6.81974 5.60159C6.81974 4.08765 8.02585 2.86135 9.51487 2.86135C11.0039 2.86135 12.21 4.08765 12.21 5.60159C12.21 7.11554 11.0039 8.34183 9.51487 8.34183ZM9.51487 3.76972C8.51723 3.76972 7.71315 4.58725 7.71315 5.60159C7.71315 6.61594 8.51723 7.43347 9.51487 7.43347C10.5125 7.43347 11.3166 6.61594 11.3166 5.60159C11.3166 4.58725 10.4976 3.76972 9.51487 3.76972Z" fill="black"/>
</svg>
