<svg width="16" height="16" viewBox="0 0 16 16" fill="none" xmlns="http://www.w3.org/2000/svg">
<path d="M10.632 4.56515L8.8 2.72469V10.3986C8.8 10.6108 8.71571 10.8144 8.56569 10.9644C8.41566 11.1145 8.21217 11.1988 8 11.1988C7.78783 11.1988 7.58434 11.1145 7.43431 10.9644C7.28429 10.8144 7.2 10.6108 7.2 10.3986V2.72469L5.368 4.56515C5.29363 4.64015 5.20515 4.69968 5.10766 4.74031C5.01017 4.78093 4.90561 4.80185 4.8 4.80185C4.69439 4.80185 4.58983 4.78093 4.49234 4.74031C4.39485 4.69968 4.30637 4.64015 4.232 4.56515C4.15702 4.49076 4.0975 4.40226 4.05689 4.30475C4.01627 4.20723 3.99536 4.10264 3.99536 3.99701C3.99536 3.89137 4.01627 3.78678 4.05689 3.68927C4.0975 3.59176 4.15702 3.50325 4.232 3.42887L7.432 0.228068C7.50808 0.155217 7.5978 0.0981108 7.696 0.0600258C7.89077 -0.0200086 8.10923 -0.0200086 8.304 0.0600258C8.4022 0.0981108 8.49192 0.155217 8.568 0.228068L11.768 3.42887C11.8426 3.50348 11.9018 3.59205 11.9421 3.68953C11.9825 3.78701 12.0033 3.89149 12.0033 3.99701C12.0033 4.10252 11.9825 4.207 11.9421 4.30448C11.9018 4.40197 11.8426 4.49054 11.768 4.56515C11.6934 4.63976 11.6049 4.69894 11.5074 4.73932C11.4099 4.7797 11.3055 4.80048 11.2 4.80048C11.0945 4.80048 10.9901 4.7797 10.8926 4.73932C10.7951 4.69894 10.7066 4.63976 10.632 4.56515ZM0.8 9.5984C1.01217 9.5984 1.21566 9.68271 1.36569 9.83278C1.51572 9.98284 1.6 10.1864 1.6 10.3986V13.5994C1.6 13.8116 1.68429 14.0152 1.83431 14.1652C1.98434 14.3153 2.18783 14.3996 2.4 14.3996H13.6C13.8122 14.3996 14.0157 14.3153 14.1657 14.1652C14.3157 14.0152 14.4 13.8116 14.4 13.5994V10.3986C14.4 10.1864 14.4843 9.98284 14.6343 9.83278C14.7843 9.68271 14.9878 9.5984 15.2 9.5984C15.4122 9.5984 15.6157 9.68271 15.7657 9.83278C15.9157 9.98284 16 10.1864 16 10.3986V13.5994C16 14.2361 15.7471 14.8467 15.2971 15.2969C14.847 15.7471 14.2365 16 13.6 16H2.4C1.76348 16 1.15303 15.7471 0.702944 15.2969C0.252856 14.8467 0 14.2361 0 13.5994V10.3986C0 10.1864 0.0842848 9.98284 0.234314 9.83278C0.384343 9.68271 0.587827 9.5984 0.8 9.5984Z" fill="#165AB6"/>
</svg>
