<svg width="18" height="18" viewBox="0 0 18 18" fill="none" xmlns="http://www.w3.org/2000/svg">
<path d="M1 2.68457H4.27273" stroke="white" stroke-miterlimit="10" stroke-linecap="round"/>
<path d="M10.0898 2.68359H16.9989" stroke="white" stroke-miterlimit="10" stroke-linecap="round"/>
<path d="M7.18537 4.78947C8.18952 4.78947 9.00355 3.94117 9.00355 2.89474C9.00355 1.8483 8.18952 1 7.18537 1C6.18122 1 5.36719 1.8483 5.36719 2.89474C5.36719 3.94117 6.18122 4.78947 7.18537 4.78947Z" stroke="white" stroke-miterlimit="10" stroke-linecap="round"/>
<path d="M16.9993 9H13.7266" stroke="white" stroke-miterlimit="10" stroke-linecap="round"/>
<path d="M7.90909 9H1" stroke="white" stroke-miterlimit="10" stroke-linecap="round"/>
<path d="M10.8221 11.1051C11.8262 11.1051 12.6403 10.1625 12.6403 8.99979C12.6403 7.83709 11.8262 6.89453 10.8221 6.89453C9.81793 6.89453 9.00391 7.83709 9.00391 8.99979C9.00391 10.1625 9.81793 11.1051 10.8221 11.1051Z" stroke="white" stroke-miterlimit="10" stroke-linecap="round"/>
<path d="M17.0014 14.8945H11.5469" stroke="white" stroke-miterlimit="10" stroke-linecap="round"/>
<path d="M5.72727 14.8945H1" stroke="white" stroke-miterlimit="10" stroke-linecap="round"/>
<path d="M8.63459 16.9996C9.63874 16.9996 10.4528 16.057 10.4528 14.8943C10.4528 13.7316 9.63874 12.7891 8.63459 12.7891C7.63043 12.7891 6.81641 13.7316 6.81641 14.8943C6.81641 16.057 7.63043 16.9996 8.63459 16.9996Z" stroke="white" stroke-miterlimit="10" stroke-linecap="round"/>
</svg>
