<svg width="30" height="30" viewBox="0 0 30 30" fill="none" xmlns="http://www.w3.org/2000/svg">
<rect width="30" height="30" rx="8" fill="#1A7DD3"/>
<path d="M22.9721 22.2636L21.0078 16.314C20.9312 16.0819 20.7108 15.9246 20.4622 15.9246H19.0755C19.6964 14.8204 20.1424 13.5164 20.1424 12.0478C20.1424 9.26444 17.8355 7 14.9999 7C12.1645 7 9.8576 9.26444 9.8576 12.0478C9.8576 13.5164 10.3036 14.8204 10.9244 15.9246H9.53782C9.28916 15.9246 9.06894 16.0819 8.99224 16.314L7.02793 22.2636C6.97135 22.435 7.00178 22.6225 7.10967 22.7682C7.21757 22.9138 7.39 23 7.57351 23H22.4265C22.61 23 22.7824 22.9138 22.8904 22.7682C22.9983 22.6225 23.0286 22.435 22.9721 22.2636ZM14.9999 8.12573C17.203 8.12573 18.9955 9.88517 18.9955 12.0478C18.9955 15.503 15.9916 18.0289 14.9993 18.7689C14.0061 18.0309 11.0046 15.513 11.0046 12.0478C11.0046 9.88517 12.7968 8.12573 14.9999 8.12573ZM8.36217 21.8743L9.95486 17.0504H11.6596C12.984 18.8232 14.5723 19.8605 14.6861 19.9335C14.7815 19.9947 14.8907 20.0252 14.9999 20.0252C15.1092 20.0252 15.2184 19.9947 15.3138 19.9335C15.4274 19.8606 17.0159 18.8232 18.3404 17.0504H20.0453L21.6379 21.8743H8.36217Z" fill="white"/>
</svg>
