<svg width="17" height="16" viewBox="0 0 17 16" fill="none" xmlns="http://www.w3.org/2000/svg">
<g clip-path="url(#clip0_1411_8853)">
<path d="M8.85472 0.3125C10.8783 0.347681 12.8091 1.16884 14.2402 2.60285C15.6713 4.03686 16.4907 5.97167 16.5258 7.99937C16.4907 10.0271 15.6713 11.9619 14.2402 13.3959C12.8091 14.8299 10.8783 15.6511 8.85472 15.6862C7.38143 15.6861 5.93612 15.283 4.67455 14.5205L1.18359 15.6873L2.3469 12.1912C1.58544 10.9261 1.1832 9.47672 1.18359 7.99937C1.2187 5.97167 2.03818 4.03686 3.46925 2.60285C4.90033 1.16884 6.83118 0.347681 8.85472 0.3125Z" fill="#B60E0E"/>
<path d="M10.4196 11.1247V12.3742H7.30078V11.1247H7.92475V7.99948H7.30078V6.75H9.79564V11.1247H10.4196Z" fill="white"/>
<path d="M14.9676 7.99904C14.9676 8.39776 14.9277 8.79548 14.8483 9.18619C14.8318 9.26734 14.848 9.35175 14.8935 9.4209C14.939 9.49005 15.01 9.53827 15.091 9.555C15.1118 9.55924 15.133 9.5613 15.1542 9.56114C15.2262 9.56118 15.2959 9.53627 15.3517 9.49065C15.4074 9.44503 15.4457 9.3815 15.46 9.31083C15.5477 8.87875 15.5918 8.43893 15.5916 7.99801C15.5939 7.02408 15.3775 6.06212 14.9585 5.18338C14.942 5.14458 14.9178 5.10952 14.8875 5.08031C14.8571 5.0511 14.8212 5.02835 14.7818 5.01342C14.7425 4.99849 14.7005 4.99169 14.6585 4.99343C14.6164 4.99517 14.5752 5.00541 14.5372 5.02355C14.4992 5.04169 14.4653 5.06735 14.4374 5.09897C14.4096 5.13059 14.3884 5.16753 14.3752 5.20756C14.362 5.2476 14.3569 5.2899 14.3605 5.33192C14.364 5.37394 14.376 5.41481 14.3957 5.45208C14.7746 6.24731 14.9701 7.1178 14.9676 7.99904Z" fill="white"/>
<path d="M10.4191 10.8122H10.1071V6.75012C10.1071 6.70907 10.099 6.66842 10.0833 6.63049C10.0677 6.59256 10.0447 6.5581 10.0157 6.52907C9.98675 6.50004 9.95236 6.47702 9.9145 6.4613C9.87665 6.44559 9.83609 6.4375 9.79512 6.4375H7.30026C7.25929 6.4375 7.21873 6.44559 7.18088 6.4613C7.14303 6.47702 7.10863 6.50004 7.07966 6.52907C7.05069 6.5581 7.02772 6.59256 7.01204 6.63049C6.99636 6.66842 6.98828 6.70907 6.98828 6.75012V7.9996C6.98828 8.08252 7.02116 8.16203 7.07966 8.22066C7.13817 8.27929 7.21752 8.31223 7.30026 8.31223H7.61225V10.8122H7.30026C7.21752 10.8122 7.13817 10.8451 7.07966 10.9038C7.02116 10.9624 6.98828 11.0419 6.98828 11.1248V12.3743C6.98828 12.4572 7.02116 12.5367 7.07966 12.5953C7.13817 12.654 7.21752 12.6869 7.30026 12.6869H10.4191C10.4601 12.6869 10.5006 12.6788 10.5385 12.6631C10.5763 12.6474 10.6107 12.6244 10.6397 12.5953C10.6687 12.5663 10.6916 12.5319 10.7073 12.4939C10.723 12.456 10.7311 12.4153 10.7311 12.3743V11.1248C10.7311 11.0838 10.723 11.0431 10.7073 11.0052C10.6916 10.9673 10.6687 10.9328 10.6397 10.9038C10.6107 10.8747 10.5763 10.8517 10.5385 10.836C10.5006 10.8203 10.4601 10.8122 10.4191 10.8122ZM10.1071 12.0617H7.61225V11.4364H7.92423C8.00697 11.4364 8.08632 11.4035 8.14483 11.3449C8.20334 11.2862 8.23621 11.2067 8.23621 11.1238V7.99858C8.23621 7.91566 8.20334 7.83615 8.14483 7.77752C8.08632 7.71889 8.00697 7.68595 7.92423 7.68595H7.61225V7.0607H9.48314V11.1228C9.48314 11.2057 9.51599 11.2852 9.5745 11.3438C9.63301 11.4024 9.71238 11.4354 9.79512 11.4354H10.1071V12.0617Z" fill="#B60E0E"/>
<path d="M8.8563 5.81242C9.10287 5.81242 9.3439 5.73917 9.54893 5.60192C9.75396 5.46467 9.91379 5.26959 10.0082 5.04134C10.1026 4.81309 10.1274 4.56191 10.0793 4.31957C10.0313 4.07722 9.91264 3.85458 9.73836 3.6798C9.56407 3.50501 9.34198 3.38594 9.10017 3.33761C8.85836 3.28928 8.60769 3.31388 8.37983 3.4083C8.15197 3.50271 7.95715 3.66269 7.82002 3.86804C7.68288 4.07338 7.60958 4.31485 7.60938 4.56193C7.60964 4.89332 7.74107 5.21108 7.97483 5.4455C8.20858 5.67993 8.52558 5.81188 8.8563 5.81242ZM8.8563 3.9377C8.97971 3.9377 9.10033 3.97437 9.20294 4.04308C9.30555 4.11178 9.38554 4.20943 9.43277 4.32368C9.47999 4.43793 9.49234 4.56365 9.46827 4.68493C9.44419 4.80622 9.38476 4.91762 9.2975 5.00506C9.21023 5.09251 9.09905 5.15206 8.97802 5.17619C8.85698 5.20031 8.73152 5.18793 8.61751 5.1406C8.50349 5.09328 8.40604 5.01314 8.33748 4.91032C8.26892 4.8075 8.23231 4.68661 8.23231 4.56295C8.23231 4.39712 8.29806 4.23809 8.41508 4.12084C8.5321 4.00358 8.69081 3.9377 8.8563 3.9377Z" fill="white"/>
<path d="M8.85896 0C6.7526 0.0349683 4.74228 0.888996 3.25266 2.38168C1.76303 3.87436 0.910753 5.88881 0.875857 7.99949C0.879106 9.48451 1.26958 10.9429 2.00858 12.2301L0.887072 15.5883C0.868773 15.6433 0.866134 15.7024 0.879451 15.7589C0.892768 15.8154 0.921515 15.8671 0.962472 15.9081C1.00343 15.9491 1.05498 15.9779 1.11135 15.9913C1.16772 16.0046 1.22668 16.002 1.28164 15.9837L4.63291 14.8598C5.91817 15.6029 7.37512 15.996 8.85896 16C10.9653 15.965 12.9756 15.111 14.4653 13.6183C15.9549 12.1256 16.8072 10.1112 16.8421 8.00051C16.8074 5.88965 15.9553 3.87495 14.4656 2.38205C12.976 0.889144 10.9655 0.0349756 8.85896 0ZM8.85896 15.3748C7.44434 15.3742 6.05649 14.9882 4.84396 14.2581C4.80494 14.2333 4.76093 14.2175 4.71509 14.2119C4.66924 14.2062 4.62272 14.2108 4.57888 14.2254L1.6813 15.1929L2.64682 12.2894C2.66142 12.2455 2.66606 12.1988 2.66042 12.1529C2.65477 12.1069 2.63898 12.0628 2.6142 12.0238C1.88497 10.8086 1.49941 9.41746 1.4988 7.99949C1.52442 6.05152 2.30812 4.19058 3.68293 2.81314C5.05774 1.43569 6.91498 0.650645 8.85896 0.625247C10.8028 0.650909 12.6597 1.43607 14.0343 2.81349C15.4089 4.19091 16.1925 6.0517 16.2181 7.99949C16.1928 9.94746 15.4093 11.8085 14.0347 13.1861C12.6601 14.5638 10.8029 15.3491 8.85896 15.3748Z" fill="white"/>
</g>
<defs>
<clipPath id="clip0_1411_8853">
<rect width="15.9672" height="16" fill="white" transform="translate(0.875)"/>
</clipPath>
</defs>
</svg>
