<svg width="32" height="32" viewBox="0 0 32 32" fill="none" xmlns="http://www.w3.org/2000/svg">
<path d="M16 28C17.5759 28 19.1363 27.6896 20.5922 27.0866C22.0481 26.4835 23.371 25.5996 24.4853 24.4853C25.5996 23.371 26.4835 22.0481 27.0866 20.5922C27.6896 19.1363 28 17.5759 28 16C28 14.4241 27.6896 12.8637 27.0866 11.4078C26.4835 9.95189 25.5996 8.62902 24.4853 7.51472C23.371 6.40042 22.0481 5.5165 20.5922 4.91345C19.1363 4.31039 17.5759 4 16 4C12.8174 4 9.76515 5.26428 7.51472 7.51472C5.26428 9.76515 4 12.8174 4 16C4 19.1826 5.26428 22.2348 7.51472 24.4853C9.76515 26.7357 12.8174 28 16 28ZM16 30C12.287 30 8.72601 28.525 6.1005 25.8995C3.475 23.274 2 19.713 2 16C2 12.287 3.475 8.72601 6.1005 6.1005C8.72601 3.475 12.287 2 16 2C19.713 2 23.274 3.475 25.8995 6.1005C28.525 8.72601 30 12.287 30 16C30 19.713 28.525 23.274 25.8995 25.8995C23.274 28.525 19.713 30 16 30Z" fill="#130940"/>
<path d="M6 16C6 13.3478 7.05357 10.8043 8.92893 8.92893C10.8043 7.05357 13.3478 6 16 6C18.6522 6 21.1957 7.05357 23.0711 8.92893C24.9464 10.8043 26 13.3478 26 16C26 16.2652 25.8946 16.5196 25.7071 16.7071C25.5196 16.8946 25.2652 17 25 17C24.7348 17 24.4804 16.8946 24.2929 16.7071C24.1054 16.5196 24 16.2652 24 16C24 13.8783 23.1571 11.8434 21.6569 10.3431C20.1566 8.84285 18.1217 8 16 8C13.8783 8 11.8434 8.84285 10.3431 10.3431C8.84285 11.8434 8 13.8783 8 16C8 16.2652 7.89464 16.5196 7.70711 16.7071C7.51957 16.8946 7.26522 17 7 17C6.73478 17 6.48043 16.8946 6.29289 16.7071C6.10536 16.5196 6 16.2652 6 16Z" fill="#130940"/>
<path d="M17.8276 19.62C18.3888 20.0511 18.7795 20.6667 18.9307 21.358C19.0819 22.0493 18.9839 22.7719 18.6539 23.3979C18.324 24.0239 17.7833 24.5132 17.1275 24.7791C16.4718 25.0451 15.7431 25.0707 15.0702 24.8514C14.3974 24.632 13.8238 24.1819 13.4507 23.5806C13.0777 22.9792 12.9292 22.2654 13.0316 21.5652C13.1339 20.8649 13.4805 20.2234 14.0101 19.754C14.5397 19.2846 15.2181 19.0176 15.9256 19L17.8316 13.132C17.8711 13.0058 17.9352 12.8887 18.0203 12.7874C18.1053 12.6862 18.2096 12.6028 18.3271 12.5421C18.4446 12.4815 18.573 12.4447 18.7048 12.434C18.8366 12.4232 18.9692 12.4387 19.0949 12.4796C19.2207 12.5205 19.3371 12.5859 19.4374 12.672C19.5378 12.7582 19.62 12.8634 19.6794 12.9815C19.7388 13.0997 19.7742 13.2284 19.7835 13.3603C19.7928 13.4922 19.7758 13.6247 19.7336 13.75L17.8276 19.618V19.62ZM15.6916 22.952C15.8166 22.9927 15.9484 23.0084 16.0795 22.9982C16.2106 22.9879 16.3383 22.952 16.4555 22.8924C16.5727 22.8327 16.677 22.7506 16.7625 22.6507C16.8479 22.5508 16.9129 22.435 16.9536 22.31C16.9943 22.185 17.01 22.0532 16.9997 21.9221C16.9895 21.791 16.9536 21.6632 16.8939 21.546C16.8343 21.4288 16.7522 21.3245 16.6523 21.2391C16.5524 21.1536 16.4366 21.0887 16.3116 21.048C16.0591 20.9658 15.7843 20.9872 15.5476 21.1076C15.3109 21.228 15.1318 21.4375 15.0496 21.69C14.9674 21.9425 14.9888 22.2173 15.1092 22.454C15.2296 22.6906 15.4391 22.8698 15.6916 22.952Z" fill="#130940"/>
</svg>
