<svg width="32" height="32" viewBox="0 0 32 32" fill="none" xmlns="http://www.w3.org/2000/svg">
<path d="M31.9442 30.5272L28.0156 18.628C27.8624 18.1637 27.4216 17.8493 26.9244 17.8493H24.151C25.3928 15.6407 26.2849 13.0328 26.2849 10.0955C26.2849 4.52889 21.671 0 15.9997 0C10.3289 0 5.71519 4.52889 5.71519 10.0955C5.71519 13.0328 6.60723 15.6407 7.84887 17.8493H5.07564C4.57831 17.8493 4.13787 18.1637 3.98448 18.628L0.0558671 30.5272C-0.057301 30.8699 0.00356509 31.245 0.219349 31.5363C0.435133 31.8277 0.77999 32 1.14702 32H30.853C31.2201 32 31.5648 31.8277 31.7807 31.5363C31.9965 31.245 32.0572 30.8699 31.9442 30.5272ZM15.9997 2.25146C20.4061 2.25146 23.9909 5.77034 23.9909 10.0955C23.9909 17.006 17.9832 22.0577 15.9985 23.5378C14.0123 22.0618 8.00914 17.026 8.00914 10.0955C8.00914 5.77034 11.5937 2.25146 15.9997 2.25146ZM2.72434 29.7485L5.90972 20.1007H9.31929C11.968 23.6465 15.1447 25.721 15.3723 25.867C15.563 25.9894 15.7813 26.0504 15.9999 26.0504C16.2184 26.0504 16.4368 25.9894 16.6275 25.867C16.8548 25.7211 20.0319 23.6465 22.6808 20.1007H26.0907L29.2759 29.7485H2.72434Z" fill="#0E1E2B"/>
</svg>
