<svg width="32" height="32" viewBox="0 0 32 32" fill="none" xmlns="http://www.w3.org/2000/svg">
<g clip-path="url(#clip0_1196_15856)">
<path d="M20.4693 3.3575C20.7535 3.32038 21.0436 3.30181 21.3327 3.30181C21.4108 3.30181 21.4899 3.30281 21.568 3.30669H21.5788C21.7477 3.30669 21.8874 3.17194 21.8932 3.002C21.8991 2.82819 21.7633 2.68169 21.5895 2.67581H21.5573H21.5533L21.5494 2.67481H21.5465H21.5445H21.5397H21.5387H21.5357C21.4888 2.67381 21.442 2.67188 21.3951 2.67188H21.3873H21.3863H21.3833H21.3785H21.3775H21.3756H21.3737H21.3717H21.3698H21.3678H21.3659H21.364H21.362H21.3601H21.3582H21.3562H21.3533H21.3523H21.3503H21.3484H21.3443H21.3404H21.3365H21.3325H21.3286H21.3257H21.3247H21.3227H21.3208H21.3178H21.3168H21.3139H21.3131H21.3112H21.3092H21.3073H21.3063H21.3033H21.3023H21.2994H21.2975H21.2955H21.2945H21.2916H21.2877H21.2837H21.2808H21.2798H21.2778H21.2759H21.273H21.272H21.269H21.268H21.2661H21.2642H21.2622H21.2612H21.2583H21.2573H21.2543H21.2524H21.2506H21.2496H21.2467H21.2437H21.2427H21.2388H21.2358H21.2348H21.2329H21.231H21.229H21.228L21.2251 2.67287H21.2232H21.2212H21.2193H21.2174H21.2164H21.2135H21.2095H21.2085H21.2056H21.2046H21.2027H21.2017H21.1987H21.1977H21.1948H21.1938H21.1918H21.1899L21.1881 2.67387H21.1862H21.1842H21.1832H21.1803H21.1783H21.1764H21.1745H21.1725H21.1715H21.1686H21.1647H21.1607H21.1578H21.1568H21.1539H21.1529H21.149H21.147H21.1451H21.1432H21.1412H21.1393H21.1383L21.1353 2.67488H21.1334H21.1315H21.1305H21.1275H21.1246H21.1236H21.1197H21.1157H21.1138L21.1118 2.67587H21.1099H21.108H21.105H21.104H21.1021H21.1002H21.0982H21.0972H21.0943H21.0904H21.0885H21.0865H21.0855H21.0836H21.0826H21.0807H21.0787H21.0758H21.0748L21.0728 2.67687H21.0709H21.069H21.067H21.0651H21.0641H21.0612H21.0592H21.0573L21.0563 2.67788H21.0533H21.0494H21.0455H21.0415H21.0396H21.0377H21.0357H21.0338H21.0308H21.0298H21.0279H21.026L21.024 2.67887H21.023H21.0201H21.0162H21.0122H21.0083H21.0053H21.0043H21.0006H20.9977H20.9967L20.9947 2.67987H20.9928H20.9908H20.9898H20.9869H20.9859H20.983H20.982H20.979H20.9751H20.9712L20.9682 2.68088H20.9672H20.9643H20.9633H20.9613H20.9594L20.9535 2.68187H20.9525H20.9496H20.9457H20.9381H20.9342L20.9312 2.68287H20.9302H20.9243H20.9224L20.9205 2.68388H20.9195H20.9165H20.9087H20.9048H20.9008L20.894 2.68488H20.893H20.8911H20.8892L20.8872 2.68587H20.8794H20.8756H20.8717L20.8638 2.68687H20.8609H20.8599L20.8502 2.68756H20.8492H20.8463H20.8423L20.8345 2.68856H20.8316H20.8306L20.8169 2.68956C20.6723 2.69931 20.5298 2.714 20.3892 2.73156C20.2173 2.75306 20.0942 2.91125 20.1157 3.08413C20.1372 3.24331 20.272 3.3595 20.4282 3.3595L20.4693 3.3575Z" fill="#0E1E2B"/>
<path d="M18.2687 3.36523C18.2218 3.36523 18.176 3.37498 18.132 3.39648C18.0245 3.44823 17.9191 3.50198 17.8155 3.55861L17.796 3.56836L17.792 3.5703L17.7862 3.57323V3.57423L17.7832 3.57523H17.7824L17.7765 3.57917L17.7736 3.58111H17.7726L17.7707 3.58211V3.58311L17.7667 3.58505L17.7648 3.58605H17.7628L17.7609 3.58798L17.757 3.58992L17.755 3.59186H17.7531L17.7512 3.59273V3.59373L17.7472 3.59473V3.59573L17.7453 3.59673L17.7433 3.59773H17.7414L17.7404 3.59873L17.7394 3.59973L17.7365 3.60167H17.7355L17.7335 3.60361H17.7325L17.7306 3.60461L17.7296 3.60561L17.7267 3.60661L17.7257 3.60761L17.7237 3.60861L17.7227 3.60961H17.7217L17.7198 3.61061L17.7158 3.61355L17.7139 3.61455H17.7129L17.711 3.61555H17.71L17.7041 3.61948L17.7012 3.62142L17.6945 3.62498L17.6916 3.62692H17.6906L17.6818 3.6318C17.5538 3.70405 17.4298 3.77923 17.3078 3.85936C17.1613 3.95411 17.1203 4.14842 17.215 4.29492C17.2746 4.38767 17.3762 4.43848 17.4797 4.43848C17.5383 4.43848 17.5978 4.42186 17.6505 4.38767C17.8917 4.23142 18.1457 4.0898 18.4054 3.9648C18.5617 3.88961 18.6281 3.70111 18.5528 3.54486C18.4992 3.43161 18.3859 3.36523 18.2687 3.36523Z" fill="#0E1E2B"/>
<path d="M24.094 3.20415L24.0881 3.20121H24.0871L24.0841 3.20021L24.0744 3.19627L24.0636 3.1914H24.0626C24.008 3.1699 23.9533 3.1484 23.8966 3.1289C23.8615 3.11521 23.8244 3.1084 23.7873 3.1084C23.6603 3.1084 23.5392 3.18752 23.4923 3.31446C23.4318 3.47852 23.5158 3.65921 23.6788 3.71971C23.9474 3.81934 24.213 3.93652 24.4689 4.07027C24.5148 4.09371 24.5646 4.10546 24.6135 4.10546C24.7277 4.10546 24.8381 4.0449 24.8937 3.93652C24.9748 3.78321 24.9142 3.59177 24.7599 3.51171C24.5695 3.41209 24.3731 3.32027 24.173 3.23634L24.1622 3.2324L24.1593 3.23046L24.1525 3.22852L24.1485 3.22659L24.1426 3.22365L24.1387 3.22265L24.129 3.21871L24.1192 3.21384H24.1173L24.1153 3.21284L24.1075 3.2099L24.1046 3.2089H24.1036L24.0977 3.20596V3.20496L24.094 3.20415Z" fill="#0E1E2B"/>
<path d="M13.3619 21.7959C13.0036 21.4853 12.4742 21.2998 11.7741 21.2383L10.8307 21.1562C10.4937 21.123 10.2555 21.0429 10.1129 20.9189C9.97037 20.7949 9.90005 20.6181 9.90005 20.3876C9.90005 20.1298 9.99968 19.9228 10.1989 19.7626C10.3981 19.6035 10.7067 19.5234 11.1227 19.5234C11.442 19.5234 11.7447 19.5615 12.0329 19.6367C12.3219 19.711 12.6559 19.9492 12.6559 19.9492C12.7321 19.9893 12.8249 19.9726 12.8844 19.9121L13.4489 19.3398C13.4928 19.2949 13.5133 19.2334 13.5036 19.1709C13.4938 19.1094 13.4567 19.0566 13.401 19.0273C13.401 19.0273 12.9586 18.6806 12.5377 18.5664C12.2906 18.498 12.0231 18.4541 11.7437 18.4258V17.5771H10.5436V18.4433C10.4078 18.4648 10.2731 18.4902 10.1461 18.5273C9.84043 18.6152 9.57187 18.748 9.34143 18.9258C9.11193 19.1016 8.9303 19.3193 8.79649 19.5761C8.66368 19.833 8.59724 20.126 8.59724 20.4541C8.59724 21.0468 8.76912 21.4902 9.1168 21.7832C9.46155 22.0742 9.95274 22.252 10.5914 22.3145L11.6676 22.4063C11.9957 22.4434 12.2282 22.5264 12.3649 22.6592C12.5036 22.793 12.5709 22.9746 12.5709 23.2041C12.5709 23.5245 12.4322 23.7578 12.1529 23.9102C11.8746 24.0606 11.5211 24.1348 11.0963 24.1348C10.7594 24.1348 10.4215 24.088 10.0797 23.9961C9.73887 23.9024 9.28868 23.5118 9.28868 23.5118C9.21055 23.4649 9.11093 23.4766 9.04549 23.5411L8.44493 24.1416C8.40193 24.1846 8.38049 24.2451 8.3883 24.3057C8.39612 24.3663 8.4313 24.42 8.48399 24.4512C8.48399 24.4512 9.09824 24.9698 9.56799 25.0986C9.87662 25.1826 10.2018 25.2363 10.5436 25.2656V26.25H11.7437V25.2451C11.9039 25.2236 12.0621 25.1973 12.2125 25.1592C12.5582 25.0693 12.8551 24.9346 13.1031 24.752C13.3502 24.5713 13.5465 24.3476 13.6881 24.082C13.8296 23.8164 13.9 23.5068 13.9 23.1504C13.9 22.5576 13.7223 22.1065 13.3619 21.7959Z" fill="#0E1E2B"/>
<path d="M11.1445 11.8281C5.57422 11.8281 1.05859 16.3438 1.05859 21.9141C1.05859 27.4844 5.57422 32 11.1445 32C16.7148 32 21.2305 27.4844 21.2305 21.9141C21.2305 16.3438 16.7148 11.8281 11.1445 11.8281ZM11.1445 30.4238C6.45116 30.4238 2.63478 26.6064 2.63478 21.9141C2.63478 17.2217 6.45122 13.4043 11.1445 13.4043C15.836 13.4043 19.6543 17.2217 19.6543 21.9141C19.6543 26.6064 15.8359 30.4238 11.1445 30.4238Z" fill="#0E1E2B"/>
<path d="M10.2409 15.1876L10.2819 15.1846C10.5651 15.1485 10.8562 15.1299 11.1452 15.1299C11.2234 15.1299 11.3015 15.1309 11.3796 15.1348H11.3914C11.5603 15.1348 11.7 15.0001 11.7058 14.8301C11.7117 14.6563 11.5749 14.5098 11.4011 14.5039H11.3699H11.3659L11.362 14.5029H11.361H11.358H11.357H11.356H11.3512H11.3482C11.3014 14.5019 11.2545 14.5 11.2076 14.5H11.1998H11.1979H11.1959H11.1949H11.19H11.1882H11.1862H11.1843H11.1824H11.1804H11.1775H11.1765H11.1745H11.1726H11.1697H11.1687H11.1647H11.1618H11.1608H11.1569H11.153H11.152H11.149H11.1451H11.1412H11.1372H11.1343H11.1333H11.1304H11.1294H11.1257H11.1237H11.1218H11.1199H11.1179H11.116H11.114H11.1121H11.1102H11.1082H11.1063H11.1044H11.1034H11.1004H11.0965H11.0955H11.0925H11.0896H11.0886H11.0857H11.0847H11.0807H11.0788H11.0769H11.0749H11.073H11.071H11.0691H11.0672H11.0652H11.0632H11.0612H11.0593H11.0583H11.0554H11.0514H11.0504H11.0475H11.0445H11.0435H11.0406H11.0396L11.0367 14.501H11.0357H11.0337H11.0319H11.03H11.028H11.0261H11.0251H11.0222H11.0202H11.0183H11.0173H11.0144H11.0104H11.0065H11.0035H11.0025L10.9996 14.502H10.9986H10.9957H10.9947H10.9917H10.9907H10.9888H10.9869H10.9849H10.9839H10.981H10.977H10.976H10.9731H10.9721H10.9694H10.9665H10.9655H10.9615H10.9586H10.9576H10.9547H10.9537H10.9517H10.9498L10.9479 14.503H10.9459H10.944H10.942H10.9401H10.9391H10.9362H10.9322H10.9283H10.9254L10.9244 14.504H10.9214H10.9204H10.9165H10.9145H10.9126H10.9107H10.9087H10.9069H10.9059H10.903H10.901H10.8991H10.8981H10.8952H10.8922H10.8912H10.8873H10.8863L10.8844 14.505H10.8834H10.8804H10.8794H10.8775H10.8757H10.8737H10.8718H10.8699L10.8679 14.506H10.866H10.865H10.862H10.8581H10.8542H10.8512H10.8502H10.8473H10.8463H10.8424H10.8404H10.8385L10.8365 14.507H10.8346H10.8327H10.8317H10.8287H10.8277H10.8248H10.8238H10.8209H10.8169H10.8132H10.8092L10.8073 14.508H10.8054H10.8034H10.8024H10.7985H10.7975H10.7955H10.7936H10.7917H10.7907H10.7877H10.7838L10.7799 14.509H10.7759H10.773H10.772L10.7652 14.51H10.7642H10.7622H10.7612H10.7583H10.7507H10.7467L10.7428 14.511H10.736H10.735L10.733 14.512H10.7311H10.7292H10.7282H10.7214H10.7204H10.7174H10.7135L10.7057 14.513H10.7027H10.7017L10.6998 14.514H10.6988H10.692H10.691H10.6882H10.6842L10.6764 14.515H10.6725L10.6617 14.516H10.6588H10.6578H10.6549L10.647 14.517H10.6431L10.6294 14.518H10.6284C10.4849 14.5278 10.3423 14.5414 10.2017 14.56C10.0288 14.5815 9.90674 14.7397 9.92824 14.9126C9.94892 15.0714 10.0847 15.1876 10.2409 15.1876Z" fill="#0E1E2B"/>
<path d="M8.36477 15.373C8.31109 15.2597 8.19877 15.1934 8.08059 15.1934C8.03471 15.1934 7.98877 15.2031 7.94484 15.2246C7.8374 15.2764 7.73196 15.3301 7.6284 15.3867L7.60884 15.3965L7.6049 15.3984L7.59902 15.4014V15.4024L7.59509 15.4034L7.58921 15.4073L7.58627 15.4092H7.58527L7.58334 15.4102L7.58234 15.4112L7.5794 15.4122L7.57646 15.4142H7.57546L7.57352 15.4161H7.57252L7.56959 15.418H7.56859L7.56665 15.42H7.56565L7.56396 15.4209L7.56296 15.4219L7.56002 15.4229L7.55902 15.4239L7.55709 15.4249L7.55609 15.4259H7.55415L7.55315 15.4269L7.55121 15.4279L7.54827 15.4298L7.54634 15.4317H7.5444L7.54246 15.4327V15.4337L7.53852 15.4347V15.4357L7.53659 15.4367L7.53465 15.4375H7.53365L7.53265 15.4385L7.52871 15.4414L7.52677 15.4424H7.52484L7.5229 15.4434L7.51702 15.4474H7.51602L7.51309 15.4493L7.50627 15.4532L7.50334 15.4552L7.49359 15.46C7.36665 15.5323 7.24165 15.6075 7.11959 15.6876C6.97409 15.7824 6.93309 15.9767 7.02684 16.1232C7.0874 16.2159 7.18896 16.2667 7.29246 16.2667C7.35109 16.2667 7.40965 16.2501 7.4624 16.2159C7.70459 16.0597 7.95852 15.918 8.21727 15.793C8.37452 15.7177 8.4409 15.5293 8.36477 15.373Z" fill="#0E1E2B"/>
<path d="M8.90473 28.3203C8.63323 28.2246 8.36567 28.1113 8.10885 27.9834C8.06298 27.9609 8.0151 27.9502 7.96723 27.9502C7.85198 27.9502 7.74067 28.0137 7.68598 28.1231C7.60785 28.2793 7.67035 28.4688 7.8266 28.5469C7.92229 28.5957 8.01998 28.6416 8.1196 28.6856L8.12935 28.6895L8.1391 28.6944V28.6954L8.14304 28.6964L8.14598 28.6974L8.14698 28.6984H8.14891L8.14992 28.6994L8.15285 28.7004L8.15679 28.7023L8.15873 28.7033H8.16067L8.1626 28.7053L8.16654 28.7072L8.16948 28.7082H8.17048L8.17242 28.7092L8.17341 28.7102L8.17635 28.7112L8.18029 28.7122V28.7132H8.18223L8.18416 28.7142L8.1861 28.7152H8.1871L8.19004 28.7171H8.19104L8.19298 28.7181L8.19398 28.7191L8.19591 28.7201H8.19785L8.19885 28.7211L8.20179 28.7221L8.20279 28.7231H8.20473L8.20573 28.7241L8.20767 28.7251H8.20867L8.2116 28.7271H8.21354L8.21548 28.7281L8.21648 28.7291H8.21748L8.21942 28.7301L8.22335 28.7311V28.7321H8.22529L8.22723 28.7331H8.22823L8.22923 28.7341L8.2351 28.737H8.23704L8.23898 28.738V28.739L8.24579 28.7419H8.24679L8.24873 28.7429H8.24973L8.25166 28.7439H8.25267L8.2566 28.7459L8.25854 28.7469H8.26048L8.26242 28.7488L8.27023 28.7518L8.27217 28.7528H8.27317L8.27998 28.7557L8.28392 28.7567L8.29073 28.7606H8.29173L8.29367 28.7616L8.30148 28.7646L8.30342 28.7656H8.30442L8.31416 28.7704H8.31517L8.32492 28.7744L8.32685 28.7763H8.32785L8.33467 28.7783H8.33567L8.3376 28.7802H8.3386L8.34642 28.7831L8.34835 28.7841L8.35029 28.7861H8.35129L8.3591 28.789H8.36204L8.36985 28.7929L8.37179 28.7939L8.3796 28.7969L8.38154 28.7979H8.38348L8.39029 28.8008L8.39323 28.8018L8.40104 28.8058H8.40298L8.40398 28.8068L8.40592 28.8078H8.40692L8.41279 28.8107L8.41473 28.8117H8.41666V28.8127L8.42348 28.8146L8.42448 28.8156H8.42642H8.42835L8.43029 28.8176L8.43423 28.8186L8.43523 28.8196H8.43717L8.43817 28.8206L8.4401 28.8216H8.44204L8.44398 28.8226L8.44591 28.8236H8.44785L8.44885 28.8246L8.44985 28.8256H8.45179L8.45473 28.8275H8.45573L8.45767 28.8285H8.4596L8.46154 28.8295H8.46254L8.46354 28.8305L8.46648 28.8315L8.46748 28.8325L8.46942 28.8335H8.47135L8.47329 28.8345H8.47429L8.47723 28.8355H8.47823L8.48117 28.8374L8.4831 28.8384H8.48504L8.48698 28.8394L8.48892 28.8404L8.49085 28.8414H8.49185L8.49379 28.8424L8.49479 28.8434L8.49873 28.8444L8.50067 28.8454H8.5026L8.50454 28.8464H8.50554L8.50848 28.8474L8.51242 28.8494L8.51535 28.8504L8.51635 28.8514L8.51829 28.8524L8.52223 28.8534L8.52616 28.8553L8.5291 28.8563H8.5301L8.53598 28.8583L8.53991 28.8593C8.59266 28.8798 8.64442 28.8983 8.69717 28.9169C8.73135 28.9286 8.76648 28.9354 8.80167 28.9354C8.9306 28.9354 9.0536 28.8534 9.09854 28.7226C9.15573 28.5566 9.06879 28.3769 8.90473 28.3203Z" fill="#0E1E2B"/>
<path d="M5.78565 26.0771C5.72415 25.9971 5.63134 25.9551 5.53759 25.9551C5.46922 25.9551 5.40184 25.9775 5.34422 26.0215C5.20747 26.129 5.18209 26.3262 5.28853 26.4639C5.34615 26.5371 5.40472 26.6094 5.46434 26.6816L5.46922 26.6875L5.47115 26.6895L5.47703 26.6953V26.6963L5.47897 26.6973V26.6993L5.4809 26.7003V26.7013L5.48284 26.7042L5.48478 26.7052V26.7071L5.48672 26.7081V26.7091L5.48865 26.7111L5.49059 26.7121L5.49159 26.7131L5.49259 26.715L5.49359 26.717H5.49459L5.49653 26.7199L5.49853 26.7217L5.49953 26.7227L5.50053 26.7246L5.50247 26.7256L5.5044 26.7286L5.50634 26.7305L5.50828 26.7325L5.50928 26.7335L5.51322 26.7393L5.51422 26.7403L5.51615 26.7413V26.7423L5.52009 26.7482L5.5239 26.75C5.6489 26.8965 5.77978 27.0361 5.91553 27.1719C5.97703 27.2325 6.05715 27.2637 6.13722 27.2637C6.21928 27.2637 6.29934 27.2325 6.36184 27.171C6.4849 27.047 6.48297 26.8477 6.3599 26.7246C6.15672 26.5215 5.9634 26.3037 5.78565 26.0771Z" fill="#0E1E2B"/>
<path d="M4.08568 21.4893C4.24486 21.4893 4.38155 21.3692 4.39818 21.207C4.42749 20.9199 4.4763 20.6338 4.54274 20.3535C4.5818 20.1846 4.4763 20.0157 4.30736 19.9756L4.23411 19.9668C4.09155 19.9668 3.96261 20.0645 3.92843 20.21C3.85711 20.5137 3.80443 20.8252 3.77118 21.1426C3.75361 21.3145 3.87861 21.4707 4.05243 21.4883L4.08568 21.4893Z" fill="#0E1E2B"/>
<path d="M5.86113 17.6582C5.9705 17.5234 5.949 17.3242 5.81325 17.2148C5.75563 17.1679 5.68532 17.1455 5.615 17.1455C5.52319 17.1455 5.43338 17.1856 5.37088 17.2617C5.31913 17.3261 5.26932 17.3906 5.2195 17.456L5.21463 17.4628L5.21269 17.4648L5.20682 17.4736H5.20582L5.199 17.4824L5.19313 17.4912L5.18632 17.5V17.501L5.17363 17.5186C5.08963 17.6309 5.00957 17.7461 4.93338 17.8643H4.93238L4.9265 17.8731V17.8741L4.9255 17.876L4.92157 17.8799V17.8809L4.92057 17.8829L4.91957 17.8848V17.8858L4.91563 17.8898L4.91463 17.8917L4.91363 17.8927V17.8946H4.91169L4.90975 17.8986V17.8996L4.90875 17.9006L4.90775 17.9025L4.90675 17.9035L4.90575 17.9054L4.90475 17.9064L4.90375 17.9094L4.90275 17.9104L4.90175 17.9114L4.90075 17.9124L4.89975 17.9143L4.89875 17.9163L4.89775 17.9182L4.89675 17.9192L4.89575 17.9211L4.89475 17.9221L4.89375 17.9241L4.89275 17.9251L4.89175 17.928H4.89075L4.88975 17.9309L4.88875 17.9319L4.88775 17.9339H4.88675L4.88282 17.9407C4.86232 17.9719 4.84275 18.0032 4.82419 18.0344C4.73338 18.1829 4.77832 18.3772 4.92675 18.4681C4.9785 18.5003 5.03613 18.5149 5.09275 18.5149C5.19825 18.5149 5.30175 18.4622 5.36032 18.3646C5.51157 18.1201 5.6795 17.8828 5.86113 17.6582Z" fill="#0E1E2B"/>
<path d="M4.5141 23.3594C4.48185 23.211 4.35104 23.1113 4.20648 23.1113L4.1391 23.1172C3.96916 23.1543 3.86079 23.3223 3.89791 23.4922C3.96529 23.8028 4.05223 24.1065 4.15766 24.4024C4.20354 24.5303 4.32466 24.6114 4.45454 24.6114C4.48973 24.6114 4.52485 24.6046 4.56004 24.5928C4.7241 24.5342 4.80904 24.3536 4.75148 24.1895C4.65473 23.919 4.57566 23.6396 4.5141 23.3594Z" fill="#0E1E2B"/>
<path d="M14.8937 27.627C14.836 27.627 14.7784 27.6426 14.7257 27.6758C14.4825 27.8271 14.2257 27.9648 13.9659 28.085C13.8077 28.1572 13.7374 28.3447 13.8097 28.503C13.8624 28.6182 13.9777 28.6866 14.0968 28.6866C14.1407 28.6866 14.1847 28.6778 14.2277 28.6583C14.4015 28.5782 14.5724 28.4923 14.7394 28.3995L14.7424 28.3975H14.7434L14.7492 28.3936L14.7522 28.3916H14.7532L14.759 28.3887L14.761 28.3868H14.7629L14.7649 28.3848L14.7688 28.3829L14.7707 28.3819L14.7727 28.3809L14.7746 28.3799V28.3789L14.7785 28.3779V28.3769L14.7805 28.3759L14.7824 28.3749L14.7834 28.3739L14.7844 28.3729L14.7874 28.3719L14.7884 28.3709L14.7903 28.3699H14.7922L14.7932 28.3689L14.7942 28.3679L14.7962 28.3669L14.7991 28.365H14.8001L14.802 28.364V28.363L14.804 28.362H14.805L14.8099 28.359L14.8118 28.358L14.8137 28.357H14.8147L14.8215 28.3521L14.8235 28.3511C14.9035 28.3053 14.9827 28.2574 15.0608 28.2095C15.2082 28.1168 15.2532 27.9234 15.1614 27.775C15.1007 27.6807 14.9981 27.627 14.8937 27.627Z" fill="#0E1E2B"/>
<path d="M17.3007 25.4668C17.248 25.4336 17.1894 25.418 17.1308 25.418C17.0273 25.418 16.9257 25.4688 16.8652 25.5625C16.7108 25.8047 16.539 26.0401 16.3544 26.2598C16.2431 26.3936 16.2607 26.5928 16.3945 26.7041C16.4531 26.7539 16.5253 26.7773 16.5957 26.7773C16.6865 26.7773 16.7753 26.7393 16.8378 26.664C17.0019 26.4697 17.1543 26.2656 17.2968 26.0537L17.2988 26.0507H17.2998L17.3027 26.0448L17.3037 26.0438L17.3057 26.0409L17.3076 26.039L17.3095 26.035H17.3105L17.3115 26.0331L17.3125 26.0312L17.3135 26.0292H17.3144L17.3163 26.0263V26.0253L17.3183 26.0233V26.0223L17.3202 26.0204V26.0194L17.3222 26.0175V26.0165L17.3241 26.0145V26.0135L17.326 26.0116V26.0097L17.328 26.0077L17.329 26.0067L17.33 26.0057V26.0038L17.3319 26.0028L17.3358 25.996L17.3368 25.994H17.3378L17.3418 25.9872V25.9862L17.3437 25.9843L17.3496 25.9755V25.9745L17.3965 25.9022C17.4902 25.7558 17.4472 25.5605 17.3007 25.4668Z" fill="#0E1E2B"/>
<path d="M18.1066 20.8379L18.1681 20.832C18.339 20.7978 18.4493 20.6327 18.4161 20.4609L18.4083 20.4228V20.4218V20.4199H18.4073L18.4063 20.412V20.411L18.4053 20.4091V20.4081L18.4043 20.4003L18.4033 20.3993L18.4023 20.3974V20.3964V20.3944V20.3934L18.4013 20.3885L18.4003 20.3866V20.3856V20.3837L18.3993 20.3817V20.3807L18.3983 20.3778V20.3759V20.375V20.373L18.3973 20.3711L18.3963 20.3692V20.3672V20.3653L18.3953 20.3634V20.3614L18.3943 20.3595V20.3585V20.3565V20.3555L18.3924 20.3526V20.3516V20.3487V20.3477V20.3457L18.3914 20.3438L18.3904 20.3409V20.3379V20.3369L18.3894 20.334L18.3884 20.333V20.33L18.3874 20.3261L18.3864 20.3232V20.3222V20.3192L18.3849 20.3125V20.3115L18.3839 20.3085V20.3075L18.381 20.2968V20.2939L18.379 20.286L18.378 20.2831L18.3751 20.2724V20.2714L18.3732 20.2577H18.3722C18.3361 20.0956 18.2931 19.9355 18.2462 19.7792L18.2423 19.7646L18.2355 19.7441V19.7431L18.2315 19.7304H18.2305L18.2286 19.7197V19.7187L18.2266 19.7158L18.2237 19.705L18.2208 19.6953V19.6943L18.2188 19.6914L18.2169 19.6845V19.6835L18.2159 19.6806L18.2149 19.6796L18.2139 19.6737H18.2129V19.6698L18.211 19.6669V19.6659V19.6629L18.209 19.66V19.659L18.208 19.656V19.655L18.207 19.6521L18.2051 19.6492V19.6482V19.6462V19.6443L18.2031 19.6424V19.6414L18.2021 19.6384L18.2011 19.6355V19.6345V19.6315L18.1992 19.6305V19.6286V19.6276L18.1974 19.625V19.624V19.621L18.1964 19.62L18.1954 19.6181V19.6171V19.6142L18.1935 19.6132V19.6112V19.6093L18.1925 19.6074L18.1915 19.6064V19.6054L18.1905 19.6024L18.1895 19.6005V19.5995V19.5975L18.1885 19.5956L18.1876 19.5947V19.5928V19.5909L18.1857 19.5879V19.5869V19.585L18.1847 19.584L18.1837 19.582V19.581L18.1827 19.5781L18.1817 19.5762V19.5742V19.5732L18.1807 19.5722L18.1797 19.5703L18.1778 19.5635V19.5625L18.1768 19.5605H18.1758V19.5586V19.5567L18.1738 19.5527V19.5517V19.5498L18.1719 19.5479C18.128 19.416 18.0059 19.334 17.874 19.334C17.8408 19.334 17.8066 19.3379 17.7735 19.3496C17.6084 19.4053 17.5195 19.584 17.5752 19.749C17.666 20.0215 17.7422 20.3027 17.7969 20.584C17.8283 20.7344 17.9591 20.8379 18.1066 20.8379Z" fill="#0E1E2B"/>
<path d="M11.9269 28.6553L11.8917 28.6572C11.6456 28.6846 11.3946 28.6982 11.1456 28.6982C11.1065 28.6982 11.0665 28.6972 11.0274 28.6972H11.0225C10.8506 28.6972 10.71 28.834 10.7071 29.0058C10.7041 29.1806 10.8418 29.3232 11.0157 29.3271C11.0489 29.3281 11.0811 29.3281 11.1143 29.3281H11.1153H11.1183H11.1241H11.1261H11.128H11.13H11.1319H11.1338H11.1368H11.1378H11.1407H11.1417H11.1456H11.1486H11.1496H11.1515H11.1525H11.1545H11.1555H11.1574H11.1593H11.1613H11.1623H11.1642H11.1652H11.1671H11.1691H11.1701H11.1711H11.173H11.175H11.1769H11.1779H11.1798H11.1808H11.1828H11.1847H11.1906H11.1935H11.1945H11.1965H11.1984H11.2003H11.2023H11.2042H11.2061H11.2081H11.2091H11.2101H11.212H11.214H11.2159H11.2178H11.2198H11.2217H11.2227H11.2256H11.2325H11.2335H11.2354H11.2364H11.2383H11.2393H11.2413H11.2432H11.2451H11.2471H11.249H11.2511H11.2521H11.255L11.257 29.3271H11.2589H11.2608H11.2618H11.2648H11.2745H11.2775H11.2804H11.2814H11.2833H11.2843H11.2863H11.2882H11.2901L11.2931 29.3261H11.2941H11.296H11.297H11.3H11.3019H11.3038H11.3058H11.3068H11.3195H11.3224H11.3253H11.3293H11.3312H11.3331H11.3351H11.339H11.341H11.3449L11.3703 29.3242H11.3742H11.3771C11.5735 29.3183 11.7688 29.3046 11.9611 29.2841C12.134 29.2646 12.259 29.1093 12.2395 28.9355C12.2218 28.7754 12.0851 28.6553 11.9269 28.6553Z" fill="#0E1E2B"/>
<path d="M18.2289 22.4629L18.1918 22.4609C18.0336 22.4609 17.8979 22.5781 17.8793 22.7383C17.8441 23.0235 17.7914 23.3096 17.7211 23.5879C17.6772 23.7569 17.7797 23.9278 17.9477 23.9708L18.0258 23.9805C18.1664 23.9805 18.2944 23.8858 18.3305 23.7442C18.3471 23.6798 18.3617 23.6162 18.3774 23.5527V23.5518V23.5488L18.3793 23.541V23.5381L18.3803 23.5371L18.3813 23.5351V23.5341V23.5302L18.3823 23.5292L18.3833 23.5273V23.5253V23.5243V23.5224V23.5204L18.3843 23.5185L18.3853 23.5166V23.5146V23.5136V23.5117L18.3863 23.5098L18.3873 23.5078V23.5068V23.5039V23.5029L18.3892 23.4999V23.4989V23.497V23.496L18.3912 23.4892V23.4882V23.4853L18.3931 23.4823L18.3941 23.4745L18.3951 23.4716V23.4706L18.3971 23.4608C18.442 23.2479 18.4781 23.0321 18.5045 22.8134C18.5258 22.6406 18.4028 22.4844 18.2289 22.4629Z" fill="#0E1E2B"/>
<path d="M13.4905 15.548C13.7601 15.6476 14.0257 15.7648 14.2815 15.8986C14.3274 15.922 14.3772 15.9338 14.4261 15.9338C14.5394 15.9338 14.6497 15.8732 14.7064 15.7648C14.7874 15.6115 14.7269 15.4201 14.5725 15.34C14.3811 15.2404 14.1858 15.1486 13.9847 15.0646L13.9749 15.0607L13.972 15.0588H13.971L13.9651 15.0568L13.9612 15.0549L13.9544 15.052L13.9514 15.051L13.9417 15.047H13.9407L13.9309 15.0421H13.9299L13.927 15.0411L13.9202 15.0382L13.9162 15.0372L13.9104 15.0343V15.0333L13.9064 15.0323L13.8996 15.0293H13.8986L13.8967 15.0283V15.0273L13.8859 15.0244L13.8752 15.0195C13.8205 14.998 13.7648 14.9765 13.7092 14.957C13.673 14.9433 13.6369 14.9365 13.5998 14.9365C13.4719 14.9365 13.3517 15.0156 13.3049 15.1426C13.2445 15.3068 13.3275 15.4875 13.4905 15.548Z" fill="#0E1E2B"/>
<path d="M16.8258 17.9698C16.8922 17.9698 16.9576 17.9493 17.0152 17.9063C17.1539 17.8028 17.1812 17.6046 17.0777 17.4649C16.9713 17.3243 16.8609 17.1875 16.7457 17.0547H16.7447L16.7398 17.0488L16.7379 17.0469V17.0459L16.733 17.041L16.732 17.04L16.73 17.0381L16.7281 17.0352L16.7262 17.0322V17.0313L16.7242 17.0294H16.7232L16.7203 17.0275L16.7184 17.0245V17.0235L16.7164 17.0216V17.0206L16.7145 17.0187L16.7125 17.0177L16.7115 17.0157H16.7105L16.7086 17.0138V17.0128L16.7067 17.0108V17.0098L16.7047 17.0079L16.7028 17.0069L16.7018 17.005L16.7008 17.004L16.6998 17.003L16.6988 17.002L16.6969 16.999L16.6949 16.998V16.9961L16.693 16.9951V16.9941L16.691 16.9931L16.689 16.9913L16.688 16.9903L16.687 16.9883L16.686 16.9873L16.685 16.9863L16.6811 16.9815L16.6792 16.9805L16.6782 16.9785H16.6772L16.6732 16.9727L16.6722 16.9717L16.6712 16.9707H16.6702L16.6654 16.9648V16.9638L16.6634 16.9618V16.9608L16.6575 16.956L16.6556 16.954V16.953L16.6497 16.9482V16.9472L16.6478 16.9452L16.6412 16.9376H16.6402L16.6343 16.9298L16.6333 16.9288L16.6187 16.9132V16.9122C16.5679 16.8575 16.5152 16.8018 16.4624 16.7471C16.4009 16.6836 16.3189 16.6523 16.2369 16.6523C16.1577 16.6523 16.0787 16.6817 16.0171 16.7412C15.8921 16.8623 15.8902 17.0615 16.0112 17.1865C16.2105 17.3926 16.3999 17.6143 16.5737 17.8438C16.6344 17.9259 16.73 17.9698 16.8258 17.9698Z" fill="#0E1E2B"/>
<path d="M14.4225 8.13867C14.28 8.13867 14.1501 8.23636 14.1159 8.38186C14.0446 8.68555 13.9919 8.99711 13.9587 9.31448C13.9411 9.48736 14.067 9.64261 14.2399 9.66017L14.2731 9.66117C14.4323 9.66117 14.57 9.54105 14.5856 9.37892C14.6149 9.0918 14.6637 8.80567 14.7302 8.52636C14.7692 8.35642 14.6647 8.18748 14.4958 8.14742L14.4225 8.13867Z" fill="#0E1E2B"/>
<path d="M15.5574 5.43326C15.5066 5.4977 15.4558 5.5622 15.407 5.62757L15.4011 5.63439L15.3992 5.63632L15.3933 5.64514L15.3865 5.65395L15.3797 5.6637L15.3737 5.67151V5.67251L15.3601 5.69007C15.2761 5.80239 15.196 5.91764 15.1198 6.03576L15.1139 6.04457V6.04557L15.112 6.04751L15.1091 6.05145V6.05245L15.1081 6.05439L15.1061 6.05632V6.05732L15.1022 6.06126V6.0632L15.1012 6.0642L15.1002 6.06614H15.0992L15.0972 6.07007L15.0962 6.07107V6.07207L15.0943 6.07401V6.07501L15.0924 6.07695V6.07795L15.0904 6.08089V6.08189L15.0885 6.08289V6.08389L15.0866 6.08582V6.08776L15.0846 6.0897V6.0907L15.0827 6.09364L15.0807 6.09557V6.09657L15.0788 6.09951L15.0769 6.10245V6.10345L15.0749 6.10539V6.10639L15.071 6.11226C15.0505 6.14351 15.03 6.17476 15.0114 6.20701C14.9206 6.35445 14.9665 6.54882 15.1149 6.63964C15.1667 6.67189 15.2233 6.68651 15.28 6.68651C15.3855 6.68651 15.489 6.63376 15.5486 6.53614C15.6989 6.29201 15.8669 6.0547 16.0476 5.83007C16.1569 5.69532 16.1354 5.49607 16.0007 5.3867C15.9421 5.33982 15.8717 5.31739 15.8024 5.31739C15.7107 5.31701 15.6199 5.35707 15.5574 5.43326Z" fill="#0E1E2B"/>
<path d="M23.9972 16.6753C24.0509 16.7905 24.1652 16.8589 24.2843 16.8589C24.3292 16.8589 24.3732 16.8501 24.4152 16.8306C24.59 16.7505 24.7609 16.6646 24.9269 16.5718L24.9309 16.5698L24.9367 16.5659L24.9407 16.5649L24.9465 16.561L24.9495 16.559H24.9505L24.9524 16.5571L24.9564 16.5551L24.9583 16.5541L24.9602 16.5531L24.9622 16.5521L24.9632 16.5511L24.9661 16.5501V16.5491L24.968 16.5481L24.97 16.5471L24.9719 16.5461V16.5451L24.9759 16.5441V16.5431L24.9778 16.5421H24.9797L24.9807 16.5411L24.9817 16.5401L24.9837 16.5391L24.9866 16.5372H24.9876L24.9895 16.5362H24.9905L24.9925 16.5343H24.9935L24.9974 16.5313L24.9994 16.5303L25.0023 16.5293L25.0091 16.5245L25.012 16.5235C25.0912 16.4776 25.1712 16.4297 25.2494 16.3818C25.3959 16.2891 25.4408 16.0957 25.349 15.9473C25.2884 15.8525 25.1869 15.7988 25.0814 15.7988C25.0248 15.7988 24.9662 15.8145 24.9144 15.8476C24.6703 15.999 24.4144 16.1367 24.1537 16.2568C23.9952 16.3296 23.9249 16.5171 23.9972 16.6753Z" fill="#0E1E2B"/>
<path d="M26.5424 14.4317C26.4301 14.5655 26.4487 14.7647 26.5815 14.876C26.6401 14.9258 26.7123 14.9492 26.7836 14.9492C26.8744 14.9492 26.9633 14.9112 27.0248 14.8359C27.1888 14.6416 27.3412 14.4375 27.4838 14.2255H27.4848L27.4867 14.2226L27.4907 14.2167L27.4917 14.2157L27.4927 14.2138H27.4937L27.4956 14.2108L27.4975 14.2069L27.4985 14.205L27.4995 14.203L27.5015 14.202V14.201L27.5034 14.1981V14.1971L27.5053 14.1952V14.1942L27.5073 14.1922V14.1912L27.5092 14.1893V14.1883L27.5112 14.1863V14.1853L27.5131 14.1834V14.1815L27.515 14.1795L27.516 14.1785L27.517 14.1775L27.518 14.1756L27.519 14.1746L27.523 14.1678L27.5249 14.1658L27.5288 14.159V14.158L27.5308 14.157V14.1563L27.5367 14.1475V14.1465L27.5845 14.0742C27.6773 13.9277 27.6353 13.7324 27.4878 13.6387C27.4361 13.6055 27.3765 13.5898 27.3189 13.5898C27.2144 13.5898 27.1128 13.6407 27.0523 13.7344C26.8979 13.9766 26.726 14.212 26.5424 14.4317Z" fill="#0E1E2B"/>
<path d="M28.3613 7.72167L28.3603 7.71973C28.3164 7.58792 28.1933 7.50586 28.0615 7.50586C28.0283 7.50586 27.9941 7.5098 27.961 7.52148C27.7959 7.57717 27.707 7.75586 27.7627 7.92092C27.8545 8.19336 27.9297 8.47461 27.9854 8.75586C28.0156 8.90623 28.1465 9.0098 28.294 9.0098L28.3555 9.00392C28.5264 8.96973 28.6368 8.80467 28.6036 8.6328L28.5958 8.59473V8.59373V8.5918L28.5938 8.58398V8.58298V8.58105V8.58005L28.5919 8.57223V8.57123L28.5909 8.57023L28.5899 8.5683V8.56636V8.56536L28.5889 8.56048L28.5879 8.55855V8.55755V8.55561V8.55367V8.55267L28.5869 8.54973L28.5859 8.5478V8.5468V8.54486V8.54292L28.584 8.54098V8.53905V8.53711V8.53517L28.583 8.53323V8.53123L28.582 8.53023V8.5283V8.5273L28.581 8.52436V8.52336L28.58 8.52042V8.51942V8.51748V8.51555L28.578 8.51361V8.51261V8.50967V8.50867L28.577 8.50573V8.50473L28.576 8.5018V8.49786L28.5741 8.49492V8.49392V8.49098L28.5721 8.48417V8.48317V8.48023L28.5711 8.47923L28.5692 8.46948L28.5682 8.46848V8.46555L28.5663 8.45773V8.4548L28.5633 8.44405V8.44305L28.5604 8.42936C28.5233 8.26723 28.4813 8.10711 28.4335 7.95086L28.4295 7.93623L28.4236 7.91573V7.91473L28.4188 7.90205L28.4158 7.8913V7.8903L28.4139 7.88736L28.412 7.87661L28.408 7.86686V7.86586L28.407 7.86292H28.4063L28.4043 7.85611V7.85511V7.85217L28.4033 7.85117L28.4014 7.8453L28.4004 7.84136L28.3994 7.83842L28.3984 7.83742V7.83448L28.3965 7.83155V7.83055V7.82761L28.3955 7.82661L28.3945 7.82467V7.82367L28.3935 7.82073V7.81973L28.3925 7.8178V7.81586L28.3915 7.81392L28.3905 7.81292V7.80998L28.3885 7.80705V7.80605V7.80311L28.3875 7.80211L28.3865 7.80017V7.79917L28.3855 7.79623V7.79523L28.3845 7.7923V7.7913L28.3835 7.78936L28.3825 7.78836V7.78542L28.3815 7.78442L28.3805 7.78248V7.78123V7.7793L28.3795 7.7783L28.3785 7.7773V7.77436L28.3775 7.77242L28.3765 7.77142V7.76948V7.76755L28.3755 7.76655L28.375 7.76461V7.76267L28.374 7.75973L28.373 7.75873V7.7568V7.7558L28.3711 7.75386V7.75286V7.74998L28.3691 7.74805V7.74611V7.74511L28.3681 7.74411V7.74217L28.3652 7.73536V7.73436V7.73242H28.3642L28.3632 7.73048V7.72855L28.3613 7.72461V7.72361V7.72167H28.3613Z" fill="#0E1E2B"/>
<path d="M21.204 17.4991C21.2372 17.5001 21.2695 17.5001 21.3026 17.5001H21.3036H21.3056H21.3066H21.3115H21.3134H21.3153H21.3173H21.3192H21.3211H21.3241H21.3251H21.329H21.333H21.3359H21.3369H21.3388H21.3408H21.3427H21.3456H21.3466H21.3486H21.3505H21.3515H21.3525H21.3545H21.3564H21.3583H21.3593H21.3603H21.3623H21.3642H21.3661H21.3681H21.37H21.372H21.3778H21.3788H21.3818H21.3837H21.3856H21.3876H21.3886H21.3905H21.3915H21.3935H21.3954H21.3973H21.3983H21.3993H21.4013H21.4032H21.4042H21.4061H21.4071H21.4091H21.411H21.413H21.4198H21.4208H21.4227H21.4246H21.4266H21.4285H21.4305H21.4324H21.4334H21.4353H21.4363H21.4384H21.4403H21.4423H21.4433L21.4443 17.4991H21.4462H21.4481H21.4491H21.4521H21.4618H21.4648H21.4658H21.4677H21.4696H21.4716H21.4745H21.4755H21.4775L21.4814 17.4981H21.4833H21.4853H21.4872H21.4882H21.4901H21.4911H21.4931H21.4941H21.5068H21.5097H21.5107H21.5126H21.5136H21.5166H21.5195H21.5205H21.5225H21.5264H21.5283H21.5293H21.5323L21.5576 17.4961H21.5616H21.5655C21.7608 17.4903 21.9561 17.4766 22.1495 17.4561C22.3214 17.4365 22.4464 17.2813 22.4278 17.1084C22.4103 16.9473 22.2735 16.8271 22.1143 16.8271L22.0801 16.8291C21.834 16.8565 21.5831 16.8701 21.3331 16.8701C21.294 16.8701 21.255 16.8691 21.2159 16.8691H21.21C21.0381 16.8691 20.8975 17.0068 20.8946 17.1777C20.8915 17.3526 21.0302 17.4952 21.204 17.4991Z" fill="#0E1E2B"/>
<path d="M28.379 10.6328C28.2217 10.6328 28.086 10.75 28.0665 10.9102C28.0313 11.1954 27.9786 11.4815 27.9083 11.7598C27.8653 11.9287 27.9669 12.0997 28.1359 12.1426L28.213 12.1524C28.3536 12.1524 28.4825 12.0576 28.5187 11.9161C28.5353 11.8516 28.5499 11.7881 28.5645 11.7246V11.7236V11.7207L28.5665 11.7129L28.5675 11.7099L28.5685 11.7089V11.707V11.706L28.5695 11.7021L28.5705 11.7011V11.6991V11.6972V11.6962V11.6943L28.5715 11.6923L28.5725 11.6904V11.6884V11.6865V11.6855L28.5735 11.6836L28.5745 11.6816V11.6797L28.5755 11.6757V11.6748L28.5765 11.6718V11.6708V11.6689V11.6679L28.5784 11.6611V11.6571H28.5794L28.5804 11.6542L28.5824 11.6464V11.6434V11.6424L28.5843 11.6327C28.6292 11.4198 28.6664 11.204 28.6917 10.9853C28.7132 10.8124 28.5902 10.6561 28.4173 10.6347L28.379 10.6328Z" fill="#0E1E2B"/>
<path d="M26.8062 5.08503V5.08403C26.7554 5.02934 26.7027 4.97366 26.6499 4.91897C26.5884 4.85547 26.5074 4.82422 26.4244 4.82422C26.3452 4.82422 26.2662 4.85353 26.2046 4.91309C26.0796 5.03422 26.0777 5.23441 26.1987 5.35841C26.3989 5.56447 26.5884 5.78616 26.7612 6.01566C26.8227 6.09772 26.9175 6.14166 27.0132 6.14166C27.0796 6.14166 27.146 6.12116 27.2026 6.07816C27.3413 5.97466 27.3696 5.77734 27.2651 5.63672C27.1596 5.49609 27.0483 5.35934 26.933 5.22653L26.9282 5.22066H26.9272L26.9252 5.21872V5.21772L26.9213 5.21284L26.9203 5.21184L26.9184 5.20991H26.9174L26.9154 5.20697L26.9135 5.20403V5.20322L26.9115 5.20128H26.9105L26.9086 5.19934H26.9077L26.9058 5.19641V5.19541L26.9039 5.19347V5.19247L26.9019 5.19053H26.9009L26.8989 5.18759H26.8979L26.896 5.18566V5.18466L26.894 5.18272V5.18172L26.8921 5.17978L26.8902 5.17878V5.17778L26.8882 5.17584L26.8872 5.17484L26.8862 5.17384L26.8843 5.17091L26.8833 5.16991L26.8823 5.16797L26.8813 5.16697L26.8803 5.16597L26.8784 5.16497L26.8765 5.16316V5.16216L26.8745 5.16116V5.15922L26.8726 5.15822L26.8687 5.15334L26.8677 5.15234L26.8667 5.15041H26.8647L26.8608 5.14453V5.14353L26.8589 5.14253L26.853 5.13666V5.13566L26.851 5.13372L26.8452 5.12784L26.8432 5.12591V5.12509L26.8374 5.12022V5.11922L26.8364 5.11728H26.8354L26.8295 5.10947H26.8285L26.8217 5.10166V5.10066L26.8062 5.08503Z" fill="#0E1E2B"/>
<path d="M3.96094 7.72756C4.78712 6.50588 5.82031 5.4385 7.00394 4.5645L7.73831 6.12406L11.9287 1.73538L5.541 1.45312L6.32031 3.10938C4.88475 4.12306 3.64062 5.38869 2.65625 6.84569C1.09769 9.15038 0.1875 11.9336 0.1875 14.9238H1.76369C1.76369 12.2549 2.57425 9.78319 3.96094 7.72756Z" fill="#0E1E2B"/>
<path d="M30.2364 17.8643C30.2364 20.4531 29.4746 22.8564 28.1621 24.875C27.3144 26.1778 26.2324 27.3144 24.9824 28.2344L24.3936 26.9824L20.2031 31.3711L26.5918 31.6534L25.6641 29.6807C27.1729 28.6192 28.4746 27.2833 29.4824 25.7344C30.9551 23.4707 31.8126 20.7637 31.8126 17.8643H30.2364Z" fill="#0E1E2B"/>
<path d="M11.25 10.2549C11.7861 10.2597 12.3125 10.3007 12.83 10.375C12.8261 10.2793 12.8222 10.1836 12.8222 10.0859C12.8222 5.39356 16.6396 1.57619 21.332 1.57619C26.0243 1.57619 29.8417 5.39356 29.8417 10.0859C29.8417 14.4492 26.5409 18.0527 22.3065 18.5381C22.4579 19.04 22.578 19.5547 22.661 20.082C27.6034 19.4306 31.4178 15.2051 31.4178 10.0859C31.418 4.51562 26.9023 0 21.332 0C15.7617 0 11.2461 4.51562 11.2461 10.0859C11.2461 10.1426 11.25 10.1982 11.25 10.2549Z" fill="#0E1E2B"/>
<path d="M21.9014 6.70312H19.8691C19.5449 6.70312 19.2812 6.96581 19.2812 7.29006V13.2813C19.2812 13.6055 19.5449 13.8682 19.8691 13.8682H20.1641C20.4883 13.8682 20.7519 13.6055 20.7519 13.2813V11.5948H21.9014C23.4404 11.5948 24.6934 10.4971 24.6934 9.14844C24.6934 7.80081 23.4404 6.70312 21.9014 6.70312ZM21.9014 10.3066H20.7519V7.99019H21.9014C22.6309 7.99019 23.2227 8.50975 23.2227 9.14837C23.2226 9.78806 22.6309 10.3066 21.9014 10.3066Z" fill="#0E1E2B"/>
</g>
<defs>
<clipPath id="clip0_1196_15856">
<rect width="32" height="32" fill="white"/>
</clipPath>
</defs>
</svg>
