<svg width="19" height="18" viewBox="0 0 19 18" fill="none" xmlns="http://www.w3.org/2000/svg">
<path d="M18.2835 17.5819C18.2834 17.5818 18.2833 17.5817 18.2832 17.5816L18.2835 17.5819ZM18.2835 17.5819L18.2847 17.5831L18.3173 17.5504L18.3187 17.549L18.3197 17.548L18.638 17.2293M18.2835 17.5819L18.3173 17.5483L18.3176 17.548L18.638 17.2293M18.638 17.2293L13.8601 12.4567L0.769533 7.49204C0.768826 8.93409 1.18503 10.3456 1.96806 11.5568C2.75109 12.768 3.86759 13.7272 5.18321 14.319C6.49884 14.9109 7.95753 15.1101 9.38378 14.8928C10.81 14.6755 12.1431 14.0508 13.2225 13.094L17.9966 17.8667C18.0812 17.9517 18.1961 17.9996 18.316 18C18.4359 18.0004 18.5511 17.9531 18.6361 17.8685C18.7212 17.784 18.7692 17.6692 18.7695 17.5493C18.7699 17.4294 18.7226 17.3143 18.638 17.2293Z" fill="black" stroke="#165AB6"/>
</svg>
