<svg width="34" height="36" viewBox="0 0 34 36" fill="none" xmlns="http://www.w3.org/2000/svg">
<path d="M25.7246 14.879C24.7677 16.3178 23.3731 17.4002 21.7309 17.4002C20.0891 17.4002 18.6936 16.3185 17.7361 14.8796C16.7633 13.4177 16.127 11.438 16.0163 9.25068L25.7246 14.879ZM25.7246 14.879C26.6967 13.4172 27.3329 11.4378 27.4455 9.25161L25.7246 14.879ZM27.4455 9.25149C27.5614 7.00388 27.0566 4.98126 26.0638 3.48849C25.064 1.98515 23.5438 1 21.7309 1C19.9275 1 18.4052 1.95666 17.4 3.45672C16.4037 4.94346 15.9007 6.96845 16.0163 9.2506L27.4455 9.25149Z" stroke="#0E1E2B" stroke-width="2" stroke-linecap="round" stroke-linejoin="round"/>
<path d="M21.7108 21.7998C16.5402 21.7998 11.6715 25.4139 10.47 32.1655L10.4699 32.1657C10.3629 32.7664 10.4344 33.3992 10.689 33.9214C10.9402 34.4368 11.47 34.9999 12.2919 34.9999H31.1303C31.953 34.9999 32.4821 34.4359 32.7328 33.9208C32.9867 33.3991 33.0579 32.7674 32.9528 32.1684C31.7507 25.3052 26.8741 21.7998 21.7108 21.7998Z" stroke="#0E1E2B" stroke-width="2" stroke-miterlimit="10"/>
<path d="M3.435 11.0447L3.435 11.0448C3.52501 12.8242 4.048 14.454 4.85063 15.6674C5.63545 16.8539 6.80828 17.8003 8.22071 17.8003C9.63352 17.8003 10.8056 16.8532 11.5899 15.6667C12.3919 14.4534 12.9148 12.8241 13.0064 11.0457C13.1007 9.21411 12.6844 7.54441 11.8601 6.30084C11.0303 5.04904 9.75477 4.2002 8.22071 4.2002C6.69601 4.2002 5.41841 5.02422 4.58326 6.2747C3.75549 7.51414 3.34107 9.18613 3.435 11.0447Z" stroke="#0E1E2B" stroke-width="2" stroke-linecap="round" stroke-linejoin="round"/>
<mask id="path-4-outside-1_1196_15715" maskUnits="userSpaceOnUse" x="0" y="19.8555" width="17" height="13" fill="black">
<rect fill="white" y="19.8555" width="17" height="13"/>
<path d="M14.4334 23.0005C13.1437 22.1735 11.7232 21.8555 10.2177 21.8555C6.50221 21.8555 2.92244 24.4405 2.02571 29.4756C1.90781 30.1416 2.20648 30.8006 2.69522 30.8006H10.7179"/>
</mask>
<path d="M13.3539 24.6841C14.2837 25.2803 15.5208 25.0099 16.117 24.0801C16.7133 23.1502 16.4428 21.9131 15.513 21.3169L13.3539 24.6841ZM2.02571 29.4756L0.0566896 29.1249L0.0563257 29.1269L2.02571 29.4756ZM10.7179 32.8006C11.8225 32.8006 12.7179 31.9051 12.7179 30.8006C12.7179 29.696 11.8225 28.8006 10.7179 28.8006V32.8006ZM15.513 21.3169C13.8322 20.2391 12.0149 19.8555 10.2177 19.8555V23.8555C11.4316 23.8555 12.4552 24.1079 13.3539 24.6841L15.513 21.3169ZM10.2177 19.8555C5.47453 19.8555 1.11293 23.1942 0.0566907 29.1249L3.99472 29.8262C4.73195 25.6868 7.52989 23.8555 10.2177 23.8555V19.8555ZM0.0563257 29.1269C-0.0676179 29.8271 0.00823152 30.5941 0.33557 31.2649C0.655907 31.9214 1.41886 32.8006 2.69522 32.8006V28.8006C3.48284 28.8006 3.85209 29.3503 3.93038 29.5107C4.01567 29.6855 4.00114 29.79 3.99509 29.8242L0.0563257 29.1269ZM2.69522 32.8006H10.7179V28.8006H2.69522V32.8006Z" fill="#0E1E2B" mask="url(#path-4-outside-1_1196_15715)"/>
</svg>
