<svg width="34" height="34" viewBox="0 0 34 34" fill="none" xmlns="http://www.w3.org/2000/svg">
<path d="M19.4472 11.163C18.5314 11.8159 17.4106 12.2 16.2 12.2C13.1072 12.2 10.6 9.6928 10.6 6.6C10.6 3.5072 13.1072 1 16.2 1C18.2048 1 19.9635 2.05347 20.9528 3.63702M7.40001 29.9395H11.5765C12.121 29.9395 12.6622 30.0043 13.1901 30.1338L17.6031 31.2062C18.5605 31.4395 19.5581 31.4621 20.5256 31.2742L25.4048 30.325C26.6936 30.0739 27.8794 29.4566 28.8085 28.5528L32.2607 25.1947C33.2464 24.2374 33.2464 22.6838 32.2607 21.725C31.3732 20.8614 29.9676 20.7643 28.9634 21.4965L24.9402 24.4318C24.364 24.853 23.6629 25.0797 22.9419 25.0797H19.0568H21.5298C22.9235 25.0797 24.0527 23.9813 24.0527 22.6254V22.1346C24.0527 21.0088 23.265 20.0272 22.1426 19.755L18.3258 18.8267C17.7047 18.6762 17.0685 18.6 16.429 18.6C14.8853 18.6 12.091 19.8781 12.091 19.8781L7.40001 21.8398M29.8 8.2C29.8 11.2928 27.2928 13.8 24.2 13.8C21.1072 13.8 18.6 11.2928 18.6 8.2C18.6 5.1072 21.1072 2.6 24.2 2.6C27.2928 2.6 29.8 5.1072 29.8 8.2ZM1 21.16V30.44C1 31.3362 1 31.7842 1.17438 32.1264C1.32779 32.4275 1.57256 32.6722 1.87362 32.8256C2.21587 33 2.66392 33 3.56 33H4.84C5.73609 33 6.18413 33 6.52639 32.8256C6.82745 32.6722 7.07222 32.4275 7.22562 32.1264C7.40001 31.7842 7.40001 31.3362 7.40001 30.44V21.16C7.40001 20.2638 7.40001 19.8158 7.22562 19.4736C7.07222 19.1725 6.82745 18.9278 6.52639 18.7744C6.18413 18.6 5.73609 18.6 4.84 18.6H3.56C2.66392 18.6 2.21587 18.6 1.87362 18.7744C1.57256 18.9278 1.32779 19.1725 1.17438 19.4736C1 19.8158 1 20.2638 1 21.16Z" stroke="#0E1E2B" stroke-width="2" stroke-linecap="round" stroke-linejoin="round"/>
</svg>
