<svg width="32" height="32" viewBox="0 0 32 32" fill="none" xmlns="http://www.w3.org/2000/svg">
<path d="M18.4901 12.8932C20.6569 12.194 23.1309 12.507 24.95 13.7057C25.1117 13.8123 25.1844 13.9788 25.1602 14.1386C24.8044 16.0366 23.2441 17.6416 21.0773 18.3409C20.3092 18.5873 19.5088 18.7072 18.7084 18.7072C17.6089 18.7072 16.5174 18.4807 15.5392 18.0345V21.5242L19.8969 20.8649C20.0505 20.845 20.2041 20.8716 20.3335 20.9449L25.4593 24.0283V23.2758C25.4593 23.016 25.71 22.8096 26.0253 22.8096H31.4341C31.7494 22.8096 32 23.016 32 23.2758V31.5338C32 31.7936 31.7494 32 31.4341 32H26.0253C25.71 32 25.4593 31.7936 25.4593 31.5338V30.2485L7.93128 30.9344C7.92319 30.9344 7.91511 30.9344 7.90702 30.9344C7.72915 30.9344 7.56746 30.8678 7.46235 30.7546L0.404243 23.2624C0.145527 22.9827 0 22.6497 0 22.2968C0 21.7307 0.371904 21.2046 0.970186 20.9249C1.64932 20.6119 2.47397 20.6585 3.08843 21.0514C3.16119 21.098 3.23396 21.1513 3.30672 21.2112L8.77211 25.9729L13.8575 24.8341L9.62911 24.2614C9.38656 24.2281 9.20061 24.0749 9.16018 23.8751L8.9904 22.9694C8.94189 22.723 9.14401 22.4832 9.45124 22.4366L14.4234 21.6841V18.0212C13.4452 18.4608 12.3537 18.6939 11.2542 18.6939C10.4538 18.6939 9.64528 18.574 8.8853 18.3276C6.71854 17.6283 5.15816 16.0233 4.80243 14.1253C4.77009 13.9588 4.85093 13.7923 5.01263 13.6924C6.83173 12.4937 9.30571 12.1873 11.4725 12.8799C12.6771 13.2662 13.7039 13.9455 14.4315 14.7913V10.9952C11.0035 10.7555 8.30318 8.3846 8.30318 5.5076C8.30318 4.70177 8.50531 3.92258 8.91763 3.20333C9.03082 3.00354 9.1521 2.81707 9.28145 2.64391C9.28954 2.63059 9.29762 2.61727 9.30571 2.60395C10.2031 1.41852 11.5937 0.559417 13.2269 0.193132C13.8009 0.0665973 14.3911 0 14.9975 0C17.3259 0 19.4522 0.972321 20.6812 2.60395C20.6892 2.61727 20.6973 2.63059 20.7054 2.64391C20.8024 2.77045 20.8914 2.90364 20.9722 3.03684C21.425 3.81603 21.6594 4.64849 21.6594 5.52092C21.6594 5.68741 21.6513 5.84058 21.6352 5.97378C21.4654 7.71197 20.2769 9.29698 18.4659 10.216C17.5766 10.6689 16.574 10.9353 15.5311 11.0085V14.7979C16.2668 13.9521 17.2855 13.2795 18.4901 12.8932ZM20.665 17.4685C22.3547 16.9224 23.5998 15.7103 23.9798 14.2651C22.5083 13.4127 20.5922 13.2196 18.9025 13.759C17.2127 14.2984 15.9677 15.5172 15.5877 16.9623C17.0672 17.8148 18.9752 18.0146 20.665 17.4685ZM26.5912 31.0676H30.8681V23.7419H26.5912V24.9473V29.7623V31.0676ZM10.2031 23.4023L16.6064 24.2614C16.8732 24.2947 17.0672 24.4812 17.0834 24.6943C17.0995 24.914 16.9217 25.1138 16.663 25.1671L8.73168 26.9453C8.52956 26.9919 8.31936 26.9386 8.17383 26.8187L2.48206 21.8572C2.45781 21.8306 2.42547 21.8106 2.39313 21.7906C2.1425 21.6308 1.80293 21.6108 1.52804 21.7374C1.27741 21.8506 1.13188 22.0637 1.13188 22.2968C1.13188 22.4366 1.18848 22.5765 1.29358 22.6897L8.17383 29.9888L25.4593 29.3161V25.1804L19.8565 21.8173L10.1789 23.2824L10.2031 23.4023ZM11.0359 13.759C9.34613 13.2129 7.4381 13.4127 5.95856 14.2651C6.33855 15.717 7.58363 16.929 9.27337 17.4685C10.9631 18.0146 12.8711 17.8148 14.3507 16.9623C13.9707 15.5172 12.7256 14.2984 11.0359 13.759ZM20.5114 5.89386C20.5275 5.78065 20.5275 5.66077 20.5275 5.52092C20.5275 4.79501 20.3254 4.10239 19.9373 3.46306C19.8646 3.34318 19.7918 3.22997 19.711 3.12341C19.7029 3.11675 19.6948 3.11009 19.6948 3.09677C18.668 1.74485 16.9055 0.939022 14.9732 0.939022C14.472 0.939022 13.9788 0.9923 13.5018 1.09886C12.1516 1.4052 10.9955 2.11113 10.2516 3.09677C10.2436 3.10343 10.2436 3.11009 10.2355 3.11675C10.1223 3.26327 10.0172 3.4231 9.92016 3.59625C9.5806 4.19563 9.41081 4.84162 9.41081 5.51426C9.41081 8.03829 11.901 10.0962 14.9732 10.0962C16 10.0962 17.0106 9.86306 17.8757 9.42352C19.3795 8.65765 20.3658 7.34568 20.5114 5.89386Z" fill="#0E1E2B"/>
</svg>
