<svg width="16" height="14" viewBox="0 0 16 14" fill="none" xmlns="http://www.w3.org/2000/svg">
<path d="M14.0631 4.42344C14.2241 4.06825 14.3079 3.68181 14.3079 3.28588C14.3079 1.76456 13.0702 0.526906 11.5489 0.526906C11.0898 0.526906 10.6443 0.63925 10.245 0.853938C9.7257 0.308063 9.01276 0 8.24905 0C7.25361 0 6.34189 0.536688 5.85405 1.38863C5.63186 1.33197 5.40311 1.30334 5.17098 1.30334C3.64967 1.30334 2.41202 2.54103 2.41202 4.06231C2.41202 4.34403 2.45392 4.61981 2.53692 4.88513C1.9338 5.40659 1.58008 6.17075 1.58008 6.974C1.58008 8.42697 2.70908 9.62125 4.13586 9.72559C4.13277 9.77891 4.1312 9.83234 4.1312 9.88569C4.1312 11.407 5.36889 12.6447 6.89017 12.6447C7.79439 12.6447 8.63739 12.1957 9.14861 11.4701C9.6623 11.9863 10.3651 12.2842 11.1052 12.2842C12.5518 12.2842 13.7418 11.1652 13.8553 9.74731C15.0951 9.46541 15.9994 8.35381 15.9994 7.05725C15.9994 5.84037 15.193 4.77747 14.0631 4.42344ZM13.5055 9.16228C13.3435 9.18244 13.2229 9.32175 13.2261 9.48497C13.2264 9.49834 13.2267 9.51175 13.2267 9.52519C13.2267 10.695 12.275 11.6467 11.1051 11.6467C10.4115 11.6467 9.7603 11.3063 9.36308 10.7362C9.29795 10.6427 9.18745 10.5911 9.07433 10.6008C8.96083 10.6105 8.86114 10.6801 8.81286 10.7833C8.46508 11.5268 7.71033 12.0072 6.89011 12.0072C5.7203 12.0072 4.76858 11.0555 4.76858 9.88569C4.76858 9.74659 4.78227 9.60709 4.80917 9.47097C4.82839 9.37391 4.80142 9.27347 4.73623 9.19903C4.67552 9.12975 4.58802 9.09034 4.49652 9.09034C4.48977 9.09034 4.48302 9.09056 4.47636 9.091C4.42814 9.09406 4.38323 9.09556 4.33898 9.09556C3.16917 9.09556 2.21745 8.14384 2.21745 6.97403C2.21745 6.29369 2.54761 5.64966 3.10067 5.25131C3.22052 5.16497 3.26536 5.00762 3.20902 4.87106C3.10308 4.61441 3.04933 4.34231 3.04933 4.06234C3.04933 2.89253 4.00105 1.94081 5.17086 1.94081C5.42367 1.94081 5.67102 1.98484 5.90592 2.07162C6.06377 2.12994 6.23977 2.0555 6.30783 1.90163C6.64761 1.13369 7.40955 0.6375 8.24886 0.6375C8.90989 0.6375 9.52158 0.93775 9.92714 1.46125C10.0302 1.59434 10.219 1.62431 10.3582 1.52972C10.71 1.29072 11.1216 1.16441 11.5487 1.16441C12.7185 1.16441 13.6703 2.11613 13.6703 3.28594C13.6703 3.70731 13.547 4.11447 13.3137 4.46331C13.2527 4.55456 13.243 4.67078 13.2879 4.77094C13.3328 4.87109 13.4261 4.94103 13.5349 4.95616C14.5764 5.10069 15.3618 6.00397 15.3618 7.05725C15.3619 8.12559 14.5638 9.03059 13.5055 9.16228Z" fill="#273541"/>
<path d="M3.54912 11.2758C3.54912 10.6089 3.00659 10.0664 2.33975 10.0664C2.00478 10.0664 1.69353 10.2014 1.46819 10.4368C1.38375 10.4182 1.29725 10.409 1.20931 10.409C0.5425 10.4089 0 10.9515 0 11.6183C0 12.2241 0.44775 12.7273 1.02972 12.8143C1.19784 13.2859 1.64741 13.6155 2.16853 13.6155C2.83534 13.6155 3.37788 13.073 3.37788 12.4062C3.37788 12.267 3.354 12.1298 3.30784 12.0002C3.46309 11.7927 3.54912 11.5388 3.54912 11.2758ZM2.71825 11.7043C2.60253 11.8066 2.57684 11.9772 2.65728 12.1091C2.71166 12.1983 2.74041 12.301 2.74041 12.4062C2.74041 12.7216 2.48387 12.9781 2.16853 12.9781C1.87678 12.9781 1.6325 12.7599 1.60034 12.4704C1.58225 12.3078 1.44466 12.1869 1.28387 12.1869C1.27509 12.1869 1.26622 12.1873 1.25728 12.188C1.23916 12.1895 1.22344 12.1902 1.20938 12.1902C0.894031 12.1902 0.6375 11.9337 0.6375 11.6184C0.6375 11.303 0.894031 11.0465 1.20938 11.0465C1.29247 11.0465 1.37275 11.064 1.44794 11.0987C1.59434 11.1661 1.76794 11.1135 1.85253 10.9764C1.95775 10.8058 2.13991 10.704 2.33981 10.704C2.65516 10.704 2.91172 10.9605 2.91172 11.2758C2.91172 11.4394 2.84119 11.5956 2.71825 11.7043Z" fill="#273541"/>
<path d="M11.8571 10.2711C11.6411 10.4816 11.3561 10.5975 11.0545 10.5975C10.8543 10.5975 10.6573 10.5453 10.4849 10.4467C10.332 10.3593 10.1373 10.4124 10.0499 10.5652C9.96252 10.718 10.0156 10.9127 10.1684 11.0001C10.437 11.1538 10.7435 11.235 11.0545 11.235C11.5233 11.235 11.9663 11.0548 12.302 10.7276C12.428 10.6048 12.4306 10.403 12.3078 10.2769C12.1849 10.1509 11.9831 10.1483 11.8571 10.2711Z" fill="#273541"/>
<path d="M12.5495 9.29497C12.3742 9.27541 12.2169 9.40156 12.1975 9.5765C12.1947 9.60134 12.1911 9.6265 12.1867 9.65128C12.1557 9.82453 12.2711 9.99012 12.4444 10.0211C12.4633 10.0245 12.4822 10.0261 12.5008 10.0261C12.6523 10.0261 12.7866 9.91772 12.8142 9.76341C12.821 9.72487 12.8267 9.68569 12.831 9.64697C12.8505 9.472 12.7245 9.31441 12.5495 9.29497Z" fill="#273541"/>
<path d="M6.67084 6.88511C6.51978 6.88511 6.41037 6.93198 6.39997 7.06745C6.37916 7.29664 6.33228 7.65608 5.80094 7.65608C5.38944 7.65608 5.16544 7.44252 5.16544 6.98411V5.46827C5.16544 5.00986 5.38944 4.7963 5.79053 4.7963C6.32706 4.7963 6.38956 5.17133 6.4 5.35367C6.40519 5.47867 6.50937 5.53598 6.67609 5.53598C6.86362 5.53598 6.95219 5.48386 6.95219 5.24948C6.95219 4.6973 6.48337 4.30664 5.76972 4.30664C5.13941 4.30664 4.61328 4.62439 4.61328 5.46827V6.98411C4.61328 7.82795 5.13422 8.14573 5.76453 8.14573C6.47819 8.14573 6.95222 7.74461 6.95222 7.17161C6.95216 6.94242 6.86359 6.88511 6.67084 6.88511Z" fill="#273541"/>
<path d="M8.59848 4.30664C7.93695 4.30664 7.43164 4.62439 7.43164 5.46827V6.98411C7.43164 7.82799 7.93695 8.14574 8.59848 8.14574C9.2548 8.14574 9.77055 7.82799 9.77055 6.98411V5.46827C9.77052 4.62439 9.25483 4.30664 8.59848 4.30664ZM9.21836 6.98414C9.21836 7.44255 8.98395 7.65611 8.59852 7.65611C8.20783 7.65611 7.98383 7.44255 7.98383 6.98414V5.4683C7.98383 5.00989 8.20783 4.79633 8.59852 4.79633C8.98398 4.79633 9.21836 5.00989 9.21836 5.4683V6.98414Z" fill="#273541"/>
<path d="M12.3278 7.62486H10.7963V7.42692C10.7963 6.82786 12.4841 6.46323 12.4841 5.34327C12.4841 4.71814 11.9736 4.30664 11.3693 4.30664C10.8015 4.30664 10.3015 4.67127 10.3015 5.22867C10.3015 5.46311 10.4056 5.53602 10.5515 5.53602C10.7338 5.53602 10.8432 5.43183 10.8432 5.32764C10.8432 4.97345 11.0776 4.81195 11.3693 4.81195C11.7652 4.81195 11.9319 5.10367 11.9319 5.35892C11.9319 6.16111 10.2285 6.58305 10.2285 7.42695V7.93227C10.2285 8.04164 10.3691 8.11458 10.4734 8.11458H12.3278C12.4216 8.11458 12.5101 7.99473 12.5101 7.86455C12.5101 7.7343 12.4215 7.62486 12.3278 7.62486Z" fill="#273541"/>
</svg>
