<svg width="30" height="48" viewBox="0 0 30 48" fill="none" xmlns="http://www.w3.org/2000/svg">
<path d="M1.216 31.9385H9.44V33.6665H3.216V36.6585H8.976V38.2905H3.216V41.6345H9.552V43.3625H1.216V31.9385ZM18.8301 43.3625H17.1021V42.2425H17.0701C16.8248 42.7225 16.4675 43.0692 15.9981 43.2825C15.5288 43.4852 15.0328 43.5865 14.5101 43.5865C13.8595 43.5865 13.2888 43.4745 12.7981 43.2505C12.3181 43.0159 11.9181 42.7012 11.5981 42.3065C11.2781 41.9119 11.0381 41.4479 10.8781 40.9145C10.7181 40.3705 10.6381 39.7892 10.6381 39.1705C10.6381 38.4239 10.7395 37.7785 10.9421 37.2345C11.1448 36.6905 11.4115 36.2425 11.7421 35.8905C12.0835 35.5385 12.4675 35.2825 12.8941 35.1225C13.3315 34.9519 13.7741 34.8665 14.2221 34.8665C14.4781 34.8665 14.7395 34.8932 15.0061 34.9465C15.2728 34.9892 15.5288 35.0639 15.7741 35.1705C16.0195 35.2772 16.2435 35.4159 16.4461 35.5865C16.6595 35.7465 16.8355 35.9385 16.9741 36.1625H17.0061V31.9385H18.8301V43.3625ZM12.4621 39.3145C12.4621 39.6665 12.5048 40.0132 12.5901 40.3545C12.6861 40.6959 12.8248 40.9999 13.0061 41.2665C13.1981 41.5332 13.4381 41.7465 13.7261 41.9065C14.0141 42.0665 14.3555 42.1465 14.7501 42.1465C15.1555 42.1465 15.5021 42.0612 15.7901 41.8905C16.0888 41.7199 16.3288 41.4959 16.5101 41.2185C16.7021 40.9412 16.8408 40.6319 16.9261 40.2905C17.0221 39.9385 17.0701 39.5812 17.0701 39.2185C17.0701 38.3012 16.8621 37.5865 16.4461 37.0745C16.0408 36.5625 15.4861 36.3065 14.7821 36.3065C14.3555 36.3065 13.9928 36.3972 13.6941 36.5785C13.4061 36.7492 13.1661 36.9785 12.9741 37.2665C12.7928 37.5439 12.6595 37.8639 12.5741 38.2265C12.4995 38.5785 12.4621 38.9412 12.4621 39.3145ZM20.8674 31.9385H22.6914V33.6665H20.8674V31.9385ZM20.8674 35.0905H22.6914V43.3625H20.8674V35.0905ZM23.8468 35.0905H25.2228V32.6105H27.0468V35.0905H28.6948V36.4505H27.0468V40.8665C27.0468 41.0585 27.0521 41.2239 27.0628 41.3625C27.0841 41.5012 27.1214 41.6185 27.1748 41.7145C27.2388 41.8105 27.3294 41.8852 27.4468 41.9385C27.5641 41.9812 27.7241 42.0025 27.9268 42.0025C28.0548 42.0025 28.1828 42.0025 28.3108 42.0025C28.4388 41.9919 28.5668 41.9705 28.6948 41.9385V43.3465C28.4921 43.3679 28.2948 43.3892 28.1028 43.4105C27.9108 43.4319 27.7134 43.4425 27.5108 43.4425C27.0308 43.4425 26.6414 43.3999 26.3428 43.3145C26.0548 43.2185 25.8254 43.0852 25.6548 42.9145C25.4948 42.7332 25.3828 42.5092 25.3188 42.2425C25.2654 41.9759 25.2334 41.6719 25.2228 41.3305V36.4505H23.8468V35.0905Z" fill="#707070"/>
<path d="M23.0882 6.17523L24.2778 4.49477C24.5483 4.11273 24.6976 3.67425 24.7097 3.22614L24.724 2.6993C24.743 1.96786 24.3453 1.27224 23.6709 0.828775L23.423 0.683537C22.5981 0.256739 21.5629 0.237608 20.723 0.634205L20.184 0.888708C19.7237 1.10669 19.3379 1.42388 19.0678 1.80614L5.51379 20.9536C5.28896 21.2714 5.14999 21.6192 5.10094 21.9867L4.45027 26.8179L5.24862 27.2165L9.87502 24.4266C10.2146 24.222 10.4964 23.9637 10.712 23.6589L22.5714 6.90543L23.8772 7.58132L17.6123 16.4328C17.4694 16.6344 17.5485 16.8965 17.7885 17.0183C17.8667 17.058 17.9527 17.0779 18.0376 17.0796C18.2133 17.0832 18.3853 17.0097 18.4814 16.8738L25.2589 7.29892L23.0882 6.17523ZM19.9369 2.24694C20.1179 1.99115 20.3761 1.77879 20.6818 1.63385L21.2219 1.37899C21.4842 1.25521 21.7768 1.19668 22.0681 1.20265C22.266 1.20671 22.4638 1.24053 22.6507 1.30412L22.9199 1.42109C23.4221 1.68981 23.7255 2.16798 23.7131 2.6738L23.6988 3.20081C23.6907 3.50224 23.5903 3.79696 23.4088 4.05354L22.2237 5.72762L18.8611 3.98698C18.8206 3.96615 19.9369 2.24694 19.9369 2.24694ZM9.84301 23.2179C9.69859 23.4221 9.51031 23.5949 9.28378 23.7314L5.58398 25.9623L6.10538 22.0885C6.13804 21.8449 6.23383 21.605 6.38284 21.3944L18.243 4.63973C18.2725 4.6655 21.7068 6.45785 21.7068 6.45785L9.84301 23.2179Z" fill="black"/>
</svg>
