<svg width="124" height="120" viewBox="0 0 124 120" fill="none" xmlns="http://www.w3.org/2000/svg">
<path d="M0 40H41.3333V0H0V40ZM6.88889 6.66667H34.4444V33.3333H6.88889V6.66667ZM13.7778 13.3333H27.5556V26.6667H13.7778V13.3333ZM82.6667 40H124V0H82.6667V40ZM89.5556 6.66667H117.111V33.3333H89.5556V6.66667ZM96.4444 13.3333H110.222V26.6667H96.4444V13.3333ZM0 120H41.3333V80H0V120ZM6.88889 86.6667H34.4444V113.333H6.88889V86.6667ZM13.7778 93.3333H27.5556V106.667H13.7778V93.3333ZM117.111 106.667H124V120H110.222V100H117.111V106.667ZM117.111 86.6667H124V93.3333H117.111V86.6667ZM117.111 80V86.6667H110.222V80H117.111ZM48.2222 93.3333H55.1111V120H48.2222V93.3333ZM20.6667 46.6667V60H6.88889V53.3333H0V46.6667H20.6667ZM48.2222 26.6667H55.1111V33.3333H48.2222V26.6667ZM68.8889 6.66667V20H62V0H75.7778V6.66667H68.8889ZM48.2222 6.66667H55.1111V13.3333H48.2222V6.66667ZM117.111 60H124V73.3333H110.222V66.6667H117.111V60ZM110.222 46.6667V53.3333H96.4444V66.6667H82.6667V60H89.5556V46.6667H110.222ZM62 73.3333H55.1111V66.6667H48.2222V60H62V73.3333ZM103.333 86.6667H110.222V93.3333H103.333V86.6667ZM117.111 53.3333V60H110.222V53.3333H117.111ZM55.1111 73.3333V80H48.2222V73.3333H55.1111ZM96.4444 106.667H103.333V120H89.5556V106.667H96.4444ZM75.7778 106.667H82.6667V113.333H75.7778V120H62V113.333H68.8889V106.667H75.7778ZM75.7778 100V93.3333H89.5556V100H75.7778ZM75.7778 66.6667H82.6667V86.6667H75.7778V93.3333H68.8889V100H62V86.6667H55.1111V80H75.7778V73.3333H68.8889V66.6667H75.7778ZM13.7778 66.6667V73.3333H6.88889V66.6667H13.7778ZM96.4444 93.3333H89.5556V86.6667H96.4444V93.3333ZM103.333 80H89.5556V73.3333H103.333V80ZM34.4444 46.6667H41.3333V53.3333H34.4444V60H41.3333V73.3333H34.4444V66.6667H27.5556V73.3333H20.6667V60H27.5556V46.6667H34.4444ZM55.1111 46.6667V33.3333H75.7778V53.3333H62V46.6667H68.8889V40H62V46.6667H55.1111ZM55.1111 20H62V26.6667H55.1111V20ZM48.2222 46.6667H55.1111V53.3333H48.2222V46.6667ZM68.8889 26.6667V20H75.7778V26.6667H68.8889Z" fill="white"/>
</svg>
