<svg width="17" height="17" viewBox="0 0 17 17" fill="none" xmlns="http://www.w3.org/2000/svg">
<path d="M10.2319 3.81544C10.4297 3.54715 10.8956 3.20992 11.558 2.84848C12.201 2.49763 12.9706 2.1541 13.7159 1.85072C14.4599 1.54793 15.173 1.28791 15.7006 1.10345C15.8088 1.06567 15.9089 1.03111 16 1C15.9821 1.12326 15.9619 1.26037 15.9396 1.40909C15.8397 2.07688 15.6981 2.97781 15.5312 3.91234C15.364 4.84848 15.1726 5.81091 14.9738 6.6044C14.8742 7.00153 14.7746 7.34893 14.6774 7.62638C14.5766 7.91399 14.491 8.08889 14.4302 8.17133C14.3263 8.31232 14.0993 8.42736 13.708 8.45842C13.3327 8.48822 12.8852 8.4345 12.4429 8.34218C12.0039 8.25063 11.5873 8.12493 11.2789 8.02137C11.1252 7.96979 10.9995 7.92405 10.9126 7.89139L10.9106 7.89062C10.8674 7.80103 10.8068 7.67153 10.737 7.51199C10.5951 7.18761 10.4179 6.74467 10.2725 6.26378C10.1258 5.77914 10.0182 5.27779 10.0021 4.83117C9.98595 4.3827 10.0632 4.04434 10.2319 3.81544Z" stroke="#175AB6"/>
<path d="M14 3.1333C14 3.1333 10.9832 6.15564 10 9.5333L14 3.1333Z" fill="#175AB6"/>
<path d="M14 3.1333C14 3.1333 10.9832 6.15564 10 9.5333" stroke="#175AB6" stroke-linecap="round" stroke-linejoin="round"/>
<path d="M7.85903 5.15913C7.73461 4.97841 7.42511 4.73412 6.96022 4.46256C6.51356 4.20166 5.97744 3.94529 5.45634 3.71826C4.93646 3.4917 4.43794 3.29711 4.06896 3.15902C4.04542 3.15021 4.02245 3.14163 4 3.1333C4.00578 3.17521 4.01179 3.21866 4.01809 3.26354C4.088 3.76397 4.18707 4.43887 4.30386 5.13865C4.42089 5.8401 4.55445 6.55917 4.69293 7.15061C4.76227 7.44669 4.83113 7.70349 4.89767 7.90677C4.96762 8.1204 5.02322 8.23767 5.0559 8.28511C5.10412 8.35511 5.23114 8.43803 5.49811 8.46071C5.75026 8.48214 6.0553 8.44357 6.36211 8.37505C6.66564 8.30731 6.95449 8.21404 7.1687 8.13701C7.25741 8.10511 7.33267 8.0763 7.39002 8.05356C7.41791 7.9907 7.45324 7.90873 7.49293 7.81164C7.59125 7.57092 7.71368 7.24312 7.81399 6.88823C7.91529 6.52953 7.9878 6.16475 7.9986 5.84469C8.00945 5.52241 7.95664 5.30086 7.85903 5.15913Z" stroke="#175AB6"/>
<path d="M5 5.26672C5 5.26672 7.33602 7.22777 8 9.53339L5 5.26672Z" fill="#175AB6"/>
<path d="M5 5.26672C5 5.26672 7.33602 7.22777 8 9.53339" stroke="#175AB6" stroke-linecap="round" stroke-linejoin="round"/>
<path d="M3.00716 10.9356H2.49651V11.746L3.17639 11.4775L3.00716 10.9356ZM6.20015 10.1995L6.30994 9.63855L6.30105 9.63631L6.29206 9.63447L6.20015 10.1995ZM9.11948 10.9223L9.27267 10.3744L9.25122 10.3668L9.22927 10.3614L9.11948 10.9223ZM9.56047 12.9157L9.58708 12.3421L9.57681 12.3415L9.56655 12.3414L9.56047 12.9157ZM7.20367 12.8842L7.20975 12.3099L7.11375 13.4496L7.20367 12.8842ZM3.00716 15.3307L2.98959 14.7567L2.49651 14.7758V15.3307H3.00716ZM3.00716 16.4256V17H3.51781V16.4256H3.00716ZM0.510649 16.4256H0V17H0.510649V16.4256ZM0.510649 10.1077V9.53333H0V10.1077H0.510649ZM3.00716 10.1077H3.51781V9.53333H3.00716V10.1077ZM4.57761 9.67513C4.34195 9.79374 3.47216 10.1431 2.83793 10.3937L3.17639 11.4775C3.78452 11.2372 4.70936 10.8673 4.99461 10.7238L4.57761 9.67513ZM6.20015 10.1995C6.29207 9.63447 6.29206 9.63447 6.29206 9.63447L6.2914 9.63435C6.29109 9.6343 6.29074 9.63424 6.29033 9.63413C6.28951 9.63395 6.28849 9.63378 6.28716 9.63349C6.28456 9.63298 6.28104 9.63229 6.27659 9.63137C6.26766 9.62965 6.25514 9.62723 6.23942 9.6243C6.20796 9.61844 6.16348 9.61058 6.1091 9.60185C6.00094 9.58444 5.85107 9.56342 5.68577 9.54929C5.52201 9.53534 5.33373 9.52729 5.15133 9.5389C4.97913 9.54987 4.76548 9.58065 4.57761 9.67513L4.99461 10.7238C5.01202 10.715 5.07774 10.6942 5.20918 10.6858C5.33036 10.6781 5.46997 10.6829 5.60841 10.6947C5.74531 10.7065 5.87195 10.7241 5.96479 10.739C6.01095 10.7464 6.04803 10.753 6.0731 10.7577C6.08556 10.76 6.095 10.7618 6.10103 10.763C6.10404 10.7636 6.10614 10.764 6.10736 10.7643C6.10798 10.7644 6.10854 10.7645 6.10854 10.7645C6.10854 10.7645 6.10828 10.7645 6.20015 10.1995ZM9.22927 10.3614L6.30994 9.63855L6.09041 10.7604L9.00969 11.4832L9.22927 10.3614ZM10.5335 10.6061C10.2422 10.6061 9.92799 10.5502 9.67685 10.4897C9.55348 10.46 9.45007 10.4304 9.37822 10.4084C9.34243 10.3974 9.3147 10.3884 9.29657 10.3825C9.28748 10.3794 9.28084 10.3772 9.27681 10.3758C9.27477 10.3751 9.27334 10.3746 9.27267 10.3744C9.27267 10.3744 9.27267 10.3744 9.11948 10.9223C8.96628 11.4702 8.96644 11.4702 8.96644 11.4702L8.96695 11.4704C8.96695 11.4704 8.96751 11.4706 8.96787 11.4708C8.96858 11.471 8.96945 11.4713 8.97052 11.4717C8.97262 11.4724 8.97542 11.4733 8.9789 11.4745C8.98589 11.477 8.99559 11.4802 9.0078 11.4843C9.03226 11.4924 9.06693 11.5036 9.11018 11.5168C9.19659 11.5433 9.31838 11.5782 9.46304 11.613C9.74783 11.6816 10.1407 11.7548 10.5335 11.7548V10.6061ZM10.6442 13.0448C10.9716 12.7867 11.258 12.3249 11.363 11.8939C11.4143 11.6834 11.4504 11.3636 11.3042 11.0682C11.134 10.7243 10.8204 10.6061 10.5335 10.6061V11.7548C10.5644 11.7548 10.5524 11.7609 10.5192 11.7429C10.48 11.7217 10.4389 11.6815 10.4118 11.6268C10.3671 11.5365 10.4006 11.4975 10.378 11.5903C10.3598 11.665 10.3169 11.7685 10.2508 11.8747C10.1845 11.981 10.1131 12.0606 10.058 12.1041L10.6442 13.0448ZM9.56047 12.9157C9.53392 13.4892 9.53443 13.4893 9.53443 13.4893C9.53479 13.4893 9.53566 13.4893 9.53601 13.4893C9.53678 13.4894 9.53749 13.4895 9.53826 13.4895C9.53984 13.4896 9.54148 13.4896 9.54316 13.4897C9.54664 13.4899 9.55041 13.49 9.55455 13.49C9.56282 13.4902 9.57247 13.4903 9.58345 13.4901C9.60536 13.4897 9.63253 13.4884 9.66454 13.4852C9.72858 13.4789 9.81171 13.4651 9.91017 13.437C10.1082 13.3802 10.3629 13.2665 10.6442 13.0448L10.058 12.1041C9.88167 12.2431 9.74099 12.3 9.65816 12.3237C9.61619 12.3357 9.58749 12.3397 9.57477 12.341C9.56839 12.3416 9.56599 12.3415 9.56793 12.3415C9.5689 12.3415 9.57094 12.3415 9.57411 12.3415C9.57569 12.3416 9.57758 12.3417 9.57973 12.3417C9.5808 12.3418 9.58197 12.3418 9.58315 12.3419C9.58376 12.3419 9.58442 12.3419 9.58509 12.3419C9.58539 12.342 9.5857 12.342 9.58606 12.342L9.58708 12.3421C9.58708 12.3421 9.58708 12.3421 9.56047 12.9157ZM7.1976 13.4585L9.55455 13.49L9.56655 12.3414L7.20975 12.3099L7.1976 13.4585ZM10.0619 12.7755C9.70417 12.7517 9.02297 12.6407 8.40758 12.53C8.10497 12.4756 7.82621 12.4228 7.62297 12.3835C7.52145 12.3638 7.43888 12.3476 7.38179 12.3364C7.35324 12.3307 7.33108 12.3263 7.31612 12.3233C7.30866 12.3218 7.30295 12.3207 7.29917 12.3199C7.29728 12.3195 7.29585 12.3193 7.29493 12.3191C7.29447 12.319 7.29391 12.3189 7.29391 12.3189C7.29391 12.3189 7.2936 12.3188 7.20367 12.8842C7.11375 13.4496 7.11375 13.4496 7.11375 13.4496C7.11406 13.4496 7.11487 13.4498 7.11543 13.4499C7.11646 13.4501 7.11799 13.4505 7.12003 13.4509C7.12406 13.4517 7.12999 13.4528 7.1377 13.4544C7.15322 13.4575 7.1759 13.462 7.205 13.4677C7.26322 13.4792 7.34706 13.4957 7.45006 13.5156C7.65596 13.5554 7.93881 13.609 8.24632 13.6643C8.85113 13.7731 9.58391 13.8944 10.0016 13.9222L10.0619 12.7755ZM11.6607 12.1962C11.2797 12.3687 10.9395 12.5225 10.6466 12.6311C10.338 12.7456 10.1527 12.7816 10.0619 12.7755L10.0016 13.9222C10.3036 13.9423 10.6516 13.8388 10.9664 13.7221C11.2969 13.5994 11.6701 13.4302 12.0421 13.2618L11.6607 12.1962ZM14.0097 11.3363C13.2442 11.476 12.3782 11.8713 11.6607 12.1962L12.0421 13.2618C12.7916 12.9224 13.5433 12.5852 14.1733 12.4702L14.0097 11.3363ZM15.6396 13.9603C16.0445 13.502 16.1044 12.7461 15.8384 12.1731C15.5373 11.5245 14.8817 11.1771 14.0097 11.3363L14.1733 12.4702C14.7152 12.3712 14.8807 12.5918 14.9331 12.7047C15.0206 12.8933 14.9665 13.0925 14.9152 13.1505L15.6396 13.9603ZM10.7063 16.8322C11.0585 16.6898 12.1572 16.1191 13.2015 15.5346C13.7295 15.239 14.2561 14.9329 14.6819 14.6663C14.8945 14.5332 15.0865 14.4072 15.243 14.2952C15.3879 14.1914 15.5385 14.0747 15.6396 13.9603L14.9152 13.1505C14.9159 13.1497 14.9117 13.1545 14.9003 13.1651C14.8893 13.1753 14.8742 13.1886 14.8543 13.205C14.8141 13.2381 14.7611 13.2785 14.6947 13.326C14.5618 13.4212 14.3889 13.5351 14.1852 13.6626C13.7786 13.9171 13.2674 14.2145 12.7464 14.5062C11.6924 15.0962 10.6472 15.6354 10.3608 15.7512L10.7063 16.8322ZM8.69579 16.9227C9.34176 16.9943 10.0753 17.0873 10.7063 16.8322L10.3608 15.7512C9.99151 15.9005 9.51518 15.8593 8.79603 15.7795L8.69579 16.9227ZM8.12371 16.8645C8.31694 16.8807 8.50593 16.9016 8.69579 16.9227L8.79603 15.7795C8.60786 15.7586 8.40687 15.7363 8.19944 15.7189L8.12371 16.8645ZM6.00023 16.3482C6.60346 16.5597 7.26235 16.7925 8.12371 16.8645L8.19944 15.7189C7.46656 15.6577 6.90719 15.463 6.30432 15.2515L6.00023 16.3482ZM3.99052 15.8847C4.77258 15.9195 5.35472 16.1217 6.00023 16.3482L6.30432 15.2515C5.65723 15.0245 4.96085 14.7782 4.03086 14.7368L3.99052 15.8847ZM3.02473 15.9047C3.43621 15.8888 3.83477 15.8778 3.99052 15.8847L4.03086 14.7368C3.82859 14.7279 3.38601 14.7413 2.98959 14.7567L3.02473 15.9047ZM2.49651 15.3307V16.4256H3.51781V15.3307H2.49651ZM3.00716 15.8513H0.510649V17H3.00716V15.8513ZM1.0213 16.4256V10.1077H0V16.4256H1.0213ZM0.510649 10.682H3.00716V9.53333H0.510649V10.682ZM2.49651 10.1077V10.9356H3.51781V10.1077H2.49651Z" fill="#175AB6"/>
</svg>
