<svg width="16" height="16" viewBox="0 0 16 16" fill="none" xmlns="http://www.w3.org/2000/svg">
<path d="M9.24507 6.44662C10.3284 6.09698 11.5654 6.25349 12.475 6.85286C12.5558 6.90614 12.5922 6.98939 12.5801 7.0693C12.4022 8.01831 11.622 8.82081 10.5387 9.17045C10.1546 9.29365 9.75442 9.35359 9.35422 9.35359C8.80445 9.35359 8.25872 9.24037 7.76958 9.01727V10.7621L9.94846 10.4325C10.0253 10.4225 10.1021 10.4358 10.1668 10.4724L12.7297 12.0142V11.6379C12.7297 11.508 12.855 11.4048 13.0126 11.4048H15.717C15.8747 11.4048 16 11.508 16 11.6379V15.7669C16 15.8968 15.8747 16 15.717 16H13.0126C12.855 16 12.7297 15.8968 12.7297 15.7669V15.1242L3.96564 15.4672C3.9616 15.4672 3.95755 15.4672 3.95351 15.4672C3.86458 15.4672 3.78373 15.4339 3.73118 15.3773L0.202122 11.6312C0.0727634 11.4914 0 11.3249 0 11.1484C0 10.8653 0.185952 10.6023 0.485093 10.4624C0.824658 10.3059 1.23699 10.3292 1.54421 10.5257C1.5806 10.549 1.61698 10.5757 1.65336 10.6056L4.38605 12.9865L6.92875 12.4171L4.81455 12.1307C4.69328 12.114 4.6003 12.0375 4.58009 11.9376L4.4952 11.4847C4.47094 11.3615 4.57201 11.2416 4.72562 11.2183L7.21172 10.842V9.01061C6.72259 9.23038 6.17686 9.34693 5.62708 9.34693C5.22688 9.34693 4.82264 9.28699 4.44265 9.16379C3.35927 8.81415 2.57908 8.01165 2.40121 7.06264C2.38504 6.9794 2.42547 6.89615 2.50632 6.8462C3.41587 6.24683 4.65285 6.09365 5.73623 6.43996C6.33855 6.63309 6.85195 6.97274 7.21577 7.39563V5.49761C5.50177 5.37773 4.15159 4.1923 4.15159 2.7538C4.15159 2.35088 4.25265 1.96129 4.45882 1.60167C4.51541 1.50177 4.57605 1.40853 4.64073 1.32196C4.64477 1.3153 4.64881 1.30864 4.65285 1.30198C5.10157 0.709261 5.79687 0.279709 6.61344 0.0965661C6.90046 0.0332987 7.19555 0 7.49874 0C8.66296 0 9.72612 0.48616 10.3406 1.30198C10.3446 1.30864 10.3487 1.3153 10.3527 1.32196C10.4012 1.38522 10.4457 1.45182 10.4861 1.51842C10.7125 1.90801 10.8297 2.32425 10.8297 2.76046C10.8297 2.8437 10.8257 2.92029 10.8176 2.98689C10.7327 3.85598 10.1385 4.64849 9.23295 5.10801C8.78828 5.33444 8.28701 5.46764 7.76554 5.50427V7.39896C8.1334 6.97607 8.64275 6.63975 9.24507 6.44662ZM10.3325 8.73423C11.1774 8.46119 11.7999 7.85515 11.9899 7.13257C11.2542 6.70635 10.2961 6.60978 9.45124 6.8795C8.60637 7.14922 7.98383 7.75858 7.79383 8.48117C8.5336 8.90739 9.48762 9.00728 10.3325 8.73423ZM13.2956 15.5338H15.4341V11.871H13.2956V12.4737V14.8812V15.5338ZM5.10157 11.7011L8.30318 12.1307C8.43658 12.1473 8.5336 12.2406 8.54169 12.3471C8.54977 12.457 8.46084 12.5569 8.33148 12.5836L4.36584 13.4726C4.26478 13.4959 4.15968 13.4693 4.08691 13.4094L1.24103 10.9286C1.2289 10.9153 1.21273 10.9053 1.19656 10.8953C1.07125 10.8154 0.901465 10.8054 0.764022 10.8687C0.638706 10.9253 0.565942 11.0318 0.565942 11.1484C0.565942 11.2183 0.594239 11.2882 0.646791 11.3448L4.08691 14.9944L12.7297 14.6581V12.5902L9.92825 10.9086L5.08944 11.6412L5.10157 11.7011ZM5.51794 6.8795C4.67307 6.60645 3.71905 6.70635 2.97928 7.13257C3.16928 7.85848 3.79181 8.46452 4.63668 8.73423C5.48156 9.00728 6.43557 8.90739 7.17534 8.48117C6.98535 7.75858 6.36281 7.14922 5.51794 6.8795ZM10.2557 2.94693C10.2638 2.89032 10.2638 2.83039 10.2638 2.76046C10.2638 2.3975 10.1627 2.0512 9.96867 1.73153C9.93229 1.67159 9.89591 1.61498 9.85548 1.56171C9.85144 1.55838 9.8474 1.55505 9.8474 1.54839C9.33401 0.872425 8.45275 0.469511 7.48661 0.469511C7.23598 0.469511 6.98939 0.49615 6.75088 0.549428C6.0758 0.702601 5.49773 1.05557 5.12582 1.54839C5.12178 1.55172 5.12178 1.55505 5.11774 1.55838C5.06114 1.63163 5.00859 1.71155 4.96008 1.79813C4.7903 2.09781 4.70541 2.42081 4.70541 2.75713C4.70541 4.01915 5.95048 5.04808 7.48661 5.04808C8 5.04808 8.5053 4.93153 8.93785 4.71176C9.68974 4.32882 10.1829 3.67284 10.2557 2.94693Z" fill="#175AB6"/>
</svg>
