<svg width="16" height="17" viewBox="0 0 16 17" fill="none" xmlns="http://www.w3.org/2000/svg">
<path d="M9.6 4.3753C9.6 5.92049 10.8536 7.17311 12.4 7.17311C13.9464 7.17311 15.2 5.92049 15.2 4.3753C15.2 2.82107 13.9492 1.57123 12.4062 1.57123C10.8531 1.57426 9.6 2.82879 9.6 4.3753ZM10.1469 1.5666L3.60077 1.57124C2.05307 1.57426 0.8 2.82879 0.8 4.3753C0.8 5.92049 2.0536 7.17311 3.6 7.17311H10.1371C9.32147 6.51365 8.8 5.50532 8.8 4.3753C8.8 3.24 9.32549 2.22715 10.1469 1.5666ZM12.475 0.772642C14.4317 0.812807 16 2.40481 16 4.36282C16 6.36197 14.3882 7.97249 12.4 7.97249H3.6C1.61177 7.97249 0 6.36197 0 4.3753C0 2.38792 1.61029 0.775743 3.59971 0.771864L12.3997 0.765625C12.4255 0.765607 12.4506 0.768018 12.475 0.772642ZM3.52498 9.56578C3.54937 9.56115 3.57455 9.55874 3.60028 9.55876L12.4003 9.565C14.3897 9.56888 16 11.1811 16 13.1684C16 15.1551 14.3882 16.7656 12.4 16.7656H3.6C1.61177 16.7656 0 15.1551 0 13.156C0 11.1979 1.56832 9.60594 3.52498 9.56578ZM6.4 13.1684C6.4 11.6219 5.14693 10.3674 3.59377 10.3644C2.05081 10.3644 0.8 11.6142 0.8 13.1684C0.8 14.7136 2.0536 15.9662 3.6 15.9662C5.1464 15.9662 6.4 14.7136 6.4 13.1684ZM5.85314 10.3597C6.67451 11.0203 7.2 12.0331 7.2 13.1684C7.2 14.2985 6.67853 15.3068 5.86293 15.9662H12.4C13.9464 15.9662 15.2 14.7136 15.2 13.1684C15.2 11.6219 13.9469 10.3674 12.3992 10.3644L5.85314 10.3597Z" fill="white"/>
</svg>
