<svg width="14" height="14" viewBox="0 0 14 14" fill="none" xmlns="http://www.w3.org/2000/svg">
<path d="M8.4 3.15847C8.4 4.5105 9.4969 5.60655 10.85 5.60655C12.2031 5.60655 13.3 4.5105 13.3 3.15846C13.3 1.79852 12.2055 0.704908 10.8555 0.704908C9.49644 0.707553 8.4 1.80527 8.4 3.15847ZM8.8785 0.700852L3.15068 0.704912C1.79643 0.707553 0.7 1.80527 0.7 3.15846C0.7 4.5105 1.7969 5.60655 3.15 5.60655H8.86993C8.15628 5.02952 7.7 4.14724 7.7 3.15847C7.7 2.16508 8.1598 1.27883 8.8785 0.700852ZM10.9156 0.0061398C12.6277 0.0412843 14 1.43428 14 3.14755C14 4.8968 12.5897 6.30601 10.85 6.30601H3.15C1.4103 6.30601 0 4.8968 0 3.15846C0 1.41951 1.409 0.0088529 3.14975 0.00545924L10.8498 8.99765e-08C10.8723 -1.58786e-05 10.8943 0.0020939 10.9156 0.0061398ZM3.08436 7.70013C3.1057 7.69609 3.12773 7.69398 3.15025 7.69399L10.8503 7.69945C12.591 7.70285 14 9.1135 14 10.8525C14 12.5908 12.5897 14 10.85 14H3.15C1.4103 14 0 12.5908 0 10.8415C0 9.12828 1.37228 7.73528 3.08436 7.70013ZM5.6 10.8525C5.6 9.49927 4.50356 8.40155 3.14455 8.3989C1.79446 8.3989 0.7 9.49251 0.7 10.8525C0.7 12.2045 1.7969 13.3005 3.15 13.3005C4.5031 13.3005 5.6 12.2045 5.6 10.8525ZM5.1215 8.39485C5.8402 8.97283 6.3 9.85908 6.3 10.8525C6.3 11.8412 5.84372 12.7235 5.13007 13.3005H10.85C12.2031 13.3005 13.3 12.2045 13.3 10.8525C13.3 9.49927 12.2036 8.40155 10.8493 8.39891L5.1215 8.39485Z" fill="#175AB6"/>
</svg>
