<svg width="181" height="58" viewBox="0 0 181 58" fill="none" xmlns="http://www.w3.org/2000/svg">
<path d="M34.7932 16H24.8757H14.959L19.9169 24.5885H29.8344H39.7511L34.7932 16Z" fill="url(#paint0_linear_1115_14143)"/>
<path d="M24.8755 33.1771L19.9167 24.5885L14.9587 16L10 24.5885L14.9587 33.1771L19.9167 41.7656H29.8342L34.7929 33.1771H24.8755Z" fill="url(#paint1_linear_1115_14143)"/>
<path opacity="0.44" d="M18.3499 16H14.959L19.9169 24.5885L18.3499 16Z" fill="#01153A"/>
<path d="M54.5821 33.993C53.2965 35.2983 51.5427 36.0944 49.5634 36.0944C45.5853 36.0944 42.75 32.8918 42.75 28.8931C42.75 24.9149 45.5853 21.6714 49.5634 21.6714C51.5419 21.6714 53.276 22.4667 54.5616 23.7728L53.6228 24.7108C52.5824 23.6703 51.1951 23.0177 49.5634 23.0177C46.3199 23.0177 44.0963 25.6291 44.0963 28.8931C44.0963 32.1367 46.3199 34.7473 49.5634 34.7473C51.1951 34.7473 52.6029 34.0947 53.6433 33.0337L54.5821 33.993Z" fill="white"/>
<path d="M67.4144 33.6462H66.0476V32.0146C65.3335 33.2182 63.8445 33.8504 62.4572 33.8504C59.7441 33.8504 57.582 31.8719 57.582 28.8522C57.582 25.8333 59.7441 23.9155 62.4572 23.9155C63.8445 23.9155 65.3335 24.487 66.0476 25.6906V24.1197H67.4144V33.6462ZM62.4572 32.4828C64.416 32.4828 66.0476 31.2177 66.0476 28.8514C66.0476 26.4852 64.1708 25.2815 62.4572 25.2815C60.4788 25.2815 58.9488 26.6688 58.9488 28.8514C58.948 30.9733 60.478 32.4828 62.4572 32.4828Z" fill="white"/>
<path d="M75.9037 25.711C75.4347 25.4871 74.8632 25.3847 74.5164 25.3847C72.5781 25.3847 71.7828 27.6697 71.7828 30.1992V33.7486H70.416V24.2212H71.7836V26.3834C72.2526 24.7517 73.1299 24.0171 74.5172 24.0171C75.1698 24.0171 75.884 24.2212 76.0676 24.3844L75.9037 25.711Z" fill="white"/>
<path d="M79.0664 21.8926H80.4332V27.7136C81.1473 26.51 82.6363 25.9386 84.0236 25.9386C86.7367 25.9386 88.8988 27.8563 88.8988 30.8752C88.8988 33.8941 86.7367 35.8734 84.0236 35.8734C82.6363 35.8734 81.1473 35.2412 80.4332 34.0376V35.6692H79.0664V21.8926ZM84.0236 27.3053C82.31 27.3053 80.4332 28.509 80.4332 30.8752C80.4332 33.2415 82.0648 34.5066 84.0236 34.5066C86.0028 34.5066 87.532 32.9971 87.532 30.8752C87.532 28.6926 86.0028 27.3053 84.0236 27.3053Z" fill="white"/>
<path d="M91.8984 28.8522C91.8984 25.8333 94.163 23.9155 96.8761 23.9155C99.5892 23.9155 101.854 25.8333 101.854 28.8522C101.854 31.8711 99.5892 33.8504 96.8761 33.8504C94.163 33.8496 91.8984 31.8711 91.8984 28.8522ZM100.507 28.8522C100.507 26.6491 98.8553 25.2618 96.8761 25.2618C94.8976 25.2618 93.2447 26.6491 93.2447 28.8522C93.2447 31.0553 94.8969 32.5033 96.8761 32.5033C98.8546 32.5033 100.507 31.0553 100.507 28.8522Z" fill="white"/>
<path d="M106.222 33.7486H104.855V24.2212H106.222V25.7922C106.813 24.5476 108.283 24.0171 109.384 24.0171C111.73 24.0171 113.076 25.588 113.056 28.1986V33.7478H111.689V28.1986C111.689 26.4236 110.853 25.3634 109.385 25.3634C107.875 25.3634 106.223 26.2202 106.223 28.5455V33.7486H106.222Z" fill="white"/>
<path d="M128.845 33.2386C127.621 34.9727 125.581 36.0944 123.133 36.0944C119.134 36.0944 116.055 32.8508 116.055 28.8931C116.055 24.9149 119.135 21.6714 123.133 21.6714C125.52 21.6714 127.56 22.7323 128.784 24.446L126.703 25.9349C125.887 24.874 124.622 24.1401 123.133 24.1401C120.583 24.1401 118.665 26.2825 118.665 28.8931C118.665 31.5242 120.583 33.6257 123.133 33.6257C124.663 33.6257 125.968 32.8705 126.785 31.7284L128.845 33.2386Z" fill="white"/>
<path d="M134.334 33.7486H131.846V24.2212H134.334V26.4653C134.824 24.7312 135.946 24.0171 137.027 24.0171C137.7 24.0171 138.21 24.1393 138.598 24.3639L138.169 26.608C137.578 26.3432 136.965 26.3432 136.721 26.3432C135.028 26.3432 134.334 27.8526 134.334 30.382V33.7486Z" fill="white"/>
<path d="M151.328 29.7098H144.066C144.229 30.9946 145.29 31.7497 146.697 31.7497C147.656 31.7497 148.615 31.3414 149.084 30.5256C149.676 30.8519 150.349 31.2193 150.982 31.5456C150.104 33.1772 148.289 33.8504 146.534 33.8504C143.821 33.8504 141.598 31.8514 141.598 28.8522C141.598 25.8333 143.821 23.9155 146.534 23.9155C149.227 23.9155 151.369 25.8333 151.369 28.8522C151.369 29.0973 151.349 29.4852 151.328 29.7098ZM148.942 28.0167C148.758 26.7114 147.779 25.9972 146.555 25.9972C145.25 25.9972 144.23 26.7114 144.046 28.0167H148.942Z" fill="white"/>
<path d="M162.04 34.3939C161.489 35.3524 160.286 35.8828 159.041 35.8828C156.532 35.8828 154.369 33.9446 154.369 30.9257C154.369 27.8863 156.531 25.948 159.041 25.948C160.326 25.948 161.489 26.458 162.04 27.4165V21.8823H164.508V35.6795H162.04V34.3939ZM159.449 28.3151C158.062 28.3151 156.94 29.335 156.94 30.8855C156.94 32.4564 158.062 33.4969 159.449 33.4969C160.816 33.4969 161.999 32.4769 161.999 30.8855C161.999 29.2531 160.755 28.3151 159.449 28.3151Z" fill="white"/>
<defs>
<linearGradient id="paint0_linear_1115_14143" x1="14.959" y1="20.2943" x2="39.7511" y2="20.2943" gradientUnits="userSpaceOnUse">
<stop stop-color="#1C90E3"/>
<stop offset="1" stop-color="#165AB6"/>
</linearGradient>
<linearGradient id="paint1_linear_1115_14143" x1="10" y1="28.8828" x2="34.7929" y2="28.8828" gradientUnits="userSpaceOnUse">
<stop stop-color="#1C90E3"/>
<stop offset="1" stop-color="#165AB6"/>
</linearGradient>
</defs>
</svg>
