<svg width="16" height="16" viewBox="0 0 16 16" fill="none" xmlns="http://www.w3.org/2000/svg">
<path d="M4.88672 10.8008C4.88672 12.7809 4.88672 13.7709 5.57026 14.386C6.06913 14.835 6.78996 14.9563 7.99837 14.9891M4.88672 5.20036C4.88672 3.22029 4.88672 2.23026 5.57026 1.61513C6.25379 1 7.35395 1 9.5542 1H10.3321C12.5324 1 13.6325 1 14.316 1.61513C14.9996 2.23026 14.9996 3.22029 14.9996 5.20036V6.60048V9.40071V10.8008C14.9996 12.7809 14.9996 13.7709 14.316 14.386C13.7183 14.924 12.802 14.9915 11.11 15" stroke="#175AB6" stroke-linecap="round"/>
<path d="M1 6.2503V9.7506C1 11.4006 1 12.2257 1.56961 12.7383C2.13923 13.2509 3.05601 13.2509 4.88956 13.2509M1.56961 3.2626C2.13923 2.75 3.05601 2.75 4.88956 2.75" stroke="#175AB6" stroke-linecap="round"/>
<path d="M3.33203 8.00015H10.3332M10.3332 8.00015L8.38846 9.7503M10.3332 8.00015L8.38846 6.25" stroke="#175AB6" stroke-linecap="round" stroke-linejoin="round"/>
</svg>
