<svg width="17" height="19" viewBox="0 0 17 19" fill="none" xmlns="http://www.w3.org/2000/svg">
<path d="M5.16406 13.0998C5.16406 15.4568 5.16406 16.6353 5.8963 17.3675C6.43071 17.9019 7.2029 18.0464 8.4974 18.0854M5.16406 6.4331C5.16406 4.07608 5.16406 2.89757 5.8963 2.16534C6.62853 1.43311 7.80706 1.43311 10.1641 1.43311H10.9974C13.3544 1.43311 14.5329 1.43311 15.2651 2.16534C15.9974 2.89757 15.9974 4.07608 15.9974 6.4331V8.09977V11.4331V13.0998C15.9974 15.4568 15.9974 16.6353 15.2651 17.3675C14.6248 18.0079 13.6432 18.0883 11.8307 18.0984" stroke="white" stroke-linecap="round"/>
<path d="M1 7.68327V11.8499C1 13.8141 1 14.7962 1.61019 15.4064C2.22039 16.0166 3.20248 16.0166 5.16667 16.0166M1.61019 4.12679C2.22039 3.5166 3.20248 3.5166 5.16667 3.5166" stroke="white" stroke-linecap="round"/>
<path d="M3.5 9.76644H11M11 9.76644L8.91667 11.8498M11 9.76644L8.91667 7.68311" stroke="white" stroke-linecap="round" stroke-linejoin="round"/>
</svg>
