<svg width="191" height="33" viewBox="0 0 191 33" fill="none" xmlns="http://www.w3.org/2000/svg">
<path d="M61.9334 24.3096C60.2964 25.9717 58.0632 26.9854 55.543 26.9854C50.4774 26.9854 46.8672 22.9075 46.8672 17.8158C46.8672 12.7503 50.4774 8.62012 55.543 8.62012C58.0622 8.62012 60.2703 9.63283 61.9073 11.2959L60.7119 12.4903C59.3871 11.1654 57.6206 10.3344 55.543 10.3344C51.4128 10.3344 48.5815 13.6596 48.5815 17.8158C48.5815 21.9459 51.4128 25.2701 55.543 25.2701C57.6206 25.2701 59.4132 24.4391 60.738 23.0881L61.9334 24.3096Z" fill="#0E1E2B"/>
<path d="M76.5043 26.7254H74.7639V24.6478C73.8545 26.1804 71.9586 26.9853 70.1921 26.9853C66.7375 26.9853 63.9844 24.4661 63.9844 20.621C63.9844 16.7769 66.7375 14.335 70.1921 14.335C71.9586 14.335 73.8545 15.0626 74.7639 16.5952V14.5949H76.5043V26.7254ZM70.1921 25.2439C72.6863 25.2439 74.7639 23.633 74.7639 20.62C74.7639 17.607 72.3741 16.0743 70.1921 16.0743C67.6729 16.0743 65.7248 17.8408 65.7248 20.62C65.7238 23.3219 67.6719 25.2439 70.1921 25.2439Z" fill="#0E1E2B"/>
<path d="M87.6985 16.4909C87.1014 16.2058 86.3737 16.0754 85.9321 16.0754C83.464 16.0754 82.4513 18.985 82.4513 22.2058V26.7254H80.7109V14.5939H82.4523V17.347C83.0495 15.2694 84.1666 14.334 85.9331 14.334C86.7641 14.334 87.6734 14.5939 87.9073 14.8017L87.6985 16.4909Z" fill="#0E1E2B"/>
<path d="M90.5039 9.18359H92.2443V16.5958C93.1536 15.0631 95.0496 14.3355 96.816 14.3355C100.271 14.3355 103.024 16.7774 103.024 20.6215C103.024 24.4656 100.271 26.9858 96.816 26.9858C95.0496 26.9858 93.1536 26.1809 92.2443 24.6483V26.7259H90.5039V9.18359ZM96.816 16.0758C94.634 16.0758 92.2443 17.6085 92.2443 20.6215C92.2443 23.6346 94.3219 25.2454 96.816 25.2454C99.3363 25.2454 101.283 23.3234 101.283 20.6215C101.283 17.8423 99.3363 16.0758 96.816 16.0758Z" fill="#0E1E2B"/>
<path d="M105.566 20.621C105.566 16.7769 108.45 14.335 111.905 14.335C115.359 14.335 118.243 16.7769 118.243 20.621C118.243 24.4651 115.359 26.9853 111.905 26.9853C108.45 26.9843 105.566 24.4651 105.566 20.621ZM116.529 20.621C116.529 17.8157 114.425 16.0492 111.905 16.0492C109.385 16.0492 107.281 17.8157 107.281 20.621C107.281 23.4263 109.384 25.27 111.905 25.27C114.424 25.27 116.529 23.4263 116.529 20.621Z" fill="#0E1E2B"/>
<path d="M123.361 26.7254H121.621V14.5939H123.361V16.5943C124.114 15.0095 125.985 14.334 127.387 14.334C130.374 14.334 132.088 16.3343 132.063 19.6585V26.7244H130.323V19.6585C130.323 17.3982 129.258 16.0483 127.388 16.0483C125.466 16.0483 123.362 17.1393 123.362 20.1001V26.7254H123.361Z" fill="#0E1E2B"/>
<path d="M151.439 23.3481C149.88 25.5562 147.283 26.9844 144.165 26.9844C139.074 26.9844 135.152 22.8543 135.152 17.8148C135.152 12.7493 139.075 8.61914 144.165 8.61914C147.205 8.61914 149.802 9.97009 151.361 12.1521L148.711 14.048C147.672 12.6971 146.061 11.7627 144.165 11.7627C140.918 11.7627 138.477 14.4907 138.477 17.8148C138.477 21.1651 140.918 23.8409 144.165 23.8409C146.114 23.8409 147.776 22.8794 148.815 21.4251L151.439 23.3481Z" fill="#0E1E2B"/>
<path d="M156.969 26.7254H153.801V14.5939H156.969V17.4514C157.593 15.2433 159.022 14.334 160.398 14.334C161.255 14.334 161.904 14.4896 162.398 14.7756L161.852 17.6331C161.1 17.2958 160.32 17.2958 160.009 17.2958C157.853 17.2958 156.969 19.2179 156.969 22.4387V26.7254Z" fill="#0E1E2B"/>
<path d="M176.117 21.712H166.869C167.077 23.348 168.428 24.3095 170.22 24.3095C171.441 24.3095 172.662 23.7896 173.259 22.7508C174.013 23.1663 174.87 23.6341 175.675 24.0496C174.558 26.1272 172.247 26.9843 170.013 26.9843C166.558 26.9843 163.727 24.439 163.727 20.62C163.727 16.7759 166.558 14.334 170.013 14.334C173.441 14.334 176.169 16.7759 176.169 20.62C176.169 20.9322 176.143 21.426 176.117 21.712ZM173.078 19.5561C172.844 17.894 171.597 16.9847 170.039 16.9847C168.377 16.9847 167.078 17.894 166.844 19.5561H173.078Z" fill="#0E1E2B"/>
<path d="M187.858 25.0886C187.156 26.3091 185.623 26.9846 184.039 26.9846C180.844 26.9846 178.09 24.5165 178.09 20.6724C178.09 16.8022 180.843 14.3342 184.039 14.3342C185.675 14.3342 187.156 14.9836 187.858 16.2041V9.15723H191V26.7256H187.858V25.0886ZM184.559 17.3482C182.792 17.3482 181.364 18.647 181.364 20.6212C181.364 22.6216 182.792 23.9464 184.559 23.9464C186.299 23.9464 187.805 22.6477 187.805 20.6212C187.805 18.5426 186.221 17.3482 184.559 17.3482Z" fill="#0E1E2B"/>
<path d="M31.568 0H18.9398H6.3125L12.6256 10.9361H25.2539H37.8812L31.568 0Z" fill="url(#paint0_linear_1291_21853)"/>
<path d="M18.9414 21.8721L12.6273 10.9361L6.31414 0L0 10.9361L6.31414 21.8721L12.6273 32.8082H25.2555L31.5697 21.8721H18.9414Z" fill="url(#paint1_linear_1291_21853)"/>
<path opacity="0.44" d="M10.6303 0H6.3125L12.6256 10.9361L10.6303 0Z" fill="#01153A"/>
<defs>
<linearGradient id="paint0_linear_1291_21853" x1="6.31222" y1="5.46815" x2="37.8816" y2="5.46815" gradientUnits="userSpaceOnUse">
<stop stop-color="#1C90E3"/>
<stop offset="1" stop-color="#165AB6"/>
</linearGradient>
<linearGradient id="paint1_linear_1291_21853" x1="0" y1="16.4041" x2="31.5694" y2="16.4041" gradientUnits="userSpaceOnUse">
<stop stop-color="#1C90E3"/>
<stop offset="1" stop-color="#165AB6"/>
</linearGradient>
</defs>
</svg>
