<svg width="16" height="17" viewBox="0 0 16 17" fill="none" xmlns="http://www.w3.org/2000/svg">
<path fill-rule="evenodd" clip-rule="evenodd" d="M11.6755 2.04939C10.7783 1.22189 9.5122 0.765625 8.0348 0.765625C6.55741 0.765625 5.29131 1.22189 4.39417 2.04939C3.49773 2.87624 3.00562 4.0405 3.00562 5.3972C3.00562 7.22373 3.88261 8.40099 4.96802 9.10769C5.17896 9.24495 5.39696 9.36411 5.61689 9.46685C4.4039 9.76908 3.419 10.296 2.61712 10.9495C1.34916 11.9829 0.563286 13.3124 0.0338225 14.5029C-0.062089 14.7186 0.0529528 14.9639 0.290791 15.0508C0.528619 15.1378 0.799164 15.0335 0.895075 14.8178C1.39903 13.6847 2.11877 12.4879 3.23787 11.5758C4.34572 10.673 5.86927 10.0288 8.0348 10.0288C10.0593 10.0288 11.5208 10.5917 12.6056 11.3996C13.6996 12.2143 14.4363 13.2975 14.9641 14.3683C15.3163 15.0828 14.6983 15.9235 13.7281 15.9235H3.01346C2.75702 15.9235 2.54913 16.1121 2.54913 16.3446C2.54913 16.5771 2.75702 16.7656 3.01346 16.7656H13.7281C15.2623 16.7656 16.4818 15.3836 15.812 14.0247C15.2516 12.8879 14.441 11.6767 13.1951 10.7489C12.4555 10.1981 11.5714 9.754 10.5127 9.482C11.0789 9.19813 11.5444 8.82137 11.9147 8.39434C12.7161 7.47047 13.064 6.32365 13.064 5.3972C13.064 4.0405 12.5719 2.87624 11.6755 2.04939ZM11.0133 2.63976C11.7145 3.28659 12.1354 4.2276 12.1354 5.3972C12.1354 6.15496 11.8442 7.11341 11.1848 7.87375C10.538 8.61952 9.52873 9.18668 8.0348 9.18668C7.43062 9.18668 6.38821 8.9956 5.50964 8.42356C4.65498 7.8671 3.93427 6.93912 3.93427 5.3972C3.93427 4.2276 4.35513 3.28659 5.0564 2.63976C5.75696 1.99357 6.77323 1.60773 8.0348 1.60773C9.29638 1.60773 10.3127 1.99357 11.0133 2.63976Z" fill="white"/>
</svg>
