<svg width="16" height="16" viewBox="0 0 16 16" fill="none" xmlns="http://www.w3.org/2000/svg">
<path fill-rule="evenodd" clip-rule="evenodd" d="M11.6755 1.28376C10.7783 0.456269 9.5122 0 8.0348 0C6.55741 0 5.29131 0.456269 4.39417 1.28376C3.49773 2.11062 3.00562 3.27487 3.00562 4.63158C3.00562 6.45811 3.88261 7.63537 4.96802 8.34206C5.17896 8.47933 5.39696 8.59848 5.61689 8.70122C4.4039 9.00345 3.419 9.53036 2.61712 10.1839C1.34916 11.2173 0.563286 12.5468 0.0338225 13.7373C-0.062089 13.9529 0.0529528 14.1982 0.290791 14.2852C0.528619 14.3722 0.799164 14.2679 0.895075 14.0522C1.39903 12.9191 2.11877 11.7223 3.23787 10.8102C4.34572 9.90737 5.86927 9.26316 8.0348 9.26316C10.0593 9.26316 11.5208 9.82611 12.6056 10.634C13.6996 11.4487 14.4363 12.5319 14.9641 13.6027C15.3163 14.3171 14.6983 15.1579 13.7281 15.1579H3.01346C2.75702 15.1579 2.54913 15.3464 2.54913 15.5789C2.54913 15.8115 2.75702 16 3.01346 16H13.7281C15.2623 16 16.4818 14.6179 15.812 13.2591C15.2516 12.1223 14.441 10.9111 13.1951 9.98324C12.4555 9.4325 11.5714 8.98838 10.5127 8.71638C11.0789 8.43251 11.5444 8.05575 11.9147 7.62872C12.7161 6.70484 13.064 5.55803 13.064 4.63158C13.064 3.27487 12.5719 2.11062 11.6755 1.28376ZM11.0133 1.87413C11.7145 2.52096 12.1354 3.46197 12.1354 4.63158C12.1354 5.38934 11.8442 6.34779 11.1848 7.10813C10.538 7.85389 9.52873 8.42105 8.0348 8.42105C7.43062 8.42105 6.38821 8.22998 5.50964 7.65794C4.65498 7.10147 3.93427 6.17349 3.93427 4.63158C3.93427 3.46197 4.35513 2.52096 5.0564 1.87413C5.75696 1.22794 6.77323 0.842105 8.0348 0.842105C9.29638 0.842105 10.3127 1.22794 11.0133 1.87413Z" fill="#175AB6"/>
</svg>
