<svg width="16" height="16" viewBox="0 0 16 16" fill="none" xmlns="http://www.w3.org/2000/svg">
<path d="M8.08277 8.46647C8.03298 8.45935 7.96895 8.45935 7.91204 8.46647C6.66001 8.42372 5.66406 7.39777 5.66406 6.13669C5.66406 4.84713 6.7027 3.7998 7.99741 3.7998C9.285 3.7998 10.3307 4.84713 10.3307 6.13669C10.3236 7.39777 9.3348 8.42372 8.08277 8.46647Z" stroke="#175AB6" stroke-linecap="round" stroke-linejoin="round"/>
<path d="M12.9016 13.0441C11.6075 14.2607 9.89177 14.9996 8.00156 14.9996C6.11136 14.9996 4.39563 14.2607 3.10156 13.0441C3.17426 12.3425 3.61047 11.6558 4.38836 11.1184C6.38035 9.76001 9.63732 9.76001 11.6148 11.1184C12.3927 11.6558 12.8289 12.3425 12.9016 13.0441Z" stroke="#175AB6" stroke-linecap="round" stroke-linejoin="round"/>
<path d="M8 15C11.866 15 15 11.866 15 8C15 4.134 11.866 1 8 1C4.134 1 1 4.134 1 8C1 11.866 4.134 15 8 15Z" stroke="#175AB6" stroke-linecap="round" stroke-linejoin="round"/>
</svg>
