<svg width="18" height="18" viewBox="0 0 18 18" fill="none" xmlns="http://www.w3.org/2000/svg">
<path d="M9.09627 9.29915C9.03936 9.29101 8.96619 9.29101 8.90115 9.29915C7.47026 9.2503 6.33203 8.07778 6.33203 6.63655C6.33203 5.16276 7.51904 3.96582 8.99871 3.96582C10.4702 3.96582 11.6654 5.16276 11.6654 6.63655C11.6572 8.07778 10.5272 9.2503 9.09627 9.29915Z" stroke="white" stroke-linecap="round" stroke-linejoin="round"/>
<path d="M14.6004 14.5306C13.1215 15.9211 11.1606 16.7655 9.00039 16.7655C6.84016 16.7655 4.87932 15.9211 3.40039 14.5306C3.48348 13.7288 3.98199 12.9441 4.87102 12.3299C7.14758 10.7774 10.8698 10.7774 13.1298 12.3299C14.0188 12.9441 14.5173 13.7288 14.6004 14.5306Z" stroke="white" stroke-linecap="round" stroke-linejoin="round"/>
<path d="M9 16.7656C13.4182 16.7656 17 13.1839 17 8.76563C17 4.34735 13.4182 0.765625 9 0.765625C4.58172 0.765625 1 4.34735 1 8.76563C1 13.1839 4.58172 16.7656 9 16.7656Z" stroke="white" stroke-linecap="round" stroke-linejoin="round"/>
</svg>
