<svg width="14" height="14" viewBox="0 0 14 14" fill="none" xmlns="http://www.w3.org/2000/svg">
<path fill-rule="evenodd" clip-rule="evenodd" d="M0.736842 1.46948C0.736842 1.06275 1.06822 0.733403 1.47612 0.734748L12.5287 0.771088C12.9347 0.772425 13.2632 1.10099 13.2632 1.50583V9.95893C13.2632 10.3647 12.9333 10.6937 12.5263 10.6937H9.57895C9.48124 10.6937 9.38752 10.7324 9.3184 10.8013L7 13.1131L4.68156 10.8013C4.61247 10.7324 4.51876 10.6937 4.42105 10.6937H1.47368C1.06674 10.6937 0.736842 10.3647 0.736842 9.95893V1.46948ZM1.47854 8.16001e-06C0.662753 -0.00267364 0 0.656021 0 1.46948V9.95893C0 10.7705 0.659791 11.4284 1.47368 11.4284H4.26845L6.73945 13.8924C6.88336 14.0359 7.11664 14.0359 7.26055 13.8924L9.73155 11.4284H12.5263C13.3402 11.4284 14 10.7705 14 9.95893V1.50583C14 0.696145 13.3432 0.0390228 12.5312 0.0363557L1.47854 8.16001e-06Z" fill="#175AB6"/>
<path fill-rule="evenodd" clip-rule="evenodd" d="M7.27344 2.67578C6.63919 2.67578 6.125 3.18995 6.125 3.82422C6.125 4.45849 6.63919 4.97266 7.27344 4.97266C7.90768 4.97266 8.42188 4.45849 8.42188 3.82422C8.42188 3.18995 7.90768 2.67578 7.27344 2.67578ZM5.35938 3.82422C5.35938 2.76711 6.21634 1.91016 7.27344 1.91016C8.33054 1.91016 9.1875 2.76711 9.1875 3.82422C9.1875 4.88132 8.33054 5.73828 7.27344 5.73828C6.21634 5.73828 5.35938 4.88132 5.35938 3.82422Z" fill="#175AB6"/>
<path fill-rule="evenodd" clip-rule="evenodd" d="M4.62088 9.56641H9.92602C9.7402 8.26783 8.62339 7.26953 7.27344 7.26953C5.92349 7.26953 4.80664 8.26783 4.62088 9.56641ZM3.82812 9.94922C3.82812 8.04641 5.37064 6.50391 7.27344 6.50391C9.17625 6.50391 10.7188 8.04641 10.7188 9.94922C10.7188 10.1606 10.5473 10.332 10.3359 10.332H4.21094C3.99952 10.332 3.82812 10.1606 3.82812 9.94922Z" fill="#175AB6"/>
</svg>
