<svg width="16" height="17" viewBox="0 0 16 17" fill="none" xmlns="http://www.w3.org/2000/svg">
<path fill-rule="evenodd" clip-rule="evenodd" d="M0.842105 2.44503C0.842105 1.9802 1.22083 1.6038 1.68699 1.60534L14.3186 1.64687C14.7826 1.6484 15.1579 2.0239 15.1579 2.48657V12.1473C15.1579 12.611 14.7809 12.987 14.3158 12.987H10.9474C10.8357 12.987 10.7286 13.0312 10.6496 13.11L8 15.752L5.35036 13.11C5.27139 13.0312 5.1643 12.987 5.05263 12.987H1.68421C1.21913 12.987 0.842105 12.611 0.842105 12.1473V2.44503ZM1.68976 0.765634C0.757432 0.762569 0 1.51536 0 2.44503V12.1473C0 13.0748 0.754046 13.8267 1.68421 13.8267H4.87822L7.70223 16.6427C7.8667 16.8066 8.1333 16.8066 8.29777 16.6427L11.1218 13.8267H14.3158C15.246 13.8267 16 13.0748 16 12.1473V2.48657C16 1.56122 15.2493 0.810222 14.3213 0.807174L1.68976 0.765634Z" fill="white"/>
<path fill-rule="evenodd" clip-rule="evenodd" d="M8.3125 3.82373C7.58765 3.82373 7 4.41135 7 5.13623C7 5.86111 7.58765 6.44873 8.3125 6.44873C9.03735 6.44873 9.625 5.86111 9.625 5.13623C9.625 4.41135 9.03735 3.82373 8.3125 3.82373ZM6.125 5.13623C6.125 3.92811 7.10439 2.94873 8.3125 2.94873C9.52061 2.94873 10.5 3.92811 10.5 5.13623C10.5 6.34435 9.52061 7.32373 8.3125 7.32373C7.10439 7.32373 6.125 6.34435 6.125 5.13623Z" fill="white"/>
<path fill-rule="evenodd" clip-rule="evenodd" d="M5.28101 11.6987H11.344C11.1317 10.2146 9.8553 9.07373 8.3125 9.07373C6.7697 9.07373 5.4933 10.2146 5.28101 11.6987ZM4.375 12.1362C4.375 9.96159 6.13788 8.19873 8.3125 8.19873C10.4871 8.19873 12.25 9.96159 12.25 12.1362C12.25 12.3778 12.0541 12.5737 11.8125 12.5737H4.8125C4.57088 12.5737 4.375 12.3778 4.375 12.1362Z" fill="white"/>
</svg>
