<svg width="16" height="16" viewBox="0 0 16 16" fill="none" xmlns="http://www.w3.org/2000/svg">
<path d="M10.1409 1.67875C10.283 1.66019 10.428 1.65091 10.5726 1.65091C10.6116 1.65091 10.6512 1.65141 10.6903 1.65334H10.6956C10.7801 1.65334 10.85 1.58597 10.8529 1.501C10.8558 1.41409 10.7879 1.34084 10.701 1.33791H10.6849H10.6829L10.681 1.33741H10.6795H10.6785H10.6761H10.6756H10.6741C10.6507 1.33691 10.6272 1.33594 10.6038 1.33594H10.5999H10.5994H10.5979H10.5955H10.595H10.594H10.5931H10.5921H10.5911H10.5902H10.5892H10.5882H10.5873H10.5863H10.5853H10.5844H10.5829H10.5824H10.5814H10.5805H10.5784H10.5765H10.5745H10.5725H10.5705H10.5691H10.5686H10.5676H10.5666H10.5652H10.5647H10.5632H10.5628H10.5618H10.5609H10.5599H10.5594H10.5579H10.5574H10.556H10.555H10.554H10.5535H10.552H10.5501H10.5481H10.5466H10.5461H10.5452H10.5442H10.5427H10.5422H10.5408H10.5403H10.5393H10.5383H10.5374H10.5369H10.5354H10.5349H10.5334H10.5325H10.5315H10.531H10.5296H10.5281H10.5276H10.5256H10.5242H10.5237H10.5227H10.5217H10.5208H10.5203L10.5188 1.33644H10.5178H10.5169H10.5159H10.515H10.5145H10.513H10.511H10.5105H10.509H10.5085H10.5076H10.5071H10.5056H10.5051H10.5036H10.5031H10.5022H10.5012L10.5003 1.33694H10.4993H10.4984H10.4979H10.4964H10.4954H10.4945H10.4935H10.4925H10.492H10.4905H10.4886H10.4866H10.4851H10.4847H10.4832H10.4827H10.4807H10.4798H10.4788H10.4778H10.4769H10.4759H10.4754L10.4739 1.33744H10.473H10.472H10.4715H10.47H10.4685H10.468H10.4661H10.4641H10.4631L10.4622 1.33794H10.4612H10.4602H10.4588H10.4583H10.4573H10.4563H10.4554H10.4549H10.4534H10.4515H10.4505H10.4495H10.449H10.448H10.4475H10.4466H10.4456H10.4441H10.4436L10.4427 1.33844H10.4417H10.4407H10.4398H10.4388H10.4383H10.4368H10.4359H10.4349L10.4344 1.33894H10.4329H10.431H10.429H10.427H10.426H10.4251H10.4241H10.4231H10.4217H10.4212H10.4202H10.4192L10.4183 1.33944H10.4178H10.4163H10.4143H10.4124H10.4104H10.4089H10.4084H10.4065H10.4051H10.4046L10.4036 1.33994H10.4026H10.4017H10.4012H10.3997H10.3992H10.3977H10.3972H10.3958H10.3938H10.3918L10.3904 1.34044H10.3899H10.3884H10.3879H10.3869H10.386L10.383 1.34094H10.3825H10.381H10.3791H10.3753H10.3733L10.3719 1.34144H10.3714H10.3684H10.3675L10.3665 1.34194H10.366H10.3645H10.3606H10.3586H10.3567L10.3533 1.34244H10.3528H10.3518H10.3508L10.3499 1.34294H10.346H10.344H10.3421L10.3382 1.34344H10.3367H10.3362L10.3314 1.34378H10.3309H10.3294H10.3274L10.3235 1.34428H10.322H10.3215L10.3147 1.34478C10.2424 1.34966 10.1711 1.357 10.1008 1.36578C10.0149 1.37653 9.95336 1.45563 9.96411 1.54206C9.97486 1.62166 10.0422 1.67975 10.1204 1.67975L10.1409 1.67875Z" fill="#175AB6"/>
<path d="M9.04061 1.68262C9.01717 1.68262 8.99423 1.68749 8.97223 1.69824C8.91851 1.72412 8.8658 1.75099 8.81401 1.7793L8.80423 1.78418L8.80226 1.78515L8.79933 1.78662V1.78712L8.79786 1.78762H8.79745L8.79452 1.78959L8.79305 1.79055H8.79255L8.79158 1.79105V1.79155L8.78961 1.79252L8.78864 1.79302H8.78767L8.7867 1.79399L8.78473 1.79496L8.78377 1.79593H8.7828L8.78183 1.79637V1.79687L8.77986 1.79737V1.79787L8.77889 1.79837L8.77792 1.79887H8.77695L8.77645 1.79937L8.77595 1.79987L8.77448 1.80084H8.77398L8.77301 1.8018H8.77251L8.77155 1.8023L8.77105 1.8028L8.76958 1.8033L8.76908 1.8038L8.76811 1.8043L8.76761 1.8048H8.76711L8.76614 1.8053L8.76417 1.80677L8.7632 1.80727H8.7627L8.76173 1.80777H8.76123L8.7583 1.80974L8.75683 1.81071L8.75351 1.81249L8.75205 1.81346H8.75155L8.74714 1.8159C8.68317 1.85202 8.62117 1.88962 8.56014 1.92968C8.48689 1.97705 8.46639 2.07421 8.51376 2.14746C8.54355 2.19384 8.59433 2.21924 8.64608 2.21924C8.67539 2.21924 8.70517 2.21093 8.73152 2.19384C8.85211 2.11571 8.97908 2.0449 9.10895 1.9824C9.18708 1.9448 9.2203 1.85055 9.18267 1.77243C9.15586 1.7158 9.0992 1.68262 9.04061 1.68262Z" fill="#175AB6"/>
<path d="M11.9532 1.60207L11.9503 1.60061H11.9498L11.9483 1.60011L11.9434 1.59814L11.9381 1.5957H11.9376C11.9102 1.58495 11.8829 1.5742 11.8546 1.56445C11.837 1.55761 11.8184 1.5542 11.7999 1.5542C11.7364 1.5542 11.6759 1.59376 11.6524 1.65723C11.6221 1.73926 11.6641 1.82961 11.7457 1.85986C11.8799 1.90967 12.0128 1.96826 12.1407 2.03514C12.1636 2.04686 12.1885 2.05273 12.213 2.05273C12.2701 2.05273 12.3253 2.02245 12.3531 1.96826C12.3936 1.89161 12.3634 1.79589 12.2862 1.75586C12.191 1.70604 12.0928 1.66014 11.9927 1.61817L11.9874 1.6162L11.9859 1.61523L11.9825 1.61426L11.9805 1.61329L11.9776 1.61182L11.9756 1.61132L11.9707 1.60936L11.9659 1.60692H11.9649L11.9639 1.60642L11.96 1.60495L11.9585 1.60445H11.958L11.9551 1.60298V1.60248L11.9532 1.60207Z" fill="#175AB6"/>
<path d="M6.58721 10.8979C6.40803 10.7427 6.14337 10.6499 5.79328 10.6191L5.32159 10.5781C5.15312 10.5615 5.034 10.5214 4.96271 10.4594C4.89143 10.3974 4.85628 10.309 4.85628 10.1938C4.85628 10.0649 4.90609 9.96139 5.00568 9.88132C5.10531 9.80173 5.25959 9.7617 5.46759 9.7617C5.62725 9.7617 5.77862 9.78073 5.92268 9.81836C6.06721 9.85548 6.23421 9.97461 6.23421 9.97461C6.27231 9.99464 6.31868 9.98632 6.34846 9.95604L6.63068 9.66992C6.65265 9.64745 6.6629 9.6167 6.65803 9.58545C6.65315 9.5547 6.63459 9.52832 6.60675 9.51367C6.60675 9.51367 6.38556 9.34032 6.17509 9.2832C6.05156 9.24901 5.91778 9.22704 5.77812 9.21289V8.78857H5.17803V9.22167C5.11015 9.23242 5.04278 9.24511 4.97931 9.26367C4.82646 9.30761 4.69218 9.37401 4.57696 9.46289C4.46221 9.55079 4.3714 9.65967 4.3045 9.78807C4.23809 9.91648 4.20487 10.063 4.20487 10.227C4.20487 10.5234 4.29081 10.7451 4.46465 10.8916C4.63703 11.0371 4.88262 11.126 5.20196 11.1572L5.74006 11.2031C5.90412 11.2217 6.02034 11.2632 6.08868 11.3296C6.15803 11.3965 6.19171 11.4873 6.19171 11.6021C6.19171 11.7622 6.12237 11.8789 5.98271 11.9551C5.84356 12.0303 5.66681 12.0674 5.4544 12.0674C5.28593 12.0674 5.117 12.044 4.94609 11.9981C4.77568 11.9512 4.55059 11.7559 4.55059 11.7559C4.51153 11.7324 4.46171 11.7383 4.429 11.7705L4.12871 12.0708C4.10721 12.0923 4.0965 12.1226 4.1004 12.1529C4.10431 12.1831 4.1219 12.21 4.14825 12.2256C4.14825 12.2256 4.45537 12.4849 4.69025 12.5493C4.84456 12.5913 5.00715 12.6182 5.17803 12.6328V13.125H5.77812V12.6226C5.85821 12.6118 5.93731 12.5986 6.0125 12.5796C6.18534 12.5347 6.33378 12.4673 6.45781 12.376C6.58134 12.2856 6.6795 12.1738 6.75028 12.041C6.82106 11.9082 6.85625 11.7534 6.85625 11.5752C6.85625 11.2788 6.7674 11.0532 6.58721 10.8979Z" fill="#175AB6"/>
<path d="M5.47852 5.91406C2.69336 5.91406 0.435547 8.17188 0.435547 10.957C0.435547 13.7422 2.69336 16 5.47852 16C8.26367 16 10.5215 13.7422 10.5215 10.957C10.5215 8.17188 8.26367 5.91406 5.47852 5.91406ZM5.47852 15.2119C3.13183 15.2119 1.22364 13.3032 1.22364 10.957C1.22364 8.61084 3.13186 6.70216 5.47852 6.70216C7.82423 6.70216 9.73339 8.61084 9.73339 10.957C9.73339 13.3032 7.8242 15.2119 5.47852 15.2119Z" fill="#175AB6"/>
<path d="M5.02671 7.59378L5.04721 7.59231C5.18881 7.57425 5.33434 7.56497 5.47887 7.56497C5.51793 7.56497 5.55699 7.56547 5.59606 7.56741H5.60193C5.6864 7.56741 5.75624 7.50003 5.75915 7.41506C5.76209 7.32816 5.69371 7.25491 5.60681 7.25197H5.59118H5.58921L5.58724 7.25147H5.58674H5.58527H5.58477H5.58427H5.58184H5.58037C5.55693 7.25097 5.53349 7.25 5.51006 7.25H5.50615H5.50518H5.50421H5.50371H5.50127H5.50034H5.49937H5.4984H5.49743H5.49646H5.49499H5.49449H5.49352H5.49256H5.49109H5.49059H5.48862H5.48715H5.48665H5.48471H5.48274H5.48224H5.48077H5.47881H5.47684H5.47487H5.4734H5.4729H5.47143H5.47093H5.46909H5.46812H5.46715H5.46618H5.46521H5.46424H5.46327H5.46231H5.46134H5.46037H5.4594H5.45843H5.45793H5.45646H5.45449H5.45399H5.45252H5.45106H5.45056H5.44909H5.44859H5.44662H5.44565H5.44468H5.44371H5.44274H5.44177H5.44081H5.43984H5.43887H5.43784H5.43687H5.4359H5.4354H5.43393H5.43196H5.43146H5.42999H5.42852H5.42802H5.42656H5.42606L5.42459 7.2505H5.42409H5.42312H5.42221H5.42124H5.42027H5.41931H5.41881H5.41734H5.41637H5.4154H5.4149H5.41343H5.41146H5.40949H5.40802H5.40752L5.40606 7.251H5.40556H5.40409H5.40359H5.40212H5.40162H5.40065H5.39968H5.39871H5.39821H5.39674H5.39477H5.39427H5.39281H5.39231H5.39096H5.38949H5.38899H5.38702H5.38556H5.38506H5.38359H5.38309H5.38212H5.38115L5.38018 7.2515H5.37921H5.37824H5.37727H5.37631H5.37581H5.37434H5.37237H5.3704H5.36893L5.36843 7.252H5.36696H5.36646H5.36449H5.36352H5.36256H5.36159H5.36062H5.35971H5.35921H5.35774H5.35677H5.35581H5.35531H5.35384H5.35237H5.35187H5.3499H5.3494L5.34843 7.2525H5.34793H5.34646H5.34596H5.34499H5.34409H5.34312H5.34215H5.34118L5.34021 7.253H5.33924H5.33874H5.33727H5.33531H5.33334H5.33187H5.33137H5.3299H5.3294H5.32743H5.32646H5.32549L5.32452 7.2535H5.32356H5.32259H5.32209H5.32062H5.32012H5.31865H5.31815H5.31668H5.31471H5.31284H5.31087L5.3099 7.254H5.30893H5.30796H5.30746H5.30549H5.30499H5.30402H5.30306H5.30209H5.30159H5.30012H5.29815L5.29618 7.2545H5.29421H5.29274H5.29224L5.28884 7.255H5.28834H5.28737H5.28687H5.2854H5.28159H5.27962L5.27765 7.2555H5.27424H5.27374L5.27277 7.256H5.27181H5.27084H5.27034H5.26693H5.26643H5.26496H5.26299L5.25909 7.2565H5.25762H5.25712L5.25615 7.257H5.25565H5.25224H5.25174H5.25034H5.24837L5.24446 7.2575H5.24249L5.23712 7.258H5.23565H5.23515H5.23368L5.22977 7.2585H5.22781L5.22096 7.259H5.22046C5.14868 7.26388 5.0774 7.27072 5.00709 7.28C4.92065 7.29075 4.85962 7.36984 4.87037 7.45628C4.88071 7.53569 4.94859 7.59378 5.02671 7.59378Z" fill="#175AB6"/>
<path d="M4.08864 7.68652C4.06179 7.62987 4.00564 7.59668 3.94654 7.59668C3.92361 7.59668 3.90064 7.60155 3.87867 7.6123C3.82495 7.63818 3.77223 7.66506 3.72045 7.69337L3.71067 7.69824L3.7087 7.69921L3.70576 7.70068V7.70118L3.70379 7.70168L3.70086 7.70365L3.69939 7.70462H3.69889L3.69792 7.70512L3.69742 7.70562L3.69595 7.70612L3.69448 7.70709H3.69398L3.69301 7.70806H3.69251L3.69104 7.70902H3.69054L3.68957 7.70999H3.68907L3.68823 7.71043L3.68773 7.71093L3.68626 7.71143L3.68576 7.71193L3.68479 7.71243L3.68429 7.71293H3.68332L3.68282 7.71343L3.68186 7.71393L3.68039 7.7149L3.67942 7.71587H3.67845L3.67748 7.71637V7.71687L3.67551 7.71737V7.71787L3.67454 7.71837L3.67357 7.71874H3.67307L3.67257 7.71924L3.67061 7.72071L3.66964 7.72121H3.66867L3.6677 7.72171L3.66476 7.72368H3.66426L3.66279 7.72465L3.65939 7.72662L3.65792 7.72759L3.65304 7.73002C3.58957 7.76615 3.52707 7.80374 3.46604 7.84381C3.39329 7.89118 3.37279 7.98834 3.41967 8.06159C3.44995 8.10796 3.50073 8.13337 3.55248 8.13337C3.58179 8.13337 3.61107 8.12505 3.63745 8.10796C3.75854 8.02984 3.88551 7.95902 4.01489 7.89652C4.09351 7.85887 4.1267 7.76465 4.08864 7.68652Z" fill="#175AB6"/>
<path d="M4.35861 14.1602C4.22286 14.1123 4.08908 14.0557 3.96068 13.9917C3.93774 13.9805 3.9138 13.9751 3.88986 13.9751C3.83224 13.9751 3.77658 14.0068 3.74924 14.0615C3.71018 14.1397 3.74143 14.2344 3.81955 14.2734C3.8674 14.2978 3.91624 14.3208 3.96605 14.3428L3.97093 14.3448L3.9758 14.3472V14.3477L3.97777 14.3482L3.97924 14.3487L3.97974 14.3492H3.98071L3.98121 14.3497L3.98268 14.3502L3.98465 14.3512L3.98561 14.3517H3.98658L3.98755 14.3526L3.98952 14.3536L3.99099 14.3541H3.99149L3.99246 14.3546L3.99296 14.3551L3.99443 14.3556L3.99639 14.3561V14.3566H3.99736L3.99833 14.3571L3.9993 14.3576H3.9998L4.00127 14.3586H4.00177L4.00274 14.3591L4.00324 14.3596L4.00421 14.3601H4.00518L4.00568 14.3606L4.00715 14.3611L4.00764 14.3616H4.00861L4.00911 14.3621L4.01008 14.3626H4.01058L4.01205 14.3635H4.01302L4.01399 14.364L4.01449 14.3645H4.01499L4.01596 14.365L4.01793 14.3655V14.366H4.0189L4.01986 14.3665H4.02036L4.02086 14.367L4.0238 14.3685H4.02477L4.02574 14.369V14.3695L4.02915 14.371H4.02965L4.03061 14.3715H4.03111L4.03208 14.372H4.03258L4.03455 14.3729L4.03552 14.3734H4.03649L4.03746 14.3744L4.04136 14.3759L4.04233 14.3764H4.04283L4.04624 14.3778L4.04821 14.3783L4.05161 14.3803H4.05211L4.05308 14.3808L4.05699 14.3823L4.05796 14.3828H4.05846L4.06333 14.3852H4.06383L4.06871 14.3872L4.06968 14.3882H4.07018L4.07358 14.3891H4.07408L4.07505 14.3901H4.07555L4.07946 14.3916L4.08043 14.3921L4.0814 14.393H4.0819L4.0858 14.3945H4.08727L4.09118 14.3965L4.09215 14.397L4.09605 14.3984L4.09702 14.3989H4.09799L4.10139 14.4004L4.10286 14.4009L4.10677 14.4029H4.10774L4.10824 14.4034L4.10921 14.4039H4.10971L4.11265 14.4053L4.11361 14.4058H4.11458V14.4063L4.11799 14.4073L4.11849 14.4078H4.11946H4.12043L4.12139 14.4088L4.12336 14.4093L4.12386 14.4098H4.12483L4.12533 14.4103L4.1263 14.4108H4.12727L4.12824 14.4113L4.12921 14.4118H4.13018L4.13068 14.4123L4.13118 14.4128H4.13215L4.13361 14.4138H4.13411L4.13508 14.4143H4.13605L4.13702 14.4148H4.13752L4.13802 14.4153L4.13949 14.4158L4.13999 14.4163L4.14096 14.4168H4.14193L4.1429 14.4173H4.1434L4.14486 14.4178H4.14536L4.14683 14.4187L4.1478 14.4192H4.14877L4.14974 14.4197L4.15071 14.4202L4.15168 14.4207H4.15218L4.15315 14.4212L4.15364 14.4217L4.15561 14.4222L4.15658 14.4227H4.15755L4.15852 14.4232H4.15902L4.16049 14.4237L4.16246 14.4247L4.16393 14.4252L4.16443 14.4257L4.1654 14.4262L4.16736 14.4267L4.16933 14.4277L4.1708 14.4282H4.1713L4.17424 14.4291L4.17621 14.4296C4.20258 14.4399 4.22846 14.4492 4.25483 14.4584C4.27193 14.4643 4.28949 14.4677 4.30708 14.4677C4.37155 14.4677 4.43305 14.4267 4.45552 14.3613C4.48411 14.2783 4.44065 14.1885 4.35861 14.1602Z" fill="#175AB6"/>
<path d="M2.79908 13.0386C2.76833 12.9985 2.72192 12.9775 2.67505 12.9775C2.64086 12.9775 2.60717 12.9888 2.57836 13.0108C2.50998 13.0645 2.4973 13.1631 2.55051 13.2319C2.57933 13.2686 2.60861 13.3047 2.63842 13.3408L2.64086 13.3438L2.64183 13.3447L2.64476 13.3477V13.3482L2.64573 13.3487V13.3496L2.6467 13.3501V13.3506L2.64767 13.3521L2.64864 13.3526V13.3536L2.64961 13.3541V13.3546L2.65058 13.3555L2.65155 13.356L2.65205 13.3565L2.65255 13.3575L2.65305 13.3585H2.65355L2.65451 13.3599L2.65551 13.3609L2.65601 13.3614L2.65651 13.3623L2.65748 13.3628L2.65845 13.3643L2.65942 13.3653L2.66039 13.3662L2.66089 13.3667L2.66286 13.3697L2.66336 13.3702L2.66433 13.3707V13.3712L2.6663 13.3741L2.6682 13.375C2.7307 13.4483 2.79614 13.5181 2.86401 13.5859C2.89476 13.6162 2.93483 13.6319 2.97486 13.6319C3.01589 13.6319 3.05592 13.6162 3.08717 13.5855C3.1487 13.5235 3.14773 13.4239 3.0862 13.3623C2.98461 13.2608 2.88795 13.1519 2.79908 13.0386Z" fill="#175AB6"/>
<path d="M1.94909 10.7446C2.02868 10.7446 2.09703 10.6846 2.10534 10.6035C2.11999 10.46 2.1444 10.3169 2.17762 10.1768C2.19715 10.0923 2.1444 10.0078 2.05993 9.98781L2.02331 9.9834C1.95203 9.9834 1.88756 10.0322 1.87046 10.105C1.83481 10.2568 1.80846 10.4126 1.79184 10.5713C1.78306 10.6572 1.84556 10.7354 1.93246 10.7441L1.94909 10.7446Z" fill="#175AB6"/>
<path d="M2.83681 8.8291C2.8915 8.76172 2.88075 8.6621 2.81288 8.60741C2.78406 8.58397 2.74891 8.57275 2.71375 8.57275C2.66785 8.57275 2.62294 8.59279 2.59169 8.63085C2.56581 8.66307 2.54091 8.69532 2.516 8.728L2.51356 8.73141L2.5126 8.73238L2.50966 8.73678H2.50916L2.50575 8.74119L2.50281 8.7456L2.49941 8.75V8.7505L2.49306 8.75928C2.45106 8.81544 2.41103 8.87307 2.37294 8.93213H2.37244L2.3695 8.93653V8.93703L2.369 8.938L2.36703 8.93997V8.94047L2.36653 8.94144L2.36603 8.94241V8.94291L2.36406 8.94488L2.36356 8.94585L2.36306 8.94635V8.94732H2.3621L2.36113 8.94929V8.94979L2.36063 8.95028L2.36013 8.95125L2.35963 8.95175L2.35913 8.95272L2.35863 8.95322L2.35813 8.95469L2.35763 8.95519L2.35713 8.95569L2.35663 8.95619L2.35613 8.95716L2.35563 8.95813L2.35513 8.9591L2.35463 8.9596L2.35413 8.96057L2.35363 8.96107L2.35313 8.96204L2.35263 8.96253L2.35213 8.964H2.35163L2.35113 8.96547L2.35063 8.96597L2.35013 8.96694H2.34963L2.34766 8.97035C2.33741 8.98597 2.32763 9.0016 2.31835 9.01722C2.27294 9.09144 2.29541 9.1886 2.36963 9.23404C2.3955 9.25016 2.42431 9.25747 2.45263 9.25747C2.50538 9.25747 2.55713 9.2311 2.58641 9.18229C2.66203 9.06007 2.746 8.94141 2.83681 8.8291Z" fill="#175AB6"/>
<path d="M2.1633 11.6797C2.14718 11.6055 2.08177 11.5557 2.00949 11.5557L1.9758 11.5586C1.89083 11.5772 1.83664 11.6611 1.85521 11.7461C1.88889 11.9014 1.93236 12.0532 1.98508 12.2012C2.00802 12.2652 2.06858 12.3057 2.13352 12.3057C2.15111 12.3057 2.16868 12.3023 2.18627 12.2964C2.2683 12.2671 2.31077 12.1768 2.28199 12.0948C2.23361 11.9595 2.19408 11.8198 2.1633 11.6797Z" fill="#175AB6"/>
<path d="M7.35309 13.8135C7.32427 13.8135 7.29546 13.8213 7.26909 13.8379C7.14749 13.9136 7.01909 13.9824 6.88921 14.0425C6.81012 14.0786 6.77496 14.1724 6.81109 14.2515C6.83746 14.3091 6.89509 14.3433 6.95465 14.3433C6.97662 14.3433 6.99859 14.3389 7.02009 14.3291C7.10699 14.2891 7.19246 14.2461 7.27596 14.1997L7.27743 14.1988H7.27793L7.28087 14.1968L7.28234 14.1958H7.28284L7.28577 14.1944L7.28674 14.1934H7.28771L7.28868 14.1924L7.29065 14.1914L7.29162 14.1909L7.29259 14.1904L7.29356 14.1899V14.1894L7.29552 14.1889V14.1884L7.29649 14.1879L7.29746 14.1874L7.29796 14.1869L7.29846 14.1864L7.29993 14.1859L7.30043 14.1854L7.3014 14.1849H7.30237L7.30287 14.1844L7.30337 14.1839L7.30434 14.1834L7.30581 14.1825H7.30631L7.30727 14.182V14.1815L7.30824 14.181H7.30874L7.31118 14.1795L7.31215 14.179L7.31312 14.1785H7.31362L7.31702 14.1761L7.31799 14.1756C7.35802 14.1526 7.39759 14.1287 7.43665 14.1048C7.51037 14.0584 7.53284 13.9617 7.48693 13.8875C7.45659 13.8404 7.40531 13.8135 7.35309 13.8135Z" fill="#175AB6"/>
<path d="M8.55661 12.7334C8.53024 12.7168 8.50095 12.709 8.47164 12.709C8.41989 12.709 8.36911 12.7344 8.33883 12.7813C8.26167 12.9024 8.17574 13.02 8.08345 13.1299C8.0278 13.1968 8.03658 13.2964 8.10349 13.352C8.1328 13.377 8.16892 13.3887 8.20408 13.3887C8.24949 13.3887 8.29392 13.3696 8.32517 13.332C8.4072 13.2349 8.48339 13.1328 8.55467 13.0268L8.55564 13.0254H8.55614L8.55761 13.0224L8.55811 13.0219L8.55908 13.0205L8.56005 13.0195L8.56102 13.0175H8.56152L8.56202 13.0165L8.56252 13.0156L8.56302 13.0146H8.56345L8.56442 13.0131V13.0126L8.56539 13.0117V13.0112L8.56636 13.0102V13.0097L8.56733 13.0087V13.0082L8.5683 13.0073V13.0068L8.56927 13.0058V13.0048L8.57024 13.0039L8.57074 13.0034L8.57124 13.0029V13.0019L8.5722 13.0014L8.57417 12.998L8.57467 12.997H8.57517L8.57714 12.9936V12.9931L8.57811 12.9921L8.58105 12.9877V12.9872L8.60448 12.9511C8.65136 12.8779 8.62986 12.7803 8.55661 12.7334Z" fill="#175AB6"/>
<path d="M8.95954 10.4189L8.99029 10.416C9.07573 10.3989 9.13092 10.3164 9.11432 10.2304L9.11042 10.2114V10.2109V10.2099H9.10992L9.10942 10.206V10.2055L9.10892 10.2046V10.2041L9.10842 10.2001L9.10792 10.1996L9.10742 10.1987V10.1982V10.1972V10.1967L9.10692 10.1943L9.10642 10.1933V10.1928V10.1918L9.10592 10.1909V10.1904L9.10542 10.1889V10.1879V10.1875V10.1865L9.10492 10.1856L9.10442 10.1846V10.1836V10.1826L9.10392 10.1817V10.1807L9.10342 10.1797V10.1792V10.1783V10.1778L9.10245 10.1763V10.1758V10.1743V10.1738V10.1729L9.10195 10.1719L9.10145 10.1704V10.169V10.1685L9.10095 10.167L9.10045 10.1665V10.165L9.09995 10.1631L9.09945 10.1616V10.1611V10.1596L9.0987 10.1562V10.1557L9.0982 10.1543V10.1538L9.09673 10.1484V10.1469L9.09576 10.143L9.09526 10.1416L9.09382 10.1362V10.1357L9.09285 10.1289H9.09235C9.07429 10.0478 9.05279 9.96774 9.02935 9.88962L9.02739 9.88231L9.02398 9.87206V9.87156L9.02201 9.86521H9.02151L9.02054 9.85984V9.85937L9.01957 9.8579L9.0181 9.85252L9.01664 9.84765V9.84715L9.01567 9.84568L9.0147 9.84227V9.84177L9.0142 9.84031L9.0137 9.8398L9.0132 9.83687H9.0127V9.8349L9.01173 9.83343V9.83293V9.83146L9.01076 9.82999V9.82949L9.01026 9.82802V9.82752L9.00976 9.82605L9.00879 9.82459V9.82409V9.82312V9.82215L9.00782 9.82118V9.82068L9.00732 9.81921L9.00682 9.81774V9.81724V9.81577L9.00585 9.81527V9.81431V9.8138L9.00495 9.81249V9.81199V9.81052L9.00445 9.81002L9.00395 9.80906V9.80855V9.80709L9.00298 9.80659V9.80562V9.80465L9.00248 9.80368L9.00198 9.80318V9.80268L9.00148 9.80121L9.00098 9.80024V9.79974V9.79877L9.00048 9.7978L9.00007 9.79737V9.7964V9.79543L8.9991 9.79396V9.79346V9.79249L8.9986 9.79199L8.9981 9.79102V9.79052L8.9976 9.78905L8.9971 9.78809V9.78712V9.78662L8.9966 9.78612L8.9961 9.78515L8.99514 9.78174V9.78124L8.99464 9.78027H8.99414V9.7793V9.77834L8.99317 9.77637V9.77587V9.7749L8.9922 9.77393C8.97023 9.70802 8.9092 9.66699 8.84326 9.66699C8.82667 9.66699 8.80957 9.66896 8.79298 9.6748C8.71045 9.70265 8.66601 9.79199 8.69385 9.87452C8.73926 10.0107 8.77735 10.1514 8.8047 10.292C8.82039 10.3672 8.88582 10.4189 8.95954 10.4189Z" fill="#175AB6"/>
<path d="M5.86969 14.3276L5.8521 14.3286C5.72904 14.3423 5.60357 14.3491 5.47904 14.3491C5.45951 14.3491 5.43948 14.3486 5.41994 14.3486H5.41751C5.33157 14.3486 5.26126 14.417 5.25979 14.5029C5.25832 14.5903 5.32716 14.6616 5.4141 14.6636C5.43069 14.6641 5.44682 14.6641 5.46341 14.6641H5.46391H5.46538H5.46832H5.46929H5.47026H5.47123H5.47219H5.47316H5.47463H5.47513H5.4766H5.4771H5.47907H5.48054H5.48104H5.48201H5.48251H5.48348H5.48398H5.48495H5.48591H5.48688H5.48738H5.48835H5.48885H5.48982H5.49079H5.49129H5.49179H5.49276H5.49373H5.49469H5.49519H5.49616H5.49666H5.49763H5.4986H5.50154H5.50301H5.50351H5.50448H5.50544H5.50641H5.50738H5.50835H5.50932H5.51029H5.51079H5.51129H5.51226H5.51323H5.51419H5.51516H5.51613H5.5171H5.5176H5.51907H5.52248H5.52298H5.52394H5.52444H5.52541H5.52591H5.52688H5.52785H5.52882H5.52979H5.53076H5.53179H5.53229H5.53376L5.53473 14.6636H5.53569H5.53666H5.53716H5.53863H5.54351H5.54498H5.54644H5.54694H5.54791H5.54841H5.54938H5.55035H5.55132L5.55279 14.6631H5.55329H5.55426H5.55476H5.55623H5.55719H5.55816H5.55913H5.55963H5.56598H5.56745H5.56891H5.57088H5.57185H5.57282H5.57379H5.57576H5.57673H5.5787L5.59138 14.6621H5.59335H5.59482C5.69298 14.6592 5.79063 14.6523 5.88682 14.6421C5.97326 14.6323 6.03576 14.5547 6.02598 14.4678C6.01713 14.3877 5.94879 14.3276 5.86969 14.3276Z" fill="#175AB6"/>
<path d="M9.02071 11.2314L9.00215 11.2305C8.92306 11.2305 8.85518 11.2891 8.8459 11.3692C8.82831 11.5117 8.80196 11.6548 8.76681 11.794C8.74484 11.8784 8.79612 11.9639 8.88009 11.9854L8.91915 11.9902C8.98946 11.9902 9.05343 11.9429 9.07149 11.8721C9.07981 11.8399 9.08712 11.8081 9.09493 11.7764V11.7759V11.7744L9.0959 11.7705V11.769L9.0964 11.7685L9.0969 11.7676V11.7671V11.7651L9.0974 11.7646L9.0979 11.7636V11.7627V11.7622V11.7612V11.7602L9.0984 11.7592L9.0989 11.7583V11.7573V11.7568V11.7558L9.0994 11.7549L9.0999 11.7539V11.7534V11.7519V11.7514L9.10087 11.75V11.7495V11.7485V11.748L9.10184 11.7446V11.7441V11.7426L9.10281 11.7412L9.10331 11.7373L9.10381 11.7358V11.7353L9.10478 11.7304C9.12724 11.624 9.14531 11.5161 9.15849 11.4067C9.16915 11.3203 9.10765 11.2422 9.02071 11.2314Z" fill="#175AB6"/>
<path d="M6.65152 7.77389C6.78631 7.8237 6.91912 7.8823 7.04702 7.94917C7.06996 7.96089 7.09487 7.96676 7.1193 7.96676C7.17596 7.96676 7.23112 7.93648 7.25943 7.8823C7.29996 7.80564 7.26968 7.70992 7.19252 7.66989C7.09681 7.62008 6.99915 7.57417 6.89859 7.5322L6.89371 7.53023L6.89224 7.52926H6.89174L6.88881 7.5283L6.88684 7.52733L6.88343 7.52586L6.88196 7.52536L6.87709 7.52339H6.87659L6.87171 7.52095H6.87121L6.86974 7.52045L6.86634 7.51898L6.86437 7.51848L6.86143 7.51701V7.51651L6.85946 7.51602L6.85606 7.51455H6.85556L6.85459 7.51405V7.51355L6.84921 7.51208L6.84384 7.50964C6.81649 7.49889 6.78865 7.48814 6.76084 7.47839C6.74277 7.47155 6.72471 7.46814 6.70615 7.46814C6.64218 7.46814 6.58212 7.5077 6.55868 7.57117C6.52849 7.65327 6.56999 7.74361 6.65152 7.77389Z" fill="#175AB6"/>
<path d="M8.31915 8.98492C8.35237 8.98492 8.38505 8.97467 8.41387 8.95317C8.48321 8.90142 8.49687 8.8023 8.44512 8.73245C8.3919 8.66214 8.33671 8.59377 8.27909 8.52736H8.27859L8.27615 8.52442L8.27518 8.52345V8.52295L8.27274 8.52052L8.27224 8.52002L8.27127 8.51905L8.27031 8.51758L8.26934 8.51611V8.51567L8.26837 8.5147H8.26787L8.2664 8.51373L8.26543 8.51227V8.51177L8.26446 8.5108V8.5103L8.26349 8.50933L8.26252 8.50883L8.26202 8.50786H8.26152L8.26055 8.50689V8.50639L8.25959 8.50542V8.50492L8.25862 8.50395L8.25765 8.50345L8.25715 8.50248L8.25665 8.50198L8.25615 8.50148L8.25565 8.50098L8.25468 8.49952L8.25371 8.49902V8.49805L8.25274 8.49755V8.49705L8.25177 8.49655L8.25077 8.49564L8.25027 8.49514L8.24977 8.49417L8.24927 8.49367L8.24877 8.49317L8.2468 8.49073L8.24584 8.49023L8.24534 8.48927H8.24484L8.24287 8.48633L8.24237 8.48583L8.24187 8.48533H8.24137L8.23893 8.48239V8.48189L8.23796 8.48092V8.48042L8.23502 8.47798L8.23405 8.47702V8.47652L8.23112 8.47408V8.47358L8.23015 8.47261L8.22684 8.4688H8.22634L8.2234 8.46489L8.2229 8.46439L8.21559 8.45658V8.45608C8.19018 8.42873 8.16384 8.40089 8.13746 8.37355C8.10671 8.3418 8.06568 8.32617 8.02468 8.32617C7.98512 8.32617 7.94559 8.34083 7.9148 8.37061C7.8523 8.43117 7.85134 8.53077 7.91187 8.59327C8.01149 8.6963 8.10621 8.80714 8.19312 8.92189C8.22343 8.96295 8.27127 8.98492 8.31915 8.98492Z" fill="#175AB6"/>
<path d="M7.11752 4.06934C7.04624 4.06934 6.9813 4.11818 6.96421 4.19093C6.92855 4.34277 6.90221 4.49855 6.88558 4.65724C6.8768 4.74368 6.93977 4.8213 7.02621 4.83009L7.0428 4.83059C7.1224 4.83059 7.19124 4.77052 7.19905 4.68946C7.21371 4.5459 7.23811 4.40284 7.27133 4.26318C7.29086 4.17821 7.23861 4.09374 7.15415 4.07371L7.11752 4.06934Z" fill="#175AB6"/>
<path d="M7.68493 2.71675C7.65953 2.74897 7.63415 2.78122 7.60975 2.81391L7.60681 2.81731L7.60584 2.81828L7.6029 2.82269L7.5995 2.8271L7.59609 2.83197L7.59312 2.83588V2.83638L7.58628 2.84516C7.54428 2.90131 7.50425 2.95894 7.46615 3.018L7.46322 3.02241V3.02291L7.46225 3.02388L7.46078 3.02585V3.02635L7.46028 3.02731L7.45931 3.02828V3.02878L7.45734 3.03075V3.03172L7.45684 3.03222L7.45634 3.03319H7.45584L7.45487 3.03516L7.45437 3.03566V3.03616L7.4534 3.03713V3.03763L7.45243 3.0386V3.0391L7.45146 3.04056V3.04106L7.4505 3.04156V3.04206L7.44953 3.04303V3.044L7.44856 3.04497V3.04547L7.44759 3.04694L7.44662 3.04791V3.04841L7.44565 3.04988L7.44468 3.05135V3.05185L7.44371 3.05281V3.05331L7.44175 3.05625C7.4315 3.07188 7.42125 3.0875 7.41197 3.10363C7.36656 3.17735 7.3895 3.27453 7.46371 3.31994C7.48959 3.33606 7.5179 3.34338 7.54625 3.34338C7.599 3.34338 7.65075 3.317 7.68053 3.26819C7.75571 3.14613 7.83972 3.02747 7.93003 2.91516C7.98471 2.84778 7.97396 2.74816 7.90659 2.69347C7.87728 2.67003 7.84212 2.65881 7.80746 2.65881C7.76159 2.65863 7.71618 2.67866 7.68493 2.71675Z" fill="#175AB6"/>
<path d="M11.9048 8.33739C11.9317 8.39501 11.9888 8.4292 12.0484 8.4292C12.0709 8.4292 12.0928 8.4248 12.1138 8.41505C12.2012 8.37501 12.2867 8.33204 12.3697 8.28564L12.3717 8.28467L12.3746 8.2827L12.3766 8.2822L12.3795 8.28023L12.381 8.27926H12.3815L12.3825 8.2783L12.3844 8.27733L12.3854 8.27683L12.3864 8.27633L12.3873 8.27583L12.3878 8.27533L12.3893 8.27483V8.27433L12.3903 8.27383L12.3912 8.27333L12.3922 8.27283V8.27233L12.3942 8.27183V8.27133L12.3951 8.27083H12.3961L12.3966 8.27033L12.3971 8.26983L12.3981 8.26933L12.3996 8.26836H12.4001L12.401 8.26786H12.4015L12.4025 8.26689H12.403L12.405 8.26542L12.4059 8.26492L12.4074 8.26442L12.4108 8.26198L12.4123 8.26148C12.4518 8.23855 12.4919 8.21461 12.5309 8.19067C12.6042 8.14429 12.6266 8.04761 12.5807 7.97339C12.5505 7.92601 12.4997 7.89917 12.447 7.89917C12.4186 7.89917 12.3893 7.90698 12.3635 7.92358C12.2414 7.99926 12.1135 8.06811 11.9831 8.12817C11.9039 8.16454 11.8687 8.25829 11.9048 8.33739Z" fill="#175AB6"/>
<path d="M13.1775 7.21583C13.1213 7.28273 13.1306 7.38233 13.197 7.43798C13.2263 7.46289 13.2624 7.47461 13.298 7.47461C13.3435 7.47461 13.3879 7.45558 13.4186 7.41795C13.5007 7.3208 13.5769 7.21873 13.6481 7.11277H13.6486L13.6496 7.1113L13.6516 7.10836L13.6521 7.10786L13.6526 7.10689H13.6531L13.654 7.10542L13.655 7.10345L13.6555 7.10248L13.656 7.10152L13.657 7.10102V7.10052L13.658 7.09905V7.09855L13.6589 7.09758V7.09708L13.6599 7.09611V7.09561L13.6609 7.09464V7.09414L13.6618 7.09317V7.09267L13.6628 7.0917V7.09073L13.6638 7.08977L13.6643 7.08927L13.6648 7.08877L13.6653 7.0878L13.6658 7.0873L13.6677 7.08389L13.6687 7.08292L13.6707 7.07952V7.07902L13.6716 7.07852V7.07814L13.6746 7.07373V7.07323L13.6985 7.03711C13.7449 6.96386 13.7239 6.8662 13.6502 6.81933C13.6243 6.80273 13.5945 6.79492 13.5657 6.79492C13.5135 6.79492 13.4627 6.82033 13.4324 6.8672C13.3552 6.9883 13.2693 7.10598 13.1775 7.21583Z" fill="#175AB6"/>
<path d="M14.0869 3.86084L14.0864 3.85987C14.0644 3.79396 14.0029 3.75293 13.937 3.75293C13.9204 3.75293 13.9033 3.7549 13.8867 3.76074C13.8042 3.78859 13.7598 3.87793 13.7876 3.96046C13.8335 4.09668 13.8711 4.2373 13.8989 4.37793C13.9141 4.45312 13.9795 4.5049 14.0533 4.5049L14.084 4.50196C14.1694 4.48487 14.2246 4.40234 14.208 4.3164L14.2041 4.29737V4.29687V4.2959L14.2032 4.29199V4.29149V4.29052V4.29002L14.2022 4.28612V4.28562L14.2017 4.28512L14.2012 4.28415V4.28318V4.28268L14.2007 4.28024L14.2002 4.27927V4.27877V4.2778V4.27684V4.27634L14.1997 4.27487L14.1992 4.2739V4.2734V4.27243V4.27146L14.1982 4.27049V4.26952V4.26855V4.26759L14.1977 4.26662V4.26562L14.1972 4.26512V4.26415V4.26365L14.1967 4.26218V4.26168L14.1962 4.26021V4.25971V4.25874V4.25777L14.1953 4.2568V4.2563V4.25484V4.25434L14.1948 4.25287V4.25237L14.1943 4.2509V4.24893L14.1933 4.24746V4.24696V4.24549L14.1923 4.24209V4.24159V4.24012L14.1918 4.23962L14.1909 4.23474L14.1904 4.23424V4.23277L14.1894 4.22887V4.2274L14.1879 4.22202V4.22152L14.1864 4.21468C14.1679 4.13362 14.1469 4.05355 14.123 3.97543L14.121 3.96812L14.1181 3.95787V3.95737L14.1156 3.95102L14.1142 3.94565V3.94515L14.1132 3.94368L14.1122 3.9383L14.1103 3.93343V3.93293L14.1098 3.93146H14.1094L14.1084 3.92805V3.92755V3.92609L14.1079 3.92559L14.1069 3.92265L14.1064 3.92068L14.1059 3.91921L14.1054 3.91871V3.91724L14.1045 3.91577V3.91527V3.9138L14.104 3.9133L14.1035 3.91234V3.91184L14.103 3.91037V3.90987L14.1025 3.9089V3.90793L14.102 3.90696L14.1015 3.90646V3.90499L14.1005 3.90352V3.90302V3.90155L14.1 3.90105L14.0995 3.90009V3.89959L14.099 3.89812V3.89762L14.0985 3.89615V3.89565L14.098 3.89468L14.0975 3.89418V3.89271L14.097 3.89221L14.0965 3.89124V3.89062V3.88965L14.096 3.88915L14.0955 3.88865V3.88718L14.095 3.88621L14.0945 3.88571V3.88474V3.88377L14.094 3.88327L14.0938 3.8823V3.88134L14.0933 3.87987L14.0928 3.87937V3.8784V3.8779L14.0918 3.87693V3.87643V3.87499L14.0908 3.87402V3.87305V3.87255L14.0903 3.87205V3.87109L14.0889 3.86768V3.86718V3.86621H14.0884L14.0879 3.86524V3.86427L14.0869 3.8623V3.8618V3.86084H14.0869Z" fill="#175AB6"/>
<path d="M10.5083 8.74954C10.5249 8.75004 10.541 8.75004 10.5576 8.75004H10.5581H10.559H10.5595H10.562H10.5629H10.5639H10.5649H10.5659H10.5668H10.5683H10.5688H10.5708H10.5727H10.5742H10.5747H10.5757H10.5766H10.5776H10.5791H10.5796H10.5805H10.5815H10.582H10.5825H10.5835H10.5844H10.5854H10.5859H10.5864H10.5874H10.5884H10.5893H10.5903H10.5913H10.5922H10.5952H10.5957H10.5971H10.5981H10.5991H10.6H10.6005H10.6015H10.602H10.603H10.6039H10.6049H10.6054H10.6059H10.6069H10.6079H10.6084H10.6093H10.6098H10.6108H10.6118H10.6127H10.6161H10.6166H10.6176H10.6186H10.6195H10.6205H10.6215H10.6224H10.6229H10.6239H10.6244H10.6254H10.6264H10.6274H10.6279L10.6284 8.74954H10.6294H10.6303H10.6308H10.6323H10.6372H10.6386H10.6391H10.6401H10.6411H10.642H10.6435H10.644H10.645L10.6469 8.74904H10.6479H10.6489H10.6499H10.6504H10.6513H10.6518H10.6528H10.6533H10.6596H10.6611H10.6616H10.6626H10.6631H10.6645H10.666H10.6665H10.6675H10.6694H10.6704H10.6709H10.6724L10.6851 8.74807H10.687H10.689C10.7867 8.74514 10.8843 8.73829 10.981 8.72804C11.0669 8.71826 11.1294 8.64064 11.1202 8.5542C11.1114 8.47364 11.043 8.41357 10.9634 8.41357L10.9463 8.41454C10.8233 8.42823 10.6978 8.43504 10.5728 8.43504C10.5533 8.43504 10.5337 8.43454 10.5142 8.43454H10.5113C10.4253 8.43454 10.355 8.50339 10.3535 8.58886C10.352 8.67632 10.4214 8.74761 10.5083 8.74954Z" fill="#175AB6"/>
<path d="M14.0957 5.31641C14.0171 5.31641 13.9492 5.375 13.9395 5.45509C13.9219 5.59769 13.8956 5.74075 13.8604 5.87991C13.8389 5.96437 13.8897 6.04984 13.9742 6.07131L14.0127 6.07619C14.0831 6.07619 14.1475 6.02881 14.1656 5.95803C14.1739 5.92581 14.1812 5.89406 14.1885 5.86231V5.86181V5.86034L14.1895 5.85644L14.19 5.85497L14.1905 5.85447V5.8535V5.853L14.191 5.85103L14.1915 5.85053V5.84956V5.84859V5.84809V5.84713L14.192 5.84616L14.1925 5.84519V5.84422V5.84325V5.84275L14.193 5.84178L14.1935 5.84081V5.83984L14.194 5.83787V5.83738L14.1945 5.83591V5.83541V5.83444V5.83394L14.1955 5.83053V5.82856H14.196L14.1965 5.82709L14.1974 5.82319V5.82172V5.82122L14.1984 5.81634C14.2209 5.70991 14.2394 5.602 14.2521 5.49263C14.2629 5.40619 14.2013 5.32806 14.1149 5.31734L14.0957 5.31641Z" fill="#175AB6"/>
<path d="M13.3093 2.54252V2.54202C13.2839 2.51467 13.2576 2.48683 13.2312 2.45948C13.2005 2.42773 13.1599 2.41211 13.1184 2.41211C13.0789 2.41211 13.0393 2.42677 13.0086 2.45655C12.9461 2.51711 12.9451 2.6172 13.0056 2.6792C13.1057 2.78223 13.2004 2.89308 13.2869 3.00783C13.3176 3.04886 13.365 3.07083 13.4128 3.07083C13.4461 3.07083 13.4792 3.06058 13.5076 3.03908C13.5769 2.98733 13.5911 2.88867 13.5388 2.81836C13.4861 2.74805 13.4304 2.67967 13.3728 2.61327L13.3703 2.61033H13.3698L13.3689 2.60936V2.60886L13.3669 2.60642L13.3664 2.60592L13.3654 2.60495H13.3649L13.364 2.60348L13.363 2.60202V2.60161L13.362 2.60064H13.3615L13.3606 2.59967H13.3601L13.3591 2.5982V2.5977L13.3582 2.59673V2.59623L13.3572 2.59527H13.3567L13.3557 2.5938H13.3552L13.3542 2.59283V2.59233L13.3533 2.59136V2.59086L13.3523 2.58989L13.3513 2.58939V2.58889L13.3504 2.58792L13.3499 2.58742L13.3494 2.58692L13.3484 2.58545L13.3479 2.58495L13.3474 2.58398L13.3469 2.58348L13.3464 2.58298L13.3454 2.58248L13.3445 2.58158V2.58108L13.3435 2.58058V2.57961L13.3426 2.57911L13.3406 2.57667L13.3401 2.57617L13.3396 2.5752H13.3386L13.3366 2.57227V2.57177L13.3357 2.57127L13.3327 2.56833V2.56783L13.3318 2.56686L13.3288 2.56392L13.3279 2.56295V2.56255L13.3249 2.56011V2.55961L13.3244 2.55864H13.3239L13.321 2.55473H13.3205L13.3171 2.55083V2.55033L13.3093 2.54252Z" fill="#175AB6"/>
<path d="M1.88672 3.86378C2.29981 3.25294 2.81641 2.71925 3.40822 2.28225L3.77541 3.06203L5.87062 0.867688L2.67675 0.726562L3.06641 1.55469C2.34862 2.06153 1.72656 2.69434 1.23437 3.42284C0.455094 4.57519 0 5.96681 0 7.46191H0.788094C0.788094 6.12744 1.19337 4.89159 1.88672 3.86378Z" fill="#175AB6"/>
<path d="M15.0244 8.93213C15.0244 10.2266 14.6436 11.4282 13.9873 12.4375C13.5635 13.0889 13.0225 13.6572 12.3975 14.1172L12.103 13.4912L10.0078 15.6856L13.2022 15.8267L12.7383 14.8403C13.4927 14.3096 14.1436 13.6416 14.6475 12.8672C15.3838 11.7353 15.8125 10.3818 15.8125 8.93213H15.0244Z" fill="#175AB6"/>
<path d="M5.53123 5.12744C5.7993 5.12987 6.06248 5.15037 6.32127 5.1875C6.3193 5.13966 6.31736 5.09178 6.31736 5.04297C6.31736 2.69678 8.22605 0.788094 10.5722 0.788094C12.9184 0.788094 14.8271 2.69678 14.8271 5.04297C14.8271 7.22462 13.1767 9.02637 11.0595 9.26903C11.1352 9.52 11.1953 9.77734 11.2368 10.041C13.708 9.71531 15.6152 7.60253 15.6152 5.04294C15.6152 2.25781 13.3574 0 10.5723 0C7.78711 0 5.5293 2.25781 5.5293 5.04297C5.5293 5.07128 5.53123 5.09912 5.53123 5.12744Z" fill="#175AB6"/>
<path d="M10.8569 3.35156H9.84081C9.67869 3.35156 9.54688 3.48291 9.54688 3.64503V6.64063C9.54688 6.80275 9.67872 6.93409 9.84081 6.93409H9.98828C10.1504 6.93409 10.2822 6.80275 10.2822 6.64063V5.79738H10.8569C11.6265 5.79738 12.2529 5.24853 12.2529 4.57422C12.2529 3.90041 11.6265 3.35156 10.8569 3.35156ZM10.8569 5.15331H10.2822V3.99509H10.8569C11.2217 3.99509 11.5176 4.25487 11.5176 4.57419C11.5176 4.89403 11.2217 5.15331 10.8569 5.15331Z" fill="#175AB6"/>
</svg>
