<svg width="17" height="18" viewBox="0 0 17 18" fill="none" xmlns="http://www.w3.org/2000/svg">
<path d="M12.8622 7.43923C12.3838 8.15865 11.6865 8.69981 10.8654 8.69981C10.0445 8.69981 9.34674 8.15898 8.86802 7.43954C8.38165 6.70859 8.0635 5.71872 8.00817 4.62508L12.8622 7.43923ZM12.8622 7.43923C13.3482 6.70832 13.6663 5.71864 13.7226 4.62555L12.8622 7.43923ZM13.7226 4.62549C13.7806 3.50169 13.5282 2.49039 13.0318 1.744C12.5319 0.992337 11.7718 0.499756 10.8654 0.499756C9.96371 0.499756 9.20257 0.978089 8.69998 1.72812C8.20186 2.47148 7.95037 3.48398 8.00817 4.62504L13.7226 4.62549Z" stroke="#175AB6" stroke-linecap="round" stroke-linejoin="round"/>
<path d="M10.8554 10.9001C8.27008 10.9001 5.83575 12.7072 5.23498 16.083L5.23496 16.0831C5.18147 16.3834 5.21718 16.6999 5.34448 16.961C5.47011 17.2186 5.73498 17.5002 6.14594 17.5002H15.5652C15.9765 17.5002 16.241 17.2182 16.3664 16.9606C16.4933 16.6998 16.5289 16.384 16.4764 16.0844C15.8754 12.6528 13.4371 10.9001 10.8554 10.9001Z" stroke="#175AB6" stroke-miterlimit="10"/>
<path d="M1.7175 5.52162L1.7175 5.52164C1.7625 6.41137 2.02399 7.22622 2.42529 7.83293C2.81769 8.42618 3.40409 8.89941 4.1103 8.89941C4.8167 8.89941 5.40273 8.42582 5.79485 7.83262C6.19587 7.22595 6.4573 6.41129 6.50307 5.52209C6.55022 4.60632 6.34209 3.77147 5.92994 3.14969C5.51507 2.52379 4.87732 2.09937 4.1103 2.09937C3.34796 2.09937 2.70918 2.51138 2.29161 3.13662C1.87774 3.75634 1.67053 4.59233 1.7175 5.52162Z" stroke="#175AB6" stroke-linecap="round" stroke-linejoin="round"/>
<mask id="path-4-outside-1_1654_15883" maskUnits="userSpaceOnUse" x="0" y="9.92749" width="9" height="7" fill="black">
<rect fill="white" y="9.92749" width="9" height="7"/>
<path d="M7.21654 11.5C6.5717 11.0865 5.86148 10.9275 5.10875 10.9275C3.25104 10.9275 1.4612 12.22 1.01285 14.7375C0.953907 15.0705 1.10324 15.4 1.3476 15.4H5.35883"/>
</mask>
<path d="M6.67674 12.3418C7.14165 12.6399 7.76021 12.5047 8.05833 12.0398C8.35645 11.5749 8.22125 10.9563 7.75634 10.6582L6.67674 12.3418ZM1.01285 14.7375L0.0283437 14.5622L0.0281616 14.5632L1.01285 14.7375ZM5.35883 16.4C5.91111 16.4 6.35883 15.9523 6.35883 15.4C6.35883 14.8477 5.91111 14.4 5.35883 14.4V16.4ZM7.75634 10.6582C6.91595 10.1193 6.00731 9.92749 5.10875 9.92749V11.9275C5.71565 11.9275 6.22745 12.0537 6.67674 12.3418L7.75634 10.6582ZM5.10875 9.92749C2.73718 9.92749 0.556444 11.5969 0.0283442 14.5622L1.99736 14.9129C2.36597 12.8431 3.7649 11.9275 5.10875 11.9275V9.92749ZM0.0281616 14.5632C-0.0338075 14.9133 0.0041154 15.2968 0.167778 15.6322C0.327939 15.9604 0.709408 16.4 1.3476 16.4V14.4C1.74143 14.4 1.92605 14.6749 1.96519 14.7551C2.00784 14.8425 2.00057 14.8947 1.99754 14.9118L0.0281616 14.5632ZM1.3476 16.4H5.35883V14.4H1.3476V16.4Z" fill="#175AB6" mask="url(#path-4-outside-1_1654_15883)"/>
</svg>
