<svg width="16" height="16" viewBox="0 0 16 16" fill="none" xmlns="http://www.w3.org/2000/svg">
<path d="M15.9721 15.2636L14.0078 9.31399C13.9312 9.08186 13.7108 8.92464 13.4622 8.92464H12.0755C12.6964 7.82037 13.1424 6.5164 13.1424 5.04777C13.1424 2.26444 10.8355 0 7.99986 0C5.16447 0 2.8576 2.26444 2.8576 5.04777C2.8576 6.5164 3.30362 7.82037 3.92443 8.92464H2.53782C2.28916 8.92464 2.06894 9.08186 1.99224 9.31399L0.0279336 15.2636C-0.0286505 15.435 0.00178254 15.6225 0.109675 15.7682C0.217567 15.9138 0.389995 16 0.573511 16H15.4265C15.61 16 15.7824 15.9138 15.8904 15.7682C15.9983 15.6225 16.0286 15.435 15.9721 15.2636ZM7.99986 1.12573C10.203 1.12573 11.9955 2.88517 11.9955 5.04777C11.9955 8.50301 8.99162 11.0289 7.99925 11.7689C7.00613 11.0309 4.00457 8.51299 4.00457 5.04777C4.00457 2.88517 5.79683 1.12573 7.99986 1.12573ZM1.36217 14.8743L2.95486 10.0504H4.65965C5.98402 11.8232 7.57235 12.8605 7.68613 12.9335C7.78148 12.9947 7.89067 13.0252 7.99994 13.0252C8.10921 13.0252 8.2184 12.9947 8.31375 12.9335C8.42738 12.8606 10.0159 11.8232 11.3404 10.0504H13.0453L14.6379 14.8743H1.36217Z" fill="#175AB6"/>
<path d="M8 8.32575C8.39396 8.32575 8.78407 8.25023 9.14805 8.10351C9.51203 7.95679 9.84274 7.74173 10.1213 7.47063C10.3999 7.19952 10.6209 6.87767 10.7716 6.52345C10.9224 6.16923 11 5.78958 11 5.40617C11 5.02277 10.9224 4.64312 10.7716 4.2889C10.6209 3.93468 10.3999 3.61283 10.1213 3.34172C9.84274 3.07061 9.51203 2.85556 9.14805 2.70884C8.78407 2.56211 8.39396 2.4866 8 2.4866C7.20435 2.4866 6.44129 2.79419 5.87868 3.34172C5.31607 3.88925 5 4.63185 5 5.40617C5 6.18049 5.31607 6.9231 5.87868 7.47063C6.44129 8.01815 7.20435 8.32575 8 8.32575ZM8 8.81235C7.07174 8.81235 6.1815 8.45348 5.52513 7.8147C4.86875 7.17592 4.5 6.30955 4.5 5.40617C4.5 4.5028 4.86875 3.63643 5.52513 2.99764C6.1815 2.35886 7.07174 2 8 2C8.92826 2 9.81849 2.35886 10.4749 2.99764C11.1312 3.63643 11.5 4.5028 11.5 5.40617C11.5 6.30955 11.1312 7.17592 10.4749 7.8147C9.81849 8.45348 8.92826 8.81235 8 8.81235Z" fill="#175AB6"/>
<path d="M5.5 5.18507C5.5 4.59846 5.76339 4.03588 6.23223 3.62109C6.70107 3.20629 7.33696 2.97327 8 2.97327C8.66304 2.97327 9.29893 3.20629 9.76777 3.62109C10.2366 4.03588 10.5 4.59846 10.5 5.18507C10.5 5.24373 10.4737 5.29999 10.4268 5.34147C10.3799 5.38294 10.3163 5.40625 10.25 5.40625C10.1837 5.40625 10.1201 5.38294 10.0732 5.34147C10.0263 5.29999 10 5.24373 10 5.18507C10 4.71578 9.78929 4.26572 9.41421 3.93388C9.03914 3.60205 8.53043 3.41563 8 3.41563C7.46957 3.41563 6.96086 3.60205 6.58579 3.93388C6.21071 4.26572 6 4.71578 6 5.18507C6 5.24373 5.97366 5.29999 5.92678 5.34147C5.87989 5.38294 5.8163 5.40625 5.75 5.40625C5.6837 5.40625 5.62011 5.38294 5.57322 5.34147C5.52634 5.29999 5.5 5.24373 5.5 5.18507Z" fill="#175AB6"/>
<path d="M7.57718 5.68262C7.41178 5.58247 7.29662 5.43947 7.25206 5.27888C7.20749 5.11829 7.23638 4.95045 7.33363 4.80503C7.43088 4.65961 7.59023 4.54596 7.7835 4.48418C7.97678 4.42239 8.19155 4.41645 8.38984 4.4674C8.58814 4.51834 8.75721 4.6229 8.86716 4.76259C8.97711 4.90228 9.02087 5.06811 8.9907 5.23077C8.96053 5.39342 8.85838 5.54244 8.7023 5.65148C8.54622 5.76052 8.34626 5.82256 8.13775 5.82664L7.576 7.18975C7.56436 7.21906 7.54546 7.24627 7.52039 7.26979C7.49532 7.29331 7.46458 7.31267 7.42996 7.32677C7.39533 7.34086 7.35749 7.3494 7.31865 7.35189C7.2798 7.35439 7.24072 7.35078 7.20365 7.34129C7.16659 7.3318 7.13228 7.31661 7.10271 7.29659C7.07314 7.27658 7.04891 7.25215 7.0314 7.2247C7.0139 7.19725 7.00347 7.16735 7.00073 7.1367C6.99799 7.10606 7.00299 7.0753 7.01543 7.04619L7.57718 5.68308V5.68262ZM8.20672 4.90861C8.16987 4.89915 8.13102 4.89551 8.09239 4.89789C8.05376 4.90026 8.0161 4.90861 7.98156 4.92246C7.94702 4.93631 7.91628 4.95538 7.8911 4.9786C7.86591 5.00181 7.84677 5.0287 7.83477 5.05774C7.82278 5.08678 7.81815 5.1174 7.82117 5.14785C7.82418 5.1783 7.83478 5.20799 7.85235 5.23521C7.86992 5.26243 7.89412 5.28666 7.92357 5.30651C7.95302 5.32636 7.98714 5.34144 8.02399 5.3509C8.0984 5.37 8.1794 5.36501 8.24915 5.33705C8.3189 5.30908 8.3717 5.26042 8.39593 5.20177C8.42017 5.14311 8.41384 5.07928 8.37836 5.0243C8.34288 4.96932 8.28113 4.92771 8.20672 4.90861Z" fill="#175AB6"/>
</svg>
