<svg width="14" height="14" viewBox="0 0 14 14" fill="none" xmlns="http://www.w3.org/2000/svg">
<path d="M0 7.00145C0 7.27326 0.215989 7.49358 0.482468 7.49358H9.67181L7.87938 9.31904C7.69144 9.51075 7.69144 9.82262 7.87938 10.0143C7.97195 10.1087 8.09537 10.1574 8.21879 10.1574C8.34222 10.1574 8.46564 10.1087 8.5582 10.0143L11.1697 7.35052C11.3576 7.15881 11.3576 6.84694 11.1697 6.65524L8.5582 3.99143C8.37027 3.79973 8.06452 3.79973 7.87658 3.99143C7.68864 4.18314 7.68864 4.49501 7.87658 4.68671L9.6662 6.51218H0.482468C0.215989 6.51218 0 6.72963 0 7.00145Z" fill="#175AB6"/>
<path d="M11.12 14C12.7104 14 14.0007 12.681 14.0007 11.0587V2.94134C14.0007 1.31903 12.7076 0 11.12 0H3.16203C1.57157 0 0.28125 1.31903 0.28125 2.94134V4.60944C0.28125 4.88126 0.497239 5.09871 0.760913 5.09871C1.02739 5.09871 1.24338 4.8784 1.24338 4.60944V2.94134C1.24338 1.86266 2.10453 0.981402 3.16203 0.981402H11.12C12.1775 0.981402 13.0386 1.8598 13.0386 2.94134V11.0587C13.0386 12.1373 12.1775 13.0186 11.12 13.0186H3.16203C2.10453 13.0186 1.24338 12.1402 1.24338 11.0587V9.41059C1.24338 9.13877 1.02739 8.91846 0.760913 8.91846C0.494434 8.91846 0.28125 9.13877 0.28125 9.41059V11.0587C0.28125 12.681 1.57438 14 3.16203 14H11.12Z" fill="#175AB6"/>
</svg>
