<svg width="16" height="17" viewBox="0 0 16 17" fill="none" xmlns="http://www.w3.org/2000/svg">
<path d="M0 8.76409C0 9.01331 0.199377 9.21269 0.448598 9.21269H11.2847L8.96199 11.5354C8.78588 11.7115 8.78588 11.994 8.96199 12.1701C9.04839 12.2565 9.16469 12.303 9.27767 12.303C9.39065 12.303 9.50696 12.2598 9.59336 12.1701L12.6837 9.07977C12.8598 8.90365 12.8598 8.6212 12.6837 8.44509L9.59336 5.35474C9.41724 5.17863 9.13479 5.17863 8.95867 5.35474C8.78255 5.53086 8.78255 5.81331 8.95867 5.98943L11.2814 8.31217H0.448598C0.199377 8.31549 0 8.51487 0 8.76409Z" fill="white"/>
<path d="M12.707 0.765625H3.28972C1.47539 0.765625 0 2.24101 0 4.05534V5.9893C0 6.23852 0.199377 6.4379 0.448598 6.4379C0.697819 6.4379 0.897196 6.23852 0.897196 5.9893V4.05534C0.897196 2.73613 1.97051 1.66282 3.28972 1.66282H12.7103C14.0295 1.66282 15.1028 2.73613 15.1028 4.05534V13.4759C15.1028 14.7951 14.0295 15.8684 12.7103 15.8684H3.28972C1.97051 15.8684 0.897196 14.7951 0.897196 13.4759V11.5652C0.897196 11.316 0.697819 11.1166 0.448598 11.1166C0.199377 11.1166 0 11.316 0 11.5652V13.4759C0 15.2902 1.47539 16.7656 3.28972 16.7656H12.7103C14.5246 16.7656 16 15.2902 16 13.4759V4.05534C15.9967 2.24101 14.5213 0.765625 12.707 0.765625Z" fill="white"/>
</svg>
