<svg width="17" height="17" viewBox="0 0 17 17" fill="none" xmlns="http://www.w3.org/2000/svg">
<path d="M7.74343 6.11744C7.74343 7.44766 6.77586 8.44093 5.68226 8.44093C4.58867 8.44093 3.62109 7.44766 3.62109 6.11744C3.62109 4.78721 4.58867 3.79395 5.68226 3.79395C6.77586 3.79395 7.74343 4.78721 7.74343 6.11744Z" stroke="#175AB6" stroke-linecap="round"/>
<path d="M8.97106 6.5842C9.1962 6.15433 9.55855 5.85575 9.96574 5.73547C10.3709 5.6158 10.8042 5.6767 11.1752 5.91282C11.5486 6.15049 11.834 6.55122 11.9522 7.0378C12.0706 7.52473 12.0076 8.04232 11.7819 8.47317C11.5568 8.90305 11.1944 9.20162 10.7872 9.32191C10.3821 9.44157 9.94878 9.38067 9.57782 9.14456C9.20441 8.90689 8.91903 8.50615 8.80077 8.01958C8.68242 7.53265 8.74542 7.01505 8.97106 6.5842L8.97106 6.5842Z" stroke="#175AB6"/>
<path d="M9.37401 15.4995H1.98306V16.4995H9.37401V15.4995ZM1.56687 15.0812C1.68449 14.3048 1.95919 13.2316 2.58306 12.3636C3.18914 11.5204 4.13421 10.8525 5.67854 10.8525V9.85254C3.78145 9.85254 2.54625 10.7014 1.77104 11.78C1.01362 12.8338 0.706018 14.0874 0.578155 14.9314L1.56687 15.0812ZM5.67854 10.8525C7.22287 10.8525 8.16794 11.5204 8.77402 12.3636C9.39789 13.2316 9.67258 14.3048 9.7902 15.0812L10.7789 14.9314C10.6511 14.0874 10.3435 12.8338 9.58603 11.78C8.81083 10.7014 7.57562 9.85254 5.67854 9.85254V10.8525ZM1.98306 15.4995C1.69162 15.4995 1.53649 15.2817 1.56687 15.0812L0.578155 14.9314C0.443082 15.8229 1.16993 16.4995 1.98306 16.4995V15.4995ZM9.37401 16.4995C10.1871 16.4995 10.914 15.8229 10.7789 14.9314L9.7902 15.0812C9.82058 15.2817 9.66545 15.4995 9.37401 15.4995V16.4995Z" fill="#175AB6"/>
<path d="M9.39542 15.9998L9.38478 15.4999L9.39542 16.4998V15.9998ZM13.605 14.9221L14.0919 14.8084L13.605 14.9221ZM8.92383 11.748L8.63679 11.3386L8.18296 11.6568L8.54605 12.0755L8.92383 11.748ZM10.2843 15.0067L10.7786 14.9318V14.9318L10.2843 15.0067ZM12.6972 15.4998H9.39542V16.4998H12.6972V15.4998ZM13.1181 15.0358C13.1691 15.2539 13.0063 15.4998 12.6972 15.4998V16.4998C13.564 16.4998 14.3084 15.7354 14.0919 14.8084L13.1181 15.0358ZM10.3771 11.7939C11.1931 11.7939 11.783 12.2255 12.2315 12.8721C12.688 13.53 12.9618 14.3663 13.1181 15.0358L14.0919 14.8084C13.9239 14.0888 13.6144 13.111 13.0532 12.3021C12.4842 11.4819 11.6223 10.7939 10.3771 10.7939V11.7939ZM9.21086 12.1574C9.5316 11.9325 9.91168 11.7939 10.3771 11.7939V10.7939C9.69486 10.7939 9.11615 11.0025 8.63679 11.3386L9.21086 12.1574ZM8.54605 12.0755C9.33066 12.9805 9.65806 14.2114 9.7899 15.0816L10.7786 14.9318C10.6366 13.9944 10.2709 12.5384 9.3016 11.4204L8.54605 12.0755ZM9.7899 15.0816C9.81999 15.2803 9.66929 15.4938 9.38478 15.4999L9.40606 16.4996C10.2057 16.4826 10.9118 15.811 10.7786 14.9318L9.7899 15.0816Z" fill="#175AB6"/>
<rect x="10.892" y="3.17618" width="5.69705" height="0.705872" rx="0.352936" stroke="#175AB6" stroke-width="0.705872" stroke-linecap="round"/>
<rect x="14.0549" y="0.320146" width="6.41843" height="0.640292" rx="0.320146" transform="rotate(90 14.0549 0.320146)" fill="#175AB6" stroke="#175AB6" stroke-width="0.640292" stroke-linecap="round"/>
</svg>
