<svg width="16" height="16" viewBox="0 0 16 16" fill="none" xmlns="http://www.w3.org/2000/svg">
<path d="M5.07815 9.99614C4.62557 10.0246 4.19212 10.2459 3.84268 10.627C3.49324 11.008 3.2466 11.5284 3.13969 12.1102C3.09292 12.3557 2.88615 12.4614 2.70646 12.424C2.51077 12.3834 2.41108 12.0419 2.48492 11.7492C2.74708 10.6905 3.28123 9.87905 3.97908 9.43998C3.67195 9.1142 3.44903 8.67039 3.34113 8.16991C3.23323 7.66943 3.24569 7.13702 3.37679 6.64631C3.50788 6.1556 3.75114 5.73083 4.07291 5.43075C4.39468 5.13066 4.77907 4.97009 5.17292 4.97124C6.224 4.97124 7.07692 6.09981 7.07692 7.48531C7.07692 8.25287 6.81477 8.94075 6.40369 9.40421C7.12246 9.82864 7.66892 10.6499 7.96307 11.7085C8.0443 12.0012 7.99138 12.2923 7.80677 12.424C7.75539 12.4485 7.70072 12.4586 7.64624 12.4535C7.59176 12.4485 7.53868 12.4285 7.49037 12.3949C7.44207 12.3612 7.39962 12.3146 7.36573 12.258C7.33183 12.2014 7.30724 12.1361 7.29353 12.0663C7.04738 10.8174 6.2843 10.0384 5.31815 9.99288C5.23828 10.0006 5.15812 10.0017 5.07815 9.99614ZM14.944 12.9769V10.5995C14.944 10.2352 15.1975 9.94573 15.4917 9.94573C15.5579 9.94288 15.6238 9.95771 15.6856 9.98933C15.7473 10.0209 15.8036 10.0687 15.8511 10.1297C15.8985 10.1908 15.9362 10.2638 15.9618 10.3445C15.9874 10.4252 16.0004 10.5119 16 10.5995V13.5607C16 14.2077 15.8055 14.8281 15.4593 15.2856C15.113 15.743 14.6435 16 14.1538 16H2.29046C1.02769 16 0 14.7641 0 13.2355V2.44252C0 1.79559 0.194505 1.17515 0.540726 0.717699C0.886947 0.260246 1.35652 0.00325238 1.84615 0.00325237L13.7083 0C14.9723 0 16 1.2359 16 2.76613L15.9975 7.51459C15.9889 7.86747 15.776 8.12115 15.4917 8.12115C15.2049 8.12115 14.9538 7.86747 14.944 7.51133L14.9403 2.76613C14.9403 1.9628 14.3865 1.40177 13.7095 1.40177H2.28923C1.96281 1.40177 1.64976 1.5731 1.41894 1.87807C1.18813 2.18303 1.05846 2.59666 1.05846 3.02795V13.2371C1.05846 14.0388 1.61231 14.6047 2.28923 14.6047H13.712C14.0384 14.6047 14.3515 14.4334 14.5823 14.1284C14.8131 13.8235 14.9428 13.4098 14.9428 12.9786L14.944 12.9769ZM5.17415 6.07054C4.89905 6.08797 4.63957 6.24464 4.44954 6.50805C4.25951 6.77146 4.15351 7.12141 4.15351 7.48531C4.15351 7.84922 4.25951 8.19917 4.44954 8.46258C4.63957 8.72599 4.89905 8.88266 5.17415 8.90009C5.44926 8.88266 5.70873 8.72599 5.89876 8.46258C6.08879 8.19917 6.1948 7.84922 6.1948 7.48531C6.1948 7.12141 6.08879 6.77146 5.89876 6.50805C5.70873 6.24464 5.44926 6.08797 5.17415 6.07054ZM12.5834 12.3671H9.78461C9.456 12.3671 9.18153 12.0907 9.18153 11.7329C9.18153 11.3751 9.456 11.1003 9.78461 11.1003H12.5809C12.9108 11.1003 13.184 11.3751 13.184 11.7345C13.184 12.0923 12.9095 12.3671 12.5809 12.3671H12.5834ZM12.5834 6.23641H9.78461C9.456 6.23641 9.18153 5.96158 9.18153 5.60382C9.18153 5.24606 9.456 4.97124 9.78461 4.97124H12.5809C12.9108 4.97124 13.184 5.24606 13.184 5.60545C13.184 5.96321 12.9095 6.23641 12.5809 6.23641H12.5834ZM12.5834 9.0497H9.78461C9.456 9.0497 9.18153 8.7765 9.18153 8.41711C9.18153 8.05935 9.456 7.78453 9.78461 7.78453H12.5809C12.9095 7.78453 13.184 8.05936 13.184 8.41874C13.184 8.7765 12.9108 9.0497 12.5809 9.0497H12.5834Z" fill="#175AB6"/>
</svg>
