<svg width="16" height="17" viewBox="0 0 16 17" fill="none" xmlns="http://www.w3.org/2000/svg">
<path d="M5.07815 10.7618C4.62557 10.7902 4.19212 11.0115 3.84268 11.3926C3.49324 11.7737 3.2466 12.294 3.13969 12.8758C3.09292 13.1214 2.88615 13.2271 2.70646 13.1897C2.51077 13.149 2.41108 12.8075 2.48492 12.5148C2.74708 11.4561 3.28123 10.6447 3.97908 10.2056C3.67195 9.87983 3.44903 9.43601 3.34113 8.93554C3.23323 8.43506 3.24569 7.90265 3.37679 7.41194C3.50788 6.92122 3.75114 6.49645 4.07291 6.19637C4.39468 5.89629 4.77907 5.73571 5.17292 5.73686C6.224 5.73686 7.07692 6.86543 7.07692 8.25094C7.07692 9.0185 6.81477 9.70637 6.40369 10.1698C7.12246 10.5943 7.66892 11.4155 7.96307 12.4741C8.0443 12.7668 7.99138 13.0579 7.80677 13.1897C7.75539 13.2141 7.70072 13.2242 7.64624 13.2192C7.59176 13.2141 7.53868 13.1941 7.49037 13.1605C7.44207 13.1268 7.39962 13.0802 7.36573 13.0236C7.33183 12.967 7.30724 12.9017 7.29353 12.8319C7.04738 11.583 6.2843 10.804 5.31815 10.7585C5.23828 10.7662 5.15812 10.7673 5.07815 10.7618ZM14.944 13.7426V11.3651C14.944 11.0008 15.1975 10.7114 15.4917 10.7114C15.5579 10.7085 15.6238 10.7233 15.6856 10.755C15.7473 10.7866 15.8036 10.8343 15.8511 10.8954C15.8985 10.9564 15.9362 11.0295 15.9618 11.1102C15.9874 11.1909 16.0004 11.2776 16 11.3651V14.3264C16 14.9733 15.8055 15.5937 15.4593 16.0512C15.113 16.5086 14.6435 16.7656 14.1538 16.7656H2.29046C1.02769 16.7656 0 15.5297 0 14.0011V3.20815C0 2.56121 0.194505 1.94078 0.540726 1.48332C0.886947 1.02587 1.35652 0.768877 1.84615 0.768877L13.7083 0.765625C14.9723 0.765625 16 2.00152 16 3.53176L15.9975 8.28021C15.9889 8.63309 15.776 8.88678 15.4917 8.88678C15.2049 8.88678 14.9538 8.63309 14.944 8.27696L14.9403 3.53176C14.9403 2.72843 14.3865 2.16739 13.7095 2.16739H2.28923C1.96281 2.16739 1.64976 2.33872 1.41894 2.64369C1.18813 2.94866 1.05846 3.36228 1.05846 3.79357V14.0027C1.05846 14.8045 1.61231 15.3704 2.28923 15.3704H13.712C14.0384 15.3704 14.3515 15.199 14.5823 14.8941C14.8131 14.5891 14.9428 14.1755 14.9428 13.7442L14.944 13.7426ZM5.17415 6.83616C4.89905 6.85359 4.63957 7.01026 4.44954 7.27367C4.25951 7.53709 4.15351 7.88703 4.15351 8.25094C4.15351 8.61485 4.25951 8.96479 4.44954 9.2282C4.63957 9.49162 4.89905 9.64828 5.17415 9.66572C5.44926 9.64828 5.70873 9.49162 5.89876 9.2282C6.08879 8.96479 6.1948 8.61485 6.1948 8.25094C6.1948 7.88703 6.08879 7.53709 5.89876 7.27367C5.70873 7.01026 5.44926 6.85359 5.17415 6.83616ZM12.5834 13.1327H9.78461C9.456 13.1327 9.18153 12.8563 9.18153 12.4985C9.18153 12.1408 9.456 11.8659 9.78461 11.8659H12.5809C12.9108 11.8659 13.184 12.1408 13.184 12.5002C13.184 12.8579 12.9095 13.1327 12.5809 13.1327H12.5834ZM12.5834 7.00203H9.78461C9.456 7.00203 9.18153 6.72721 9.18153 6.36945C9.18153 6.01169 9.456 5.73686 9.78461 5.73686H12.5809C12.9108 5.73686 13.184 6.01169 13.184 6.37107C13.184 6.72883 12.9095 7.00203 12.5809 7.00203H12.5834ZM12.5834 9.81532H9.78461C9.456 9.81532 9.18153 9.54213 9.18153 9.18274C9.18153 8.82498 9.456 8.55016 9.78461 8.55016H12.5809C12.9095 8.55016 13.184 8.82498 13.184 9.18437C13.184 9.54213 12.9108 9.81532 12.5809 9.81532H12.5834Z" fill="#0E1E2B"/>
</svg>
