<svg width="17" height="18" viewBox="0 0 17 18" fill="none" xmlns="http://www.w3.org/2000/svg">
<path d="M7.74343 6.88306C7.74343 8.21328 6.77586 9.20655 5.68226 9.20655C4.58867 9.20655 3.62109 8.21328 3.62109 6.88306C3.62109 5.55284 4.58867 4.55957 5.68226 4.55957C6.77586 4.55957 7.74343 5.55284 7.74343 6.88306Z" stroke="#0E1E2B" stroke-linecap="round"/>
<path d="M8.97106 7.34983C9.1962 6.91995 9.55855 6.62138 9.96574 6.5011C10.3709 6.38143 10.8042 6.44233 11.1752 6.67844C11.5486 6.91611 11.834 7.31685 11.9522 7.80343C12.0706 8.29035 12.0076 8.80795 11.7819 9.2388C11.5568 9.66868 11.1944 9.96725 10.7872 10.0875C10.3821 10.2072 9.94878 10.1463 9.57782 9.91018C9.20441 9.67252 8.91903 9.27178 8.80077 8.7852C8.68242 8.29828 8.74542 7.78068 8.97106 7.34983L8.97106 7.34983Z" stroke="#0E1E2B"/>
<path d="M9.37401 16.2651H1.98306V17.2651H9.37401V16.2651ZM1.56687 15.8468C1.68449 15.0704 1.95919 13.9972 2.58306 13.1292C3.18914 12.286 4.13421 11.6182 5.67854 11.6182V10.6182C3.78145 10.6182 2.54625 11.467 1.77104 12.5456C1.01362 13.5994 0.706018 14.853 0.578155 15.697L1.56687 15.8468ZM5.67854 11.6182C7.22287 11.6182 8.16794 12.286 8.77402 13.1292C9.39789 13.9972 9.67258 15.0704 9.7902 15.8468L10.7789 15.697C10.6511 14.853 10.3435 13.5994 9.58603 12.5456C8.81083 11.467 7.57562 10.6182 5.67854 10.6182V11.6182ZM1.98306 16.2651C1.69162 16.2651 1.53649 16.0473 1.56687 15.8468L0.578155 15.697C0.443082 16.5886 1.16993 17.2651 1.98306 17.2651V16.2651ZM9.37401 17.2651C10.1871 17.2651 10.914 16.5886 10.7789 15.697L9.7902 15.8468C9.82058 16.0473 9.66545 16.2651 9.37401 16.2651V17.2651Z" fill="#0E1E2B"/>
<path d="M9.39347 16.7654L9.38283 16.2655L9.39347 17.2654V16.7654ZM13.6031 15.6877L14.09 15.5741L13.6031 15.6877ZM8.92188 12.5136L8.63484 12.1042L8.18101 12.4224L8.5441 12.8412L8.92188 12.5136ZM10.2823 15.7724L10.7767 15.6975V15.6975L10.2823 15.7724ZM12.6952 16.2654H9.39347V17.2654H12.6952V16.2654ZM13.1162 15.8014C13.1671 16.0196 13.0043 16.2654 12.6952 16.2654V17.2654C13.562 17.2654 14.3064 16.501 14.09 15.5741L13.1162 15.8014ZM10.3752 12.5596C11.1911 12.5596 11.781 12.9911 12.2296 13.6377C12.686 14.2956 12.9599 15.1319 13.1162 15.8014L14.09 15.5741C13.922 14.8544 13.6124 13.8766 13.0512 13.0677C12.4822 12.2475 11.6203 11.5596 10.3752 11.5596V12.5596ZM9.20891 12.923C9.52964 12.6982 9.90973 12.5596 10.3752 12.5596V11.5596C9.6929 11.5596 9.1142 11.7681 8.63484 12.1042L9.20891 12.923ZM8.5441 12.8412C9.32871 13.7461 9.65611 14.9771 9.78794 15.8473L10.7767 15.6975C10.6346 14.7601 10.269 13.304 9.29965 12.1861L8.5441 12.8412ZM9.78794 15.8473C9.81804 16.0459 9.66734 16.2594 9.38283 16.2655L9.40411 17.2653C10.2037 17.2483 10.9099 16.5766 10.7767 15.6975L9.78794 15.8473Z" fill="#0E1E2B"/>
<rect x="10.892" y="3.9418" width="5.69705" height="0.705872" rx="0.352936" stroke="#0E1E2B" stroke-width="0.705872" stroke-linecap="round"/>
<rect x="14.0549" y="1.08577" width="6.41843" height="0.640292" rx="0.320146" transform="rotate(90 14.0549 1.08577)" stroke="#0E1E2B" stroke-width="0.640292" stroke-linecap="round"/>
</svg>
